STARTFONT 2.1
COMMENT
COMMENT Converted from OpenType font "Nasalization Rg.otf" by "otf2bdf 3.0".
COMMENT
FONT -FreeType-Nasalization-Medium-R-Normal--40-400-72-72-P-232-ISO10646-1
SIZE 40 72 72
FONTBOUNDINGBOX 80 61 -23 -11
STARTPROPERTIES 19
FOUNDRY "FreeType"
FAMILY_NAME "Nasalization"
WEIGHT_NAME "Medium"
SLANT "R"
SETWIDTH_NAME "Normal"
ADD_STYLE_NAME ""
PIXEL_SIZE 40
POINT_SIZE 400
RESOLUTION_X 72
RESOLUTION_Y 72
SPACING "P"
AVERAGE_WIDTH 232
CHARSET_REGISTRY "ISO10646"
CHARSET_ENCODING "1"
FONT_ASCENT 36
FONT_DESCENT 10
COPYRIGHT "© 1999-2024 Typodermic Fonts Inc."
_OTF_FONTFILE "Nasalization Rg.otf"
_OTF_PSNAME "Nasalization-Regular"
ENDPROPERTIES
CHARS 758
STARTCHAR 0000
ENCODING 0
SWIDTH 0 0
DWIDTH 0 0
BBX 0 0 0 0
BITMAP
ENDCHAR
STARTCHAR 0017
ENCODING 23
SWIDTH 275 0
DWIDTH 11 0
BBX 0 0 0 0
BITMAP
ENDCHAR
STARTCHAR 0020
ENCODING 32
SWIDTH 275 0
DWIDTH 11 0
BBX 0 0 0 0
BITMAP
ENDCHAR
STARTCHAR 0021
ENCODING 33
SWIDTH 225 0
DWIDTH 9 0
BBX 5 28 2 0
BITMAP
F8
F8
F8
F8
F8
F8
F8
F8
78
78
78
78
78
78
78
78
78
78
00
00
00
00
00
F8
F8
F8
F8
F8
ENDCHAR
STARTCHAR 0022
ENCODING 34
SWIDTH 375 0
DWIDTH 15 0
BBX 11 12 2 18
BITMAP
F1E0
F1E0
F1E0
F1E0
F0E0
F0E0
F0E0
F0E0
F0E0
E0E0
E0E0
E0E0
ENDCHAR
STARTCHAR 0023
ENCODING 35
SWIDTH 625 0
DWIDTH 25 0
BBX 21 27 2 0
BITMAP
0E0380
0E0380
0E0380
0E0380
0E0380
0E0380
0E0380
FFFFF8
FFFFF8
FFFFF8
0E0380
0E0380
0E0380
0E0380
0E0380
0E0380
0E0380
FFFFF8
FFFFF8
FFFFF8
0E0380
0E0380
0E0380
0E0380
0E0380
0E0380
0E0380
ENDCHAR
STARTCHAR 0024
ENCODING 36
SWIDTH 625 0
DWIDTH 25 0
BBX 19 32 3 -2
BITMAP
006000
006000
006000
006000
006000
006000
1FFFC0
7FFFC0
7FFFC0
FFFFC0
F80000
F00000
F00000
F00000
F80000
FFFF00
7FFF80
1FFFC0
0007E0
0001E0
0001E0
0001E0
0003E0
FFFFE0
FFFFC0
FFFF80
FFFF00
006000
006000
006000
006000
006000
ENDCHAR
STARTCHAR 0025
ENCODING 37
SWIDTH 850 0
DWIDTH 34 0
BBX 32 27 1 0
BITMAP
0FC000F0
3FE000E0
7FF001C0
70780380
E0380700
E0180F00
E0180E00
E01C1C00
E01C3800
E0187800
60387000
7078E000
7FF1C3F0
3FE38FF8
0FC79FFC
00071C1E
000E180E
001C3806
003C3807
00383807
00703807
00E03806
01C0180E
03C01C1E
03801FFC
07000FF8
0E0003F0
ENDCHAR
STARTCHAR 0026
ENCODING 38
SWIDTH 775 0
DWIDTH 31 0
BBX 27 30 2 0
BITMAP
00FFC000
03FFE000
03FFF000
07FFF800
07C0F800
0F807800
0F807C00
0F807C00
0F807800
07807800
07C1F000
03E7F000
01FFC000
01FF8000
01FE0000
07FE0000
1FFE03E0
3F1F07C0
7E0F8F80
F807DF00
F003FF00
F003FE00
F001FC00
F000FC00
F801FE00
FC03FE00
7FFFFF00
7FFFCF80
3FFF87C0
0FFE03E0
ENDCHAR
STARTCHAR 0027
ENCODING 39
SWIDTH 200 0
DWIDTH 8 0
BBX 4 12 2 18
BITMAP
F0
F0
F0
F0
F0
F0
F0
F0
F0
E0
E0
E0
ENDCHAR
STARTCHAR 0028
ENCODING 40
SWIDTH 400 0
DWIDTH 16 0
BBX 12 47 3 -11
BITMAP
01F0
07F0
1FF0
1F00
3C00
7800
7000
7000
7000
E000
E000
E000
E000
E000
E000
E000
E000
E000
E000
E000
E000
E000
E000
E000
E000
E000
E000
E000
E000
E000
E000
E000
E000
E000
E000
E000
E000
6000
7000
7000
7000
7800
3C00
1E00
1FF0
07F0
01F0
ENDCHAR
STARTCHAR 0029
ENCODING 41
SWIDTH 400 0
DWIDTH 16 0
BBX 12 47 1 -11
BITMAP
F800
FE00
FF00
0F80
03C0
01C0
01E0
00E0
00E0
00E0
00E0
0060
0060
0070
0070
0070
0070
0070
0070
0070
0070
0070
0070
0070
0070
0070
0070
0070
0070
0070
0070
0070
0070
0070
0060
00E0
00E0
00E0
00E0
00E0
01E0
01C0
03C0
0F80
FF00
FE00
F800
ENDCHAR
STARTCHAR 002A
ENCODING 42
SWIDTH 550 0
DWIDTH 22 0
BBX 18 20 2 10
BITMAP
00C000
00C000
00C000
00C000
40C080
F0C3C0
F8C7C0
3EDF00
0FFC00
03F000
03F000
0FFC00
3EDF00
F8C7C0
F0C1C0
40C080
00C000
00C000
00E000
00E000
ENDCHAR
STARTCHAR 002B
ENCODING 43
SWIDTH 625 0
DWIDTH 25 0
BBX 21 21 2 3
BITMAP
007000
007000
007000
007000
007000
007000
007000
007000
007000
FFFFF8
FFFFF8
FFFFF8
007000
007000
007000
007000
007000
007000
007000
007000
007000
ENDCHAR
STARTCHAR 002C
ENCODING 44
SWIDTH 250 0
DWIDTH 10 0
BBX 7 12 1 -6
BITMAP
3E
3E
3E
3E
3E
3E
3E
3E
3E
FC
FC
F8
ENDCHAR
STARTCHAR 002D
ENCODING 45
SWIDTH 425 0
DWIDTH 17 0
BBX 14 4 1 11
BITMAP
FFFC
FFFC
FFFC
FFFC
ENDCHAR
STARTCHAR 002E
ENCODING 46
SWIDTH 250 0
DWIDTH 10 0
BBX 4 5 3 0
BITMAP
F0
F0
F0
F0
F0
ENDCHAR
STARTCHAR 002F
ENCODING 47
SWIDTH 450 0
DWIDTH 18 0
BBX 17 39 1 -9
BITMAP
000F80
000F00
000F00
001F00
001E00
001E00
003E00
003C00
003C00
007C00
007800
007800
00F000
00F000
00F000
01E000
01E000
01E000
03C000
03C000
03C000
078000
078000
078000
0F0000
0F0000
0F0000
1E0000
1E0000
1E0000
3C0000
3C0000
3C0000
780000
780000
780000
F00000
F00000
F00000
ENDCHAR
STARTCHAR 0030
ENCODING 48
SWIDTH 750 0
DWIDTH 30 0
BBX 25 29 2 -1
BITMAP
00FF0000
03FFE000
07FFF000
0FFFF800
1FFFFC00
3F80FE00
3E003E00
7C003F00
7C001F00
7C001F00
78000F00
F8000F00
F8000F80
F8000F80
F8000F80
F8000F80
F8000F80
F8000F80
78000F00
78001F00
7C001F00
7C003F00
3E003E00
3F80FE00
1FFFFC00
0FFFF800
0FFFF000
03FFE000
007F8000
ENDCHAR
STARTCHAR 0031
ENCODING 49
SWIDTH 325 0
DWIDTH 13 0
BBX 9 27 1 0
BITMAP
FC00
FF00
FF80
FF80
FF80
0F80
0780
0780
0780
0780
0780
0780
0780
0780
0780
0780
0780
0780
0780
0780
0780
0780
0780
0780
0780
0780
0780
ENDCHAR
STARTCHAR 0032
ENCODING 50
SWIDTH 725 0
DWIDTH 29 0
BBX 24 27 3 0
BITMAP
7FFFE0
7FFFF8
7FFFFE
7FFFFE
7FFFFF
00001F
00001F
00001F
00001F
00001F
0000FF
000FFE
00FFFE
0FFFF8
3FFFE0
7FFE00
FFE000
FC0000
F80000
F00000
F00000
F00000
FFFFFE
FFFFFE
FFFFFE
FFFFFE
FFFFFE
ENDCHAR
STARTCHAR 0033
ENCODING 51
SWIDTH 675 0
DWIDTH 27 0
BBX 23 27 2 0
BITMAP
FFFFC0
FFFFF0
FFFFF8
FFFFFC
FFFFFC
00007E
00003E
00003E
00003E
00003E
0000FC
03FFF8
03FFF0
03FFF0
03FFF8
0000FC
00007C
00003E
00003E
00003E
00003E
00007E
FFFFFC
FFFFFC
FFFFF8
FFFFF0
FFFFC0
ENDCHAR
STARTCHAR 0034
ENCODING 52
SWIDTH 700 0
DWIDTH 28 0
BBX 24 27 1 0
BITMAP
0007FC
001FFE
003FFF
007FFF
007FFF
00FC1F
01F81F
03F01F
07E01F
0FC01F
1F801F
1F801F
3F001F
7E001F
7C001F
FC001F
FC001F
FFFFFF
7FFFFF
7FFFFF
3FFFFF
00001F
00001F
00001F
00001F
00001F
00001F
ENDCHAR
STARTCHAR 0035
ENCODING 53
SWIDTH 675 0
DWIDTH 27 0
BBX 22 27 3 0
BITMAP
7FFFF8
FFFFF8
FFFFF8
FFFFF8
FFFFF8
F80000
F80000
F80000
F80000
F80000
F80000
FFFFC0
FFFFF0
FFFFF8
7FFFFC
0000FC
00007C
00003C
00003C
00003C
00007C
0000FC
FFFFFC
FFFFF8
FFFFF8
FFFFE0
FFFF80
ENDCHAR
STARTCHAR 0036
ENCODING 54
SWIDTH 725 0
DWIDTH 29 0
BBX 24 27 2 0
BITMAP
00FFFE
03FFFE
0FFFFE
1FFFFE
3FFFFE
3F0000
7E0000
7C0000
7C0000
780000
F80000
FFFFF0
FFFFFC
FFFFFE
FFFFFF
F8003F
F8001F
78000F
7C000F
7C000F
7E001F
3F003F
3FFFFF
1FFFFE
0FFFFC
07FFF8
00FFE0
ENDCHAR
STARTCHAR 0037
ENCODING 55
SWIDTH 650 0
DWIDTH 26 0
BBX 24 27 1 0
BITMAP
FFFFF0
FFFFFC
FFFFFE
FFFFFE
FFFFFF
00003F
00003F
00003E
00007E
00007C
0000FC
0001F8
0001F0
0003F0
0007E0
000FC0
000F80
001F80
003F00
007E00
007E00
00FC00
01F800
03F000
03F000
07E000
0FC000
ENDCHAR
STARTCHAR 0038
ENCODING 56
SWIDTH 725 0
DWIDTH 29 0
BBX 25 27 2 0
BITMAP
07FFF000
1FFFFC00
3FFFFE00
7FFFFF00
7FFFFF00
FC001F80
F8000F80
F8000F80
F8000F80
78000F00
7E003F00
3FFFFE00
1FFFFC00
1FFFFC00
3FFFFE00
7E003F00
7C001F00
F8000F80
F8000F80
F8000F80
F8000F80
FC001F80
7FFFFF00
7FFFFF00
3FFFFE00
1FFFFC00
07FFF000
ENDCHAR
STARTCHAR 0039
ENCODING 57
SWIDTH 725 0
DWIDTH 29 0
BBX 24 27 2 0
BITMAP
07FF80
1FFFE0
3FFFF8
7FFFFC
7FFFFC
FC00FE
F8007E
F8003F
F8001F
F8001F
F8001F
FC001F
7FFFFF
7FFFFF
3FFFFF
0FFFFF
00001F
00001F
00001F
00003E
00007E
0000FE
1FFFFC
1FFFF8
1FFFF0
1FFFE0
1FFF00
ENDCHAR
STARTCHAR 003A
ENCODING 58
SWIDTH 275 0
DWIDTH 11 0
BBX 5 20 3 0
BITMAP
F8
F8
F8
F8
F8
00
00
00
00
00
00
00
00
00
00
F8
F8
F8
F8
F8
ENDCHAR
STARTCHAR 003B
ENCODING 59
SWIDTH 275 0
DWIDTH 11 0
BBX 7 26 1 -6
BITMAP
3E
3E
3E
3E
3E
00
00
00
00
00
00
00
00
00
3E
3E
3E
3E
3E
3E
3E
3E
3E
FC
FC
F8
ENDCHAR
STARTCHAR 003C
ENCODING 60
SWIDTH 625 0
DWIDTH 25 0
BBX 21 21 2 3
BITMAP
000008
000078
0001F8
000FF0
003FC0
01FE00
07F800
3FC000
FE0000
F80000
E00000
E00000
FC0000
7F8000
1FE000
03FC00
00FF00
001FE0
0003F8
0000F8
000018
ENDCHAR
STARTCHAR 003D
ENCODING 61
SWIDTH 625 0
DWIDTH 25 0
BBX 21 13 2 7
BITMAP
FFFFF8
FFFFF8
FFFFF8
000000
000000
000000
000000
000000
000000
000000
FFFFF8
FFFFF8
FFFFF8
ENDCHAR
STARTCHAR 003E
ENCODING 62
SWIDTH 625 0
DWIDTH 25 0
BBX 21 21 2 3
BITMAP
800000
E00000
FC0000
7F8000
1FE000
03FC00
00FF00
001FE0
0007F0
0000F8
000038
000078
0001F8
000FF0
007F80
01FE00
0FF000
3FC000
FE0000
F80000
C00000
ENDCHAR
STARTCHAR 003F
ENCODING 63
SWIDTH 575 0
DWIDTH 23 0
BBX 20 28 1 0
BITMAP
FFFF00
FFFFC0
FFFFE0
FFFFF0
0001F0
0000F0
0000F0
0000F0
0000F0
0001F0
007FF0
01FFE0
03FFC0
03FF80
03C000
03C000
03C000
03C000
000000
000000
000000
000000
000000
07C000
07C000
07C000
07C000
07C000
ENDCHAR
STARTCHAR 0040
ENCODING 64
SWIDTH 775 0
DWIDTH 31 0
BBX 25 32 3 -8
BITMAP
1FFFFC00
3FFFFE00
7FFFFF00
78000F00
F0000700
F0000700
E0000780
E0000780
E0000780
E03FFF80
E07FFF80
E0FFFF80
E0F00780
E0E00780
E0E00780
E0E00780
E0E00780
E0E00780
E0E00700
E0E00700
E0F81F00
E0FFFF00
E07FFE00
E01FF800
E0000000
E0000000
F0000000
70000000
78000000
7FFFFF00
3FFFFF00
0FFFFF00
ENDCHAR
STARTCHAR 0041
ENCODING 65
SWIDTH 775 0
DWIDTH 31 0
BBX 29 28 1 0
BITMAP
000FC000
003FE000
003FF000
007FF800
007FF800
00FCF800
00F8FC00
00F87C00
01F07C00
01F03E00
01F03E00
03E03F00
03E01F00
07E01F00
07C01F80
07C00F80
0F800F80
0F800FC0
1F8007C0
1F0007C0
1F0003E0
3E0003E0
3E0003F0
7E0001F0
7C0001F0
7C0001F8
FC0000F8
F80000F8
ENDCHAR
STARTCHAR 0042
ENCODING 66
SWIDTH 725 0
DWIDTH 29 0
BBX 24 27 3 0
BITMAP
7FFFC0
FFFFF8
FFFFFC
FFFFFC
FFFFFE
F8003E
F8003E
F8001E
F8001E
F8003E
F8007E
FFFFFC
FFFFF8
FFFFF0
FFFFFC
F8007E
F8003E
F8001E
F8001E
F8001F
F8003E
F8003E
FFFFFE
FFFFFE
FFFFFC
FFFFF8
7FFFC0
ENDCHAR
STARTCHAR 0043
ENCODING 67
SWIDTH 675 0
DWIDTH 27 0
BBX 23 27 2 0
BITMAP
00FFFE
03FFFE
0FFFFE
1FFFFE
3FFFFE
3F8000
7E0000
7C0000
7C0000
780000
F80000
F80000
F80000
F80000
F80000
F80000
F80000
780000
7C0000
7C0000
7E0000
3F0000
1FFFFE
1FFFFE
0FFFFE
03FFFE
00FFFE
ENDCHAR
STARTCHAR 0044
ENCODING 68
SWIDTH 725 0
DWIDTH 29 0
BBX 24 27 3 0
BITMAP
7FFF00
FFFFE0
FFFFF0
FFFFF8
FFFFFC
F800FE
F8007E
F8003E
F8001F
F8001F
F8001F
F8001F
F8001F
F8001F
F8001F
F8001F
F8001F
F8001F
F8001F
F8003E
F8007E
F800FE
FFFFFC
FFFFF8
FFFFF0
FFFFE0
7FFF00
ENDCHAR
STARTCHAR 0045
ENCODING 69
SWIDTH 700 0
DWIDTH 28 0
BBX 23 27 2 0
BITMAP
07FFFE
1FFFFE
3FFFFE
7FFFFE
7FFFFE
FC0000
FC0000
F80000
F80000
7C0000
7E0000
3FFFFE
1FFFFE
1FFFFE
3FFFFE
7E0000
7C0000
F80000
F80000
F80000
F80000
FC0000
7FFFFE
7FFFFE
3FFFFE
1FFFFE
07FFFE
ENDCHAR
STARTCHAR 0046
ENCODING 70
SWIDTH 675 0
DWIDTH 27 0
BBX 21 27 3 0
BITMAP
03FFF8
0FFFF8
3FFFF8
3FFFF8
7FFFF8
7E0000
FC0000
F80000
F80000
F80000
F80000
F80000
FFFFF8
FFFFF8
FFFFF8
FFFFF8
F80000
F80000
F80000
F80000
F80000
F80000
F80000
F80000
F80000
F80000
F80000
ENDCHAR
STARTCHAR 0047
ENCODING 71
SWIDTH 725 0
DWIDTH 29 0
BBX 25 27 2 0
BITMAP
00FFFF00
03FFFF00
0FFFFF00
1FFFFF00
3FFFFF00
3F800000
7E000000
7C000000
7C000000
78000000
F8000000
F81FF800
F81FFE00
F81FFF00
F81FFF00
F8001F80
F8000F80
78000780
7C000780
7C000780
7E000F80
3F001F80
1FFFFF00
1FFFFF00
0FFFFE00
03FFFC00
00FFF000
ENDCHAR
STARTCHAR 0048
ENCODING 72
SWIDTH 750 0
DWIDTH 30 0
BBX 24 27 3 0
BITMAP
F8001F
F8001F
F8001F
F8001F
F8001F
F8001F
F8001F
F8001F
F8001F
F8001F
F8001F
FFFFFF
FFFFFF
FFFFFF
FFFFFF
FFFFFF
F8001F
F8001F
F8001F
F8001F
F8001F
F8001F
F8001F
F8001F
F8001F
F8001F
F8001F
ENDCHAR
STARTCHAR 0049
ENCODING 73
SWIDTH 275 0
DWIDTH 11 0
BBX 5 27 3 0
BITMAP
F8
F8
F8
F8
F8
F8
F8
F8
F8
F8
F8
F8
F8
F8
F8
F8
F8
F8
F8
F8
F8
F8
F8
F8
F8
F8
F8
ENDCHAR
STARTCHAR 004A
ENCODING 74
SWIDTH 575 0
DWIDTH 23 0
BBX 19 27 1 0
BITMAP
0001E0
0001E0
0001E0
0001E0
0001E0
0001E0
0001E0
0001E0
0001E0
0001E0
0001E0
0001E0
0001E0
0001E0
0001E0
0001E0
0001E0
0001E0
0003E0
0003E0
0003E0
0007E0
FFFFC0
FFFFC0
FFFF80
FFFF00
FFF800
ENDCHAR
STARTCHAR 004B
ENCODING 75
SWIDTH 700 0
DWIDTH 28 0
BBX 24 27 3 0
BITMAP
F8003E
F8003E
F8007C
F8007C
F800F8
F800F8
F801F8
F801F0
F803F0
F803E0
F807C0
F81FC0
FFFF80
FFFE00
FFFF80
FFFFC0
F80FE0
F803E0
F801F0
F801F8
F800F8
F800FC
F8007C
F8007E
F8003E
F8003F
F8001F
ENDCHAR
STARTCHAR 004C
ENCODING 76
SWIDTH 625 0
DWIDTH 25 0
BBX 21 27 3 0
BITMAP
F80000
F80000
F80000
F80000
F80000
F80000
F80000
F80000
F80000
F80000
F80000
F80000
F80000
F80000
F80000
F80000
F80000
F80000
F80000
F80000
FC0000
7E0000
7FFFF8
3FFFF8
3FFFF8
0FFFF8
03FFF8
ENDCHAR
STARTCHAR 004D
ENCODING 77
SWIDTH 1100 0
DWIDTH 44 0
BBX 38 29 3 -1
BITMAP
0FC0000FC0
3FE0001FF0
7FF0003FF8
7FF8007FF8
FFF8007FFC
F87C007C7C
F87C00F87C
F87C00F87C
F87C00F87C
F87C00F87C
F83E00F07C
F83E01F07C
F83E01F07C
F83E01F07C
F81F01E07C
F81F03E07C
F81F03E07C
F81F03E07C
F80F03E07C
F80F83C07C
F80F87C07C
F80F87C07C
F80F87C07C
F807C7807C
F807FF807C
F807FF807C
F803FF007C
F801FE007C
0000FC0000
ENDCHAR
STARTCHAR 004E
ENCODING 78
SWIDTH 875 0
DWIDTH 35 0
BBX 29 29 3 -1
BITMAP
1F800000
3FE000F8
7FF000F8
7FF000F8
FFF800F8
F8F800F8
F87800F8
F87C00F8
F87C00F8
F83E00F8
F83E00F8
F81F00F8
F81F00F8
F80F80F8
F80F80F8
F80F80F8
F807C0F8
F807C0F8
F803E0F8
F803E0F8
F801F0F8
F801F0F8
F801F8F8
F800F8F8
F800FFF8
F8007FF8
F8007FF0
F8003FE0
00000FC0
ENDCHAR
STARTCHAR 004F
ENCODING 79
SWIDTH 825 0
DWIDTH 33 0
BBX 28 27 2 0
BITMAP
00FFF000
03FFFE00
0FFFFF00
1FFFFF80
3FFFFFC0
3F800FE0
7E0003E0
7C0003E0
7C0001F0
780001F0
F80001F0
F80001F0
F80000F0
F80000F0
F80000F0
F80001F0
F80001F0
780001F0
7C0001F0
7C0003F0
7E0003E0
3F000FE0
3FFFFFC0
1FFFFF80
0FFFFF00
03FFFE00
00FFF000
ENDCHAR
STARTCHAR 0050
ENCODING 80
SWIDTH 675 0
DWIDTH 27 0
BBX 23 27 3 0
BITMAP
FFFF80
FFFFF0
FFFFF8
FFFFFC
FFFFFC
00007C
00003E
00003E
00003E
00003E
00007C
0000FC
3FFFFC
7FFFF8
FFFFF0
FFFFE0
FFFE00
F80000
F80000
F80000
F80000
F80000
F80000
F80000
F80000
F80000
F80000
ENDCHAR
STARTCHAR 0051
ENCODING 81
SWIDTH 825 0
DWIDTH 33 0
BBX 28 31 2 -4
BITMAP
00FFF000
03FFFE00
0FFFFF00
1FFFFF80
3FFFFFC0
3F800FE0
7E0003E0
7C0003E0
7C0001F0
780001F0
F80001F0
F80001F0
F80000F0
F80000F0
F80000F0
F80001F0
F80001F0
7807C1F0
7C03E1F0
7C03E3F0
7E01F3E0
3F01FFE0
1FFFFFC0
1FFFFF80
0FFFFF00
03FFFE00
00FFFC00
00003E00
00001E00
00001F00
00000F00
ENDCHAR
STARTCHAR 0052
ENCODING 82
SWIDTH 725 0
DWIDTH 29 0
BBX 24 27 3 0
BITMAP
FFFFC0
FFFFF0
FFFFF8
FFFFFC
FFFFFE
00003E
00003E
00001E
00001E
00001E
00003E
00007E
3FFFFC
7FFFFC
FFFFF8
FFFFE0
FFFFC0
F807E0
F803E0
F803F0
F801F0
F800F8
F800F8
F8007C
F8007E
F8003E
F8001F
ENDCHAR
STARTCHAR 0053
ENCODING 83
SWIDTH 700 0
DWIDTH 28 0
BBX 24 27 2 0
BITMAP
07FFFC
1FFFFC
3FFFFC
7FFFFC
7FFFFC
FC0000
F80000
F80000
F80000
F80000
FC0000
7FFFE0
7FFFF8
3FFFFC
0FFFFE
0000FF
00001F
00001F
00001F
00001F
00001F
00003F
7FFFFF
7FFFFE
7FFFFC
7FFFF8
7FFFE0
ENDCHAR
STARTCHAR 0054
ENCODING 84
SWIDTH 575 0
DWIDTH 23 0
BBX 21 27 1 0
BITMAP
FFFFF8
FFFFF8
FFFFF8
FFFFF8
FFFFF8
00F800
00F800
00F800
00F800
00F800
00F800
00F800
00F800
00F800
00F800
00F800
00F800
00F800
00F800
00F800
00F800
00F800
00F800
00F800
00F800
00F800
00F800
ENDCHAR
STARTCHAR 0055
ENCODING 85
SWIDTH 725 0
DWIDTH 29 0
BBX 23 27 3 0
BITMAP
F8001E
F8001E
F8001E
F8001E
F8001E
F8001E
F8001E
F8001E
F8001E
F8001E
F8001E
F8001E
F8001E
F8001E
F8001E
F8001E
F8001E
F8001E
F8001E
F8003E
F8003E
FC007E
7FFFFE
7FFFFC
3FFFF8
1FFFF0
07FFC0
ENDCHAR
STARTCHAR 0056
ENCODING 86
SWIDTH 775 0
DWIDTH 31 0
BBX 29 28 1 -1
BITMAP
F80000F8
FC0000F8
7C0001F8
7C0001F0
7E0001F0
3E0003E0
3E0003E0
1F0007E0
1F0007C0
1F0007C0
0F800FC0
0F800F80
0FC00F80
07C01F00
07C01F00
07E03F00
03E03E00
03E03E00
01F07C00
01F07C00
01F8FC00
00F8F800
00F8F800
00FFF800
007FF000
007FF000
003FE000
000F8000
ENDCHAR
STARTCHAR 0057
ENCODING 87
SWIDTH 1050 0
DWIDTH 42 0
BBX 39 29 1 -1
BITMAP
00007E0000
F800FF001E
F801FF803E
7803FF803E
7C03FFC03E
7C03C7C03E
7C03C3C03E
7C07C3C03E
7C07C3C03E
7C07C3E03E
7C0783E03C
7C0783E03C
7C0F81E07C
3C0F81E07C
3E0F81F07C
3E0F81F07C
3E0F01F07C
3E0F01F07C
3E1F00F07C
3E1F00F078
3E1F00F878
3E1E00F8F8
1E1E00F8F8
1E3E0078F8
1FFE007FF8
1FFE007FF0
0FFC003FF0
0FF8003FE0
03F0000FC0
ENDCHAR
STARTCHAR 0058
ENCODING 88
SWIDTH 775 0
DWIDTH 31 0
BBX 29 27 1 0
BITMAP
7E0001F8
3F0003F0
1F8007E0
0FC007C0
07C00FC0
03E01F80
03F03F00
01F87E00
00FCFC00
007FF800
003FF000
001FE000
001FE000
001FC000
003FE000
003FF000
007FF800
00FCF800
01F87C00
03F07E00
07E03F00
0FC01F80
0F800FC0
1F8007E0
3F0003E0
7E0003F0
FC0001F8
ENDCHAR
STARTCHAR 0059
ENCODING 89
SWIDTH 700 0
DWIDTH 28 0
BBX 26 27 1 0
BITMAP
FC000FC0
7C001F80
7E001F00
3F003F00
1F007E00
1F807C00
0F80F800
07C1F800
03E1F000
03E3E000
01F7E000
00FFC000
00FF8000
007F0000
003F0000
003E0000
003E0000
003E0000
003E0000
003E0000
003E0000
003E0000
003E0000
003E0000
003E0000
003E0000
003E0000
ENDCHAR
STARTCHAR 005A
ENCODING 90
SWIDTH 750 0
DWIDTH 30 0
BBX 25 27 2 0
BITMAP
7FFFFC00
7FFFFF00
7FFFFF80
7FFFFF80
7FFFFF80
00000F80
00000780
00000F80
00001F80
00007F80
0001FF00
000FFE00
003FF800
00FFC000
07FF0000
1FFC0000
3FE00000
7F800000
7E000000
F8000000
F8000000
F8000000
FFFFFF80
7FFFFF80
7FFFFF80
3FFFFF80
0FFFFF80
ENDCHAR
STARTCHAR 005B
ENCODING 91
SWIDTH 400 0
DWIDTH 16 0
BBX 12 47 3 -11
BITMAP
FFF0
FFF0
FFF0
E000
E000
E000
E000
E000
E000
E000
E000
E000
E000
E000
E000
E000
E000
E000
E000
E000
E000
E000
E000
E000
E000
E000
E000
E000
E000
E000
E000
E000
E000
E000
E000
E000
E000
E000
E000
E000
E000
E000
E000
E000
FFF0
FFF0
FFF0
ENDCHAR
STARTCHAR 005C
ENCODING 92
SWIDTH 450 0
DWIDTH 18 0
BBX 17 39 1 -9
BITMAP
F00000
F00000
F00000
780000
780000
780000
3C0000
3C0000
3C0000
1E0000
1E0000
1E0000
0F0000
0F0000
0F0000
078000
078000
07C000
03C000
03C000
03E000
01E000
01E000
01F000
00F000
00F000
00F800
007800
007800
007C00
003C00
003C00
003E00
001E00
001E00
001F00
000F00
000F00
000780
ENDCHAR
STARTCHAR 005D
ENCODING 93
SWIDTH 400 0
DWIDTH 16 0
BBX 11 47 1 -11
BITMAP
FFE0
FFE0
FFE0
0060
0060
0060
0060
0060
0060
0060
0060
0060
0060
0060
0060
0060
0060
0060
0060
0060
0060
0060
0060
0060
0060
0060
0060
0060
0060
0060
0060
0060
0060
0060
0060
0060
0060
0060
0060
0060
0060
0060
0060
0060
FFE0
FFE0
FFE0
ENDCHAR
STARTCHAR 005E
ENCODING 94
SWIDTH 525 0
DWIDTH 21 0
BBX 17 16 2 14
BITMAP
01E000
03F000
07F000
077000
073800
0E3800
0E3C00
1C1C00
1C1C00
1C0E00
380E00
380F00
700700
700700
700380
E00380
ENDCHAR
STARTCHAR 005F
ENCODING 95
SWIDTH 525 0
DWIDTH 21 0
BBX 21 3 0 -8
BITMAP
FFFFF8
FFFFF8
FFFFF8
ENDCHAR
STARTCHAR 0060
ENCODING 96
SWIDTH 350 0
DWIDTH 14 0
BBX 9 9 4 22
BITMAP
F000
F800
7800
7C00
3C00
1E00
1E00
0F00
0F80
ENDCHAR
STARTCHAR 0061
ENCODING 97
SWIDTH 675 0
DWIDTH 27 0
BBX 21 21 3 0
BITMAP
7FFF80
7FFFE0
7FFFF0
7FFFF0
0000F8
0000F8
000078
000078
000078
3FFFF8
7FFFF8
FFFFF8
F80078
F00078
F00078
F00078
F80078
FFFFF8
7FFFF8
3FFFF0
1FFFE0
ENDCHAR
STARTCHAR 0062
ENCODING 98
SWIDTH 700 0
DWIDTH 28 0
BBX 23 30 3 0
BITMAP
F00000
F00000
F00000
F00000
F00000
F00000
F00000
F00000
F00000
FFFF80
FFFFE0
FFFFF0
FFFFF8
F000FC
F0007C
F0003C
F0003C
F0003E
F0003E
F0003E
F0003E
F0003E
F0003C
F8003C
F8007C
7E00FC
7FFFF8
3FFFF0
1FFFE0
07FF80
ENDCHAR
STARTCHAR 0063
ENCODING 99
SWIDTH 600 0
DWIDTH 24 0
BBX 20 21 2 0
BITMAP
07FFF0
0FFFF0
3FFFF0
3FFFF0
7E0000
7C0000
F80000
F80000
F00000
F00000
F00000
F00000
F00000
F80000
F80000
7C0000
7E0000
3FFFF0
1FFFF0
0FFFF0
03FFF0
ENDCHAR
STARTCHAR 0064
ENCODING 100
SWIDTH 700 0
DWIDTH 28 0
BBX 23 30 2 0
BITMAP
00001E
00001E
00001E
00001E
00001E
00001E
00001E
00001E
00001E
07FFFE
0FFFFE
3FFFFE
3FFFFE
7E001E
7C001E
F8001E
F8001E
F0001E
F0001E
F0001E
F0001E
F0003E
F8003E
F8003E
7C003C
7E00FC
3FFFFC
1FFFF8
0FFFF0
03FFC0
ENDCHAR
STARTCHAR 0065
ENCODING 101
SWIDTH 650 0
DWIDTH 26 0
BBX 21 21 3 0
BITMAP
1FFF80
3FFFE0
7FFFF0
FFFFF0
F800F8
F00078
F00078
F00078
F000F8
FFFFF0
FFFFF0
FFFFC0
F00000
F00000
F00000
F00000
F80000
FFFFF0
7FFFF0
3FFFF0
0FFFF0
ENDCHAR
STARTCHAR 0066
ENCODING 102
SWIDTH 375 0
DWIDTH 15 0
BBX 13 30 1 0
BITMAP
03F8
0FF8
0FF8
1FF8
1F00
1E00
1E00
1E00
1E00
FFF8
FFF8
FFF8
FFF8
1E00
1E00
1E00
1E00
1E00
1E00
1E00
1E00
1E00
1E00
1E00
1E00
1E00
1E00
1E00
1E00
1E00
ENDCHAR
STARTCHAR 0067
ENCODING 103
SWIDTH 700 0
DWIDTH 28 0
BBX 23 29 2 -8
BITMAP
07FFC0
1FFFF0
3FFFF8
3FFFFC
7E007C
7C003C
F8003E
F8003E
F0003E
F0001E
F0001E
F0001E
F8001E
F8001E
78001E
7C001E
3FFFFE
3FFFFE
0FFFFE
03FFFE
00001E
00003E
00003E
00003E
00007C
3FFFFC
3FFFFC
3FFFF8
3FFFE0
ENDCHAR
STARTCHAR 0068
ENCODING 104
SWIDTH 700 0
DWIDTH 28 0
BBX 22 30 3 0
BITMAP
F00000
F00000
F00000
F00000
F00000
F00000
F00000
F00000
F00000
FFFF00
FFFFE0
FFFFF0
FFFFF8
F001F8
F0007C
F0007C
F0003C
F0003C
F0003C
F0003C
F0003C
F0003C
F0003C
F0003C
F0003C
F0003C
F0003C
F0003C
F0003C
F0003C
ENDCHAR
STARTCHAR 0069
ENCODING 105
SWIDTH 250 0
DWIDTH 10 0
BBX 4 29 3 0
BITMAP
F0
F0
F0
F0
F0
00
00
00
F0
F0
F0
F0
F0
F0
F0
F0
F0
F0
F0
F0
F0
F0
F0
F0
F0
F0
F0
F0
F0
ENDCHAR
STARTCHAR 006A
ENCODING 106
SWIDTH 275 0
DWIDTH 11 0
BBX 10 37 -2 -8
BITMAP
07C0
07C0
07C0
07C0
07C0
0000
0000
0000
07C0
07C0
07C0
07C0
07C0
07C0
07C0
07C0
07C0
07C0
07C0
07C0
07C0
07C0
07C0
07C0
07C0
07C0
07C0
07C0
07C0
07C0
07C0
07C0
07C0
FF80
FF80
FF00
FE00
ENDCHAR
STARTCHAR 006B
ENCODING 107
SWIDTH 600 0
DWIDTH 24 0
BBX 20 30 3 0
BITMAP
F00000
F00000
F00000
F00000
F00000
F00000
F00000
F00000
F00000
F001E0
F003E0
F007C0
F007C0
F00F80
F00F00
F01F00
F03E00
FFFC00
FFF800
FFF800
FFFE00
F03E00
F01F00
F00F80
F00F80
F007C0
F003C0
F003E0
F001E0
F001F0
ENDCHAR
STARTCHAR 006C
ENCODING 108
SWIDTH 250 0
DWIDTH 10 0
BBX 4 30 3 0
BITMAP
F0
F0
F0
F0
F0
F0
F0
F0
F0
F0
F0
F0
F0
F0
F0
F0
F0
F0
F0
F0
F0
F0
F0
F0
F0
F0
F0
F0
F0
F0
ENDCHAR
STARTCHAR 006D
ENCODING 109
SWIDTH 1025 0
DWIDTH 41 0
BBX 35 21 3 0
BITMAP
7FFFFFF800
FFFFFFFE00
FFFFFFFF80
FFFFFFFFC0
F000F00FC0
F000F003E0
F000F003E0
F000F001E0
F000F001E0
F000F001E0
F000F001E0
F000F001E0
F000F001E0
F000F001E0
F000F001E0
F000F001E0
F000F001E0
F000F001E0
F000F001E0
F000F001E0
F000F001E0
ENDCHAR
STARTCHAR 006E
ENCODING 110
SWIDTH 700 0
DWIDTH 28 0
BBX 22 21 3 0
BITMAP
7FFF00
FFFFC0
FFFFF0
FFFFF8
F001F8
F0007C
F0007C
F0003C
F0003C
F0003C
F0003C
F0003C
F0003C
F0003C
F0003C
F0003C
F0003C
F0003C
F0003C
F0003C
F0003C
ENDCHAR
STARTCHAR 006F
ENCODING 111
SWIDTH 675 0
DWIDTH 27 0
BBX 23 21 2 0
BITMAP
07FF80
0FFFE0
3FFFF0
3FFFF8
7E00FC
7C007C
F8003C
F8003E
F0003E
F0003E
F0003E
F0003E
F0003E
F8003E
F8003C
7C007C
7E00FC
3FFFF8
1FFFF0
0FFFE0
03FF80
ENDCHAR
STARTCHAR 0070
ENCODING 112
SWIDTH 700 0
DWIDTH 28 0
BBX 23 29 3 -8
BITMAP
0FFF80
1FFFE0
3FFFF0
7FFFF8
7C00F8
F8007C
F8003C
F0003C
F0003E
F0003E
F0003E
F0003E
F0003E
F0003C
F0003C
F0007C
F001F8
FFFFF8
FFFFF0
FFFFE0
FFFF80
F00000
F00000
F00000
F00000
F00000
F00000
F00000
F00000
ENDCHAR
STARTCHAR 0071
ENCODING 113
SWIDTH 700 0
DWIDTH 28 0
BBX 23 29 2 -8
BITMAP
07FFC0
0FFFF0
3FFFF8
3FFFFC
7E00FC
7C003C
F8003E
F8003E
F0003E
F0001E
F0001E
F0001E
F0001E
F8001E
F8001E
7C001E
7E001E
3FFFFE
1FFFFE
0FFFFE
03FFFE
00001E
00001E
00001E
00001E
00001E
00001E
00001E
00001E
ENDCHAR
STARTCHAR 0072
ENCODING 114
SWIDTH 475 0
DWIDTH 19 0
BBX 14 21 3 0
BITMAP
3FFC
7FFC
7FFC
FFFC
F800
F000
F000
F000
F000
F000
F000
F000
F000
F000
F000
F000
F000
F000
F000
F000
F000
ENDCHAR
STARTCHAR 0073
ENCODING 115
SWIDTH 575 0
DWIDTH 23 0
BBX 19 21 2 0
BITMAP
1FFFE0
3FFFE0
7FFFE0
FFFFE0
F80000
F00000
F00000
F00000
FFF800
7FFF80
3FFFC0
0FFFE0
0003E0
0001E0
0001E0
0001E0
0003E0
FFFFE0
FFFFC0
FFFFC0
FFFF00
ENDCHAR
STARTCHAR 0074
ENCODING 116
SWIDTH 375 0
DWIDTH 15 0
BBX 13 26 1 0
BITMAP
1E00
1E00
1E00
1E00
1E00
FFF8
FFF8
FFF8
FFF8
1E00
1E00
1E00
1E00
1E00
1E00
1E00
1E00
1E00
1E00
1E00
1E00
1F00
1FF8
0FF8
0FF8
03F8
ENDCHAR
STARTCHAR 0075
ENCODING 117
SWIDTH 700 0
DWIDTH 28 0
BBX 22 21 3 0
BITMAP
F0003C
F0003C
F0003C
F0003C
F0003C
F0003C
F0003C
F0003C
F0003C
F0003C
F0003C
F0003C
F0003C
F0003C
F8003C
F8007C
7E01F8
7FFFF8
3FFFF0
1FFFE0
07FF80
ENDCHAR
STARTCHAR 0076
ENCODING 118
SWIDTH 675 0
DWIDTH 27 0
BBX 25 22 1 -1
BITMAP
F0000780
F8000F80
78000F00
7C001F00
3C001E00
3C003E00
3E003E00
1E003C00
1F007C00
0F007800
0F80F800
0F80F000
0781F000
07C1F000
03C1E000
03E3E000
03E3C000
01E7C000
01FF8000
00FF8000
00FF0000
003E0000
ENDCHAR
STARTCHAR 0077
ENCODING 119
SWIDTH 975 0
DWIDTH 39 0
BBX 37 23 1 -1
BITMAP
F800F800F8
F803FE00F8
F807FF00F8
7807FF00F0
78078F00F0
780F8F00F0
780F8F81F0
7C0F0781F0
7C0F0781F0
7C0F0781F0
7C1F0781F0
3C1F07C1E0
3C1E03C1E0
3C1E03C1E0
3C1E03C3E0
3C3E03E3E0
3E3C03E3E0
3E3C01E3E0
3E3C01E3C0
1FFC01FFC0
1FF800FFC0
0FF800FF80
07E0003E00
ENDCHAR
STARTCHAR 0078
ENCODING 120
SWIDTH 675 0
DWIDTH 27 0
BBX 25 21 1 0
BITMAP
7C000F80
3E001F00
1F003E00
0F807C00
07C0F800
03E1F000
01F3E000
00FFC000
007F8000
007F0000
003E0000
007F0000
00FF8000
01F7C000
03E3E000
07C1F000
0F80F800
1F007C00
3E003E00
7C001F00
FC000F80
ENDCHAR
STARTCHAR 0079
ENCODING 121
SWIDTH 650 0
DWIDTH 26 0
BBX 24 29 1 -8
BITMAP
F0001F
F8001E
78003E
7C003E
3C003C
3E007C
3E0078
1E00F8
1F00F0
0F01F0
0F81F0
0F81E0
0783E0
07C3C0
03C7C0
03E780
03FF80
01FF00
01FF00
00FF00
001E00
003E00
003C00
007C00
007800
00F800
00F000
01F000
01F000
ENDCHAR
STARTCHAR 007A
ENCODING 122
SWIDTH 625 0
DWIDTH 25 0
BBX 21 21 2 0
BITMAP
7FFFE0
7FFFF0
7FFFF0
7FFFF8
000078
000078
0000F8
0003F0
001FF0
00FFC0
07FF00
1FF800
7FC000
7E0000
F80000
F00000
F00000
FFFFF8
7FFFF8
7FFFF8
1FFFF8
ENDCHAR
STARTCHAR 007B
ENCODING 123
SWIDTH 400 0
DWIDTH 16 0
BBX 13 47 2 -11
BITMAP
00F8
03F8
03F8
0780
0700
0700
0700
0700
0700
0700
0700
0700
0700
0700
0700
0700
0700
0700
0700
0700
0E00
0E00
FE00
FC00
FE00
0E00
0E00
0700
0700
0700
0700
0700
0700
0700
0700
0700
0700
0700
0700
0700
0700
0700
0700
0780
03F8
03F8
00F8
ENDCHAR
STARTCHAR 007C
ENCODING 124
SWIDTH 300 0
DWIDTH 12 0
BBX 3 39 4 -7
BITMAP
E0
E0
E0
E0
E0
E0
E0
E0
E0
E0
E0
E0
E0
E0
E0
E0
E0
E0
E0
E0
E0
E0
E0
E0
E0
E0
E0
E0
E0
E0
E0
E0
E0
E0
E0
E0
E0
E0
E0
ENDCHAR
STARTCHAR 007D
ENCODING 125
SWIDTH 400 0
DWIDTH 16 0
BBX 13 47 1 -11
BITMAP
F800
FC00
FE00
0F00
0700
0700
0700
0700
0700
0700
0700
0700
0700
0700
0700
0700
0700
0700
0700
0700
0700
0380
03F8
01F8
03F8
0380
0700
0700
0700
0700
0700
0700
0700
0700
0700
0700
0700
0700
0700
0700
0700
0700
0700
0F00
FE00
FC00
F800
ENDCHAR
STARTCHAR 007E
ENCODING 126
SWIDTH 625 0
DWIDTH 25 0
BBX 21 7 2 10
BITMAP
3E0000
FFC008
FFF008
C1FC38
803FF8
001FF0
0003E0
ENDCHAR
STARTCHAR 00A0
ENCODING 160
SWIDTH 275 0
DWIDTH 11 0
BBX 0 0 0 0
BITMAP
ENDCHAR
STARTCHAR 00A1
ENCODING 161
SWIDTH 225 0
DWIDTH 9 0
BBX 5 28 2 -7
BITMAP
F8
F8
F8
F8
F8
00
00
00
00
00
78
78
78
78
78
78
78
78
78
78
78
F8
F8
F8
F8
F8
F8
F8
ENDCHAR
STARTCHAR 00A2
ENCODING 162
SWIDTH 625 0
DWIDTH 25 0
BBX 20 32 2 -2
BITMAP
001C00
001C00
001C00
001C00
001C00
001C00
03FFF0
0FFFF0
1FFFF0
3FFFF0
3E0000
7C0000
780000
780000
F80000
F80000
F80000
F80000
F80000
780000
780000
7C0000
7E0000
3FFFF0
1FFFF0
0FFFF0
03FFF0
001C00
001C00
001C00
001C00
001C00
ENDCHAR
STARTCHAR 00A3
ENCODING 163
SWIDTH 650 0
DWIDTH 26 0
BBX 21 27 2 0
BITMAP
003FF8
00FFF8
01FFF8
03FFF8
07FFF8
07E000
07C000
0F8000
0F8000
0F8000
0F8000
FFFFF8
FFFFF8
FFFFF8
FFFFF8
0F8000
0F8000
0F8000
0F8000
0F8000
0F8000
0F8000
FFFFF8
FFFFF8
FFFFF8
FFFFF8
FFFFF8
ENDCHAR
STARTCHAR 00A4
ENCODING 164
SWIDTH 650 0
DWIDTH 26 0
BBX 22 21 2 3
BITMAP
600018
F0003C
79FE78
3FFFF0
1FFFE0
1E01E0
1C00E0
380070
380070
380070
380070
380070
380070
380070
1C00F0
1E01E0
1FFFE0
3FFFF0
79FE78
F0003C
600018
ENDCHAR
STARTCHAR 00A5
ENCODING 165
SWIDTH 700 0
DWIDTH 28 0
BBX 26 27 1 0
BITMAP
FC000FC0
7C001F80
7E001F00
3F003F00
1F007E00
1F807C00
0FC0F800
07C1F800
03E1F000
03E3E000
01F7E000
00FFC000
00FF8000
007F0000
7FFFFF00
7FFFFF00
003E0000
003E0000
003E0000
003E0000
003E0000
7FFFFF00
7FFFFF00
003E0000
003E0000
003E0000
003E0000
ENDCHAR
STARTCHAR 00A6
ENCODING 166
SWIDTH 300 0
DWIDTH 12 0
BBX 3 39 4 -7
BITMAP
E0
E0
E0
E0
E0
E0
E0
E0
E0
E0
E0
E0
E0
E0
E0
E0
E0
00
00
00
00
00
E0
E0
E0
E0
E0
E0
E0
E0
E0
E0
E0
E0
E0
E0
E0
E0
E0
ENDCHAR
STARTCHAR 00A7
ENCODING 167
SWIDTH 675 0
DWIDTH 27 0
BBX 22 34 2 -7
BITMAP
0FFFF8
3FFFF8
7FFFF8
FFFFF8
F80000
F00000
F00000
F00000
F00000
F80000
FFFE00
7FFFC0
3FFFC0
1FFFC0
1E03E0
1E01E0
1E01E0
1E01E0
1E01E0
1E01E0
0FFFE0
0FFFF0
0FFFF8
03FFFC
00007C
00003C
00003C
00003C
00003C
00007C
7FFFFC
7FFFF8
7FFFF0
7FFFE0
ENDCHAR
STARTCHAR 00A8
ENCODING 168
SWIDTH 450 0
DWIDTH 18 0
BBX 14 5 2 24
BITMAP
F03C
F03C
F03C
F03C
F03C
ENDCHAR
STARTCHAR 00A9
ENCODING 169
SWIDTH 825 0
DWIDTH 33 0
BBX 28 27 2 0
BITMAP
00FFF000
03FFFE00
0FFFFF00
1F000780
3C0003C0
380001E0
701FE0E0
707FE070
70FFE070
60E00070
E0C00070
E1C00030
E1C00030
E1C00030
E1C00030
E1C00030
E0C00070
60E00070
707FE070
703FE070
700000E0
380001E0
3C0003C0
1F000780
0FFFFF00
03FFFE00
00FFF000
ENDCHAR
STARTCHAR 00AA
ENCODING 170
SWIDTH 475 0
DWIDTH 19 0
BBX 14 15 2 12
BITMAP
7FF0
7FF8
7FFC
001C
000C
000C
3FFC
7FFC
700C
E00C
E00C
F00C
7FFC
7FFC
1FF8
ENDCHAR
STARTCHAR 00AB
ENCODING 171
SWIDTH 425 0
DWIDTH 17 0
BBX 14 22 1 0
BITMAP
070C
0E1C
0E18
1C38
1C38
3870
3870
70E0
70E0
E1C0
E1C0
E1C0
E1C0
70E0
70E0
3860
3870
1C30
1C38
0E38
0E1C
071C
ENDCHAR
STARTCHAR 00AC
ENCODING 172
SWIDTH 625 0
DWIDTH 25 0
BBX 21 16 2 0
BITMAP
FFFFF8
FFFFF8
FFFFF8
000038
000038
000038
000038
000038
000038
000038
000038
000038
000038
000038
000038
000038
ENDCHAR
STARTCHAR 00AD
ENCODING 173
SWIDTH 425 0
DWIDTH 17 0
BBX 14 4 1 11
BITMAP
FFFC
FFFC
FFFC
FFFC
ENDCHAR
STARTCHAR 00AE
ENCODING 174
SWIDTH 825 0
DWIDTH 33 0
BBX 28 27 2 0
BITMAP
00FFF000
03FFFE00
0FFFFF00
1F000780
3C0003C0
380001E0
78FFC0E0
70FFF060
70FFF070
60003070
E0003870
E0003030
E0007030
E0FFF030
E0FFC030
E0E1C030
E0E0E070
60E0E070
70E07070
70E07070
700000E0
380001E0
3C0003C0
1F000780
0FFFFF00
03FFFE00
00FFF000
ENDCHAR
STARTCHAR 00AF
ENCODING 175
SWIDTH 575 0
DWIDTH 23 0
BBX 19 4 2 25
BITMAP
FFFFE0
FFFFE0
FFFFE0
FFFFE0
ENDCHAR
STARTCHAR 00B0
ENCODING 176
SWIDTH 400 0
DWIDTH 16 0
BBX 14 13 1 15
BITMAP
1FE0
3FF0
7FF8
7038
E018
E018
E01C
E01C
6018
7038
7FF8
3FF0
1FE0
ENDCHAR
STARTCHAR 00B1
ENCODING 177
SWIDTH 625 0
DWIDTH 25 0
BBX 21 26 2 1
BITMAP
007000
007000
007000
007000
007000
007000
007000
007000
007000
FFFFF8
FFFFF8
FFFFF8
007000
007000
007000
007000
007000
007000
007000
007000
007000
000000
000000
FFFFF8
FFFFF8
FFFFF8
ENDCHAR
STARTCHAR 00B2
ENCODING 178
SWIDTH 400 0
DWIDTH 16 0
BBX 14 15 1 12
BITMAP
7FF0
7FF8
7FF8
001C
001C
0038
03F8
3FF0
7F80
F000
E000
E000
FFF8
FFF8
7FF8
ENDCHAR
STARTCHAR 00B3
ENCODING 179
SWIDTH 400 0
DWIDTH 16 0
BBX 12 15 2 12
BITMAP
FFC0
FFE0
FFF0
0070
0070
0070
1FE0
1FE0
1FF0
0070
0070
0070
FFF0
FFE0
FF80
ENDCHAR
STARTCHAR 00B4
ENCODING 180
SWIDTH 350 0
DWIDTH 14 0
BBX 9 9 1 22
BITMAP
0F80
0F00
1F00
1E00
3E00
3C00
7800
7800
F000
ENDCHAR
STARTCHAR 00B6
ENCODING 182
SWIDTH 725 0
DWIDTH 29 0
BBX 24 39 2 -9
BITMAP
0FFFFC
3FFFFE
7FFFFF
7FFFFF
FC000F
F8000F
F00007
F00007
F00007
F00007
F80007
7FF007
7FFC07
1FFC07
07FC07
003C07
001C07
001C07
001C07
001C07
001C07
001C07
001C07
001C07
001C07
001C07
001C07
001C07
001C07
001C07
001C07
001C07
001C07
001C07
001C07
001C07
001C07
001C07
001C07
ENDCHAR
STARTCHAR 00B7
ENCODING 183
SWIDTH 250 0
DWIDTH 10 0
BBX 4 5 3 10
BITMAP
F0
F0
F0
F0
F0
ENDCHAR
STARTCHAR 00B8
ENCODING 184
SWIDTH 275 0
DWIDTH 11 0
BBX 6 9 2 -10
BITMAP
3C
3C
3C
3C
3C
3C
FC
F8
F0
ENDCHAR
STARTCHAR 00B9
ENCODING 185
SWIDTH 400 0
DWIDTH 16 0
BBX 7 15 4 12
BITMAP
FC
FE
FE
0E
0E
0E
0E
0E
0E
0E
0E
0E
0E
0E
0E
ENDCHAR
STARTCHAR 00BA
ENCODING 186
SWIDTH 475 0
DWIDTH 19 0
BBX 15 15 2 12
BITMAP
1FF0
3FF8
7FFC
701C
E00E
E00E
E00E
E00E
E00E
E00E
E00E
701C
7FFC
3FF8
0FE0
ENDCHAR
STARTCHAR 00BB
ENCODING 187
SWIDTH 425 0
DWIDTH 17 0
BBX 15 22 1 0
BITMAP
E1C0
70C0
70E0
38E0
3870
1C70
1C38
0E38
0E1C
071C
070E
070E
071C
0E1C
0E38
1C38
1C30
3870
3860
70E0
70C0
E1C0
ENDCHAR
STARTCHAR 00BC
ENCODING 188
SWIDTH 875 0
DWIDTH 35 0
BBX 28 27 3 0
BITMAP
FC000380
FE000700
FE000F00
0E000E00
0E001C00
0E003800
0E007000
0E00F000
0E00E000
0E01C000
0E038000
0E070000
0E0F03E0
0E0E07F0
0E1C0FF0
00381E30
00783C30
00703830
00E07030
01C0E030
0381E030
0781FFF0
0700FFF0
0E00FFF0
1C000030
3C000030
78000030
ENDCHAR
STARTCHAR 00BD
ENCODING 189
SWIDTH 875 0
DWIDTH 35 0
BBX 31 27 2 0
BITMAP
FC000380
FE000700
FE000E00
0E001E00
0E001C00
0E003800
0E007000
0E00F000
0E00E000
0E01C000
0E038000
0E070000
0E0F3FF0
0E0E3FFC
0E1C3FFC
0038000C
0070000E
00F0001C
00E000FC
01C01FF8
03803FE0
07807C00
07007000
0E007000
1C007FFC
38007FFC
78007FFC
ENDCHAR
STARTCHAR 00BE
ENCODING 190
SWIDTH 875 0
DWIDTH 35 0
BBX 31 27 2 0
BITMAP
FFC000F0
FFE000E0
FFF001C0
00700380
00700700
00700F00
1FE00E00
1FE01C00
1FF03800
00707000
0070F000
0070E000
FFF1C0FC
FFE381FE
FFC783FE
0007038E
000E070E
001C0E0E
00381E0E
00783C0E
0070380E
00E03FFE
01C03FFE
03C01FFE
0780000E
0700000E
0E00000E
ENDCHAR
STARTCHAR 00BF
ENCODING 191
SWIDTH 575 0
DWIDTH 23 0
BBX 20 28 1 -7
BITMAP
003E00
003E00
003E00
003E00
003E00
000000
000000
000000
000000
001E00
001E00
001E00
001E00
07FC00
1FFC00
3FFC00
7FF800
7C0000
F80000
F00000
F00000
F00000
F80000
FC0000
7FFFF0
7FFFF0
3FFFF0
0FFFF0
ENDCHAR
STARTCHAR 00C0
ENCODING 192
SWIDTH 775 0
DWIDTH 31 0
BBX 29 38 1 0
BITMAP
003C0000
003E0000
001E0000
001F0000
000F8000
00078000
0007C000
0003C000
0003E000
00000000
000FC000
003FE000
003FF000
007FF800
007FF800
00FCF800
00F8FC00
00F87C00
01F07C00
01F03E00
01F03E00
03E03F00
03E01F00
07E01F00
07C01F80
07C00F80
0F800F80
0F800FC0
1F8007C0
1F0007C0
1F0003E0
3E0003E0
3E0003F0
7E0001F0
7C0001F0
7C0001F8
FC0000F8
F80000F8
ENDCHAR
STARTCHAR 00C1
ENCODING 193
SWIDTH 775 0
DWIDTH 31 0
BBX 29 38 1 0
BITMAP
0001F000
0003E000
0003E000
0007C000
00078000
000F8000
000F0000
001F0000
001E0000
00000000
000FC000
003FE000
003FF000
007FF800
007FF800
00FCF800
00F8FC00
00F87C00
01F07C00
01F03E00
01F03E00
03E03F00
03E01F00
07E01F00
07C01F80
07C00F80
0F800F80
0F800FC0
1F8007C0
1F0007C0
1F0003E0
3E0003E0
3E0003F0
7E0001F0
7C0001F0
7C0001F8
FC0000F8
F80000F8
ENDCHAR
STARTCHAR 00C2
ENCODING 194
SWIDTH 775 0
DWIDTH 31 0
BBX 29 37 1 0
BITMAP
000FC000
001FE000
003FF000
007CF000
0078F800
00F87800
00F07C00
01F03C00
00000000
000FC000
003FE000
003FF000
007FF800
007FF800
00FCF800
00F8FC00
00F87C00
01F07C00
01F03E00
01F03E00
03E03F00
03E01F00
07E01F00
07C01F80
07C00F80
0F800F80
0F800FC0
1F8007C0
1F0007C0
1F0003E0
3E0003E0
3E0003F0
7E0001F0
7C0001F0
7C0001F8
FC0000F8
F80000F8
ENDCHAR
STARTCHAR 00C3
ENCODING 195
SWIDTH 775 0
DWIDTH 31 0
BBX 29 35 1 0
BITMAP
03FFFF00
03FFFF00
03FFFF00
03FFFF00
00000000
00000000
00000000
000FC000
003FE000
003FF000
007FF800
007FF800
00FCF800
00F8FC00
00F87C00
01F07C00
01F03E00
01F03E00
03E03F00
03E01F00
07E01F00
07C01F80
07C00F80
0F800F80
0F800FC0
1F8007C0
1F0007C0
1F0003E0
3E0003E0
3E0003F0
7E0001F0
7C0001F0
7C0001F8
FC0000F8
F80000F8
ENDCHAR
STARTCHAR 00C4
ENCODING 196
SWIDTH 775 0
DWIDTH 31 0
BBX 29 36 1 0
BITMAP
00F07C00
00F07C00
00F07C00
00F07C00
00F07C00
00000000
00000000
00000000
000FC000
003FE000
003FF000
007FF800
007FF800
00FCF800
00F8FC00
00F87C00
01F07C00
01F03E00
01F03E00
03E03F00
03E01F00
07E01F00
07C01F80
07C00F80
0F800F80
0F800FC0
1F8007C0
1F0007C0
1F0003E0
3E0003E0
3E0003F0
7E0001F0
7C0001F0
7C0001F8
FC0000F8
F80000F8
ENDCHAR
STARTCHAR 00C5
ENCODING 197
SWIDTH 775 0
DWIDTH 31 0
BBX 29 37 1 0
BITMAP
001FC000
003FE000
00307000
00703000
00703000
00703000
00307000
003FE000
001FC000
000FC000
003FE000
003FF000
007FF800
007FF800
00FCF800
00F8FC00
00F87C00
01F07C00
01F03E00
01F03E00
03E03F00
03E01F00
07E01F00
07C01F80
07C00F80
0F800F80
0F800FC0
1F8007C0
1F0007C0
1F0003E0
3E0003E0
3E0003F0
7E0001F0
7C0001F0
7C0001F8
FC0000F8
F80000F8
ENDCHAR
STARTCHAR 00C6
ENCODING 198
SWIDTH 1000 0
DWIDTH 40 0
BBX 37 28 1 0
BITMAP
000F800000
003FFFFFF0
003FFFFFF0
007FFFFFF0
00FFFFFFF0
00FCFFFFF0
00F8F80000
01F8F80000
01F0F80000
01F0F80000
03E0F80000
03E0F80000
03E0FFFFF0
07C0FFFFF0
07C0FFFFF0
0FC0FFFFF0
0F80F80000
0F80F80000
1F00F80000
1F00F80000
1F00780000
3E007C0000
3E007E0000
7E007FFFF8
7C003FFFF8
7C001FFFF8
F8000FFFF8
F80003FFF8
ENDCHAR
STARTCHAR 00C7
ENCODING 199
SWIDTH 675 0
DWIDTH 27 0
BBX 23 37 2 -10
BITMAP
00FFFE
03FFFE
0FFFFE
1FFFFE
3FFFFE
3F8000
7E0000
7C0000
7C0000
780000
F80000
F80000
F80000
F80000
F80000
F80000
F80000
780000
7C0000
7C0000
7E0000
3F0000
1FFFFE
1FFFFE
0FFFFE
03FFFE
00FFFE
000000
000F00
000F00
000F00
000F00
000F00
000F00
003F00
003E00
003C00
ENDCHAR
STARTCHAR 00C8
ENCODING 200
SWIDTH 700 0
DWIDTH 28 0
BBX 23 37 2 0
BITMAP
007C00
007C00
003E00
001E00
001F00
000F00
000F80
000780
0007C0
000000
07FFFE
1FFFFE
3FFFFE
7FFFFE
7FFFFE
FC0000
FC0000
F80000
F80000
7C0000
7E0000
3FFFFE
1FFFFE
1FFFFE
3FFFFE
7E0000
7C0000
F80000
F80000
F80000
F80000
FC0000
7FFFFE
7FFFFE
3FFFFE
1FFFFE
07FFFE
ENDCHAR
STARTCHAR 00C9
ENCODING 201
SWIDTH 700 0
DWIDTH 28 0
BBX 23 37 2 0
BITMAP
0003C0
0007C0
000780
000F80
000F00
001E00
001E00
003C00
007C00
000000
07FFFE
1FFFFE
3FFFFE
7FFFFE
7FFFFE
FC0000
FC0000
F80000
F80000
7C0000
7E0000
3FFFFE
1FFFFE
1FFFFE
3FFFFE
7E0000
7C0000
F80000
F80000
F80000
F80000
FC0000
7FFFFE
7FFFFE
3FFFFE
1FFFFE
07FFFE
ENDCHAR
STARTCHAR 00CA
ENCODING 202
SWIDTH 700 0
DWIDTH 28 0
BBX 23 37 2 0
BITMAP
001F00
007F80
007FC0
00FBE0
00F1E0
01F1F0
01E0F0
03E0F8
03C078
000000
07FFFE
1FFFFE
3FFFFE
7FFFFE
7FFFFE
FC0000
FC0000
F80000
F80000
7C0000
7E0000
3FFFFE
1FFFFE
1FFFFE
3FFFFE
7E0000
7C0000
F80000
F80000
F80000
F80000
FC0000
7FFFFE
7FFFFE
3FFFFE
1FFFFE
07FFFE
ENDCHAR
STARTCHAR 00CB
ENCODING 203
SWIDTH 700 0
DWIDTH 28 0
BBX 23 35 2 0
BITMAP
01E0F0
01E0F0
01E0F0
01E0F0
01E0F0
000000
000000
000000
07FFFE
1FFFFE
3FFFFE
7FFFFE
7FFFFE
FC0000
FC0000
F80000
F80000
7C0000
7E0000
3FFFFE
1FFFFE
1FFFFE
3FFFFE
7E0000
7C0000
F80000
F80000
F80000
F80000
FC0000
7FFFFE
7FFFFE
3FFFFE
1FFFFE
07FFFE
ENDCHAR
STARTCHAR 00CC
ENCODING 204
SWIDTH 300 0
DWIDTH 12 0
BBX 9 37 1 0
BITMAP
F800
7C00
3C00
3E00
1E00
1F00
0F00
0F80
0780
0000
1E00
1E00
1E00
1E00
1E00
1E00
1E00
1E00
1E00
1E00
1E00
1E00
1E00
1E00
1E00
1E00
1E00
1E00
1E00
1E00
1E00
1E00
1E00
1E00
1E00
1E00
1E00
ENDCHAR
STARTCHAR 00CD
ENCODING 205
SWIDTH 300 0
DWIDTH 12 0
BBX 8 37 2 0
BITMAP
0F
1F
1E
3E
3C
7C
78
F0
F0
00
7C
7C
7C
7C
7C
7C
7C
7C
7C
7C
7C
7C
7C
7C
7C
7C
7C
7C
7C
7C
7C
7C
7C
7C
7C
7C
7C
ENDCHAR
STARTCHAR 00CE
ENCODING 206
SWIDTH 350 0
DWIDTH 14 0
BBX 16 37 -1 0
BITMAP
07E0
0FF0
0FF8
1E78
3E7C
3C3C
7C3E
781F
F80F
0000
03E0
03E0
03E0
03E0
03E0
03E0
03E0
03E0
03E0
03E0
03E0
03E0
03E0
03E0
03E0
03E0
03E0
03E0
03E0
03E0
03E0
03E0
03E0
03E0
03E0
03E0
03E0
ENDCHAR
STARTCHAR 00CF
ENCODING 207
SWIDTH 325 0
DWIDTH 13 0
BBX 14 35 -1 0
BITMAP
F83C
F83C
F83C
F83C
F83C
0000
0000
0000
07C0
07C0
07C0
07C0
07C0
07C0
07C0
07C0
07C0
07C0
07C0
07C0
07C0
07C0
07C0
07C0
07C0
07C0
07C0
07C0
07C0
07C0
07C0
07C0
07C0
07C0
07C0
ENDCHAR
STARTCHAR 00D0
ENCODING 208
SWIDTH 725 0
DWIDTH 29 0
BBX 27 27 0 0
BITMAP
0FFFE000
1FFFFC00
1FFFFE00
1FFFFF00
1FFFFF80
1F001FC0
1F000FC0
1F0007C0
1F0003E0
1F0003E0
1F0003E0
FFFE03E0
FFFE03E0
FFFE03E0
FFFE03E0
1F0003E0
1F0003E0
1F0003E0
1F0003E0
1F0007C0
1F000FC0
1F001FC0
1FFFFF80
1FFFFF00
1FFFFE00
1FFFFC00
0FFFE000
ENDCHAR
STARTCHAR 00D1
ENCODING 209
SWIDTH 875 0
DWIDTH 35 0
BBX 29 36 3 -1
BITMAP
07FFFF00
07FFFF00
07FFFF00
07FFFF00
00000000
00000000
00000000
1F800000
3FE000F8
7FF000F8
7FF000F8
FFF800F8
F8F800F8
F87800F8
F87C00F8
F87C00F8
F83E00F8
F83E00F8
F81F00F8
F81F00F8
F80F80F8
F80F80F8
F80F80F8
F807C0F8
F807C0F8
F803E0F8
F803E0F8
F801F0F8
F801F0F8
F801F8F8
F800F8F8
F800FFF8
F8007FF8
F8007FF0
F8003FE0
00000FC0
ENDCHAR
STARTCHAR 00D2
ENCODING 210
SWIDTH 825 0
DWIDTH 33 0
BBX 28 37 2 0
BITMAP
007C0000
003E0000
001E0000
001F0000
000F0000
000F8000
00078000
0003C000
0003C000
00000000
00FFF000
03FFFE00
0FFFFF00
1FFFFF80
3FFFFFC0
3F800FE0
7E0003E0
7C0003E0
7C0001F0
780001F0
F80001F0
F80001F0
F80000F0
F80000F0
F80000F0
F80001F0
F80001F0
780001F0
7C0001F0
7C0003F0
7E0003E0
3F000FE0
3FFFFFC0
1FFFFF80
0FFFFF00
03FFFE00
00FFF000
ENDCHAR
STARTCHAR 00D3
ENCODING 211
SWIDTH 825 0
DWIDTH 33 0
BBX 28 37 2 0
BITMAP
0003E000
0003E000
0007C000
00078000
000F8000
000F0000
001F0000
001E0000
003C0000
00000000
00FFF000
03FFFE00
0FFFFF00
1FFFFF80
3FFFFFC0
3F800FE0
7E0003E0
7C0003E0
7C0001F0
780001F0
F80001F0
F80001F0
F80000F0
F80000F0
F80000F0
F80001F0
F80001F0
780001F0
7C0001F0
7C0003F0
7E0003E0
3F000FE0
3FFFFFC0
1FFFFF80
0FFFFF00
03FFFE00
00FFF000
ENDCHAR
STARTCHAR 00D4
ENCODING 212
SWIDTH 825 0
DWIDTH 33 0
BBX 28 37 2 0
BITMAP
001F8000
003FC000
003FE000
007DE000
0078F000
00F0F800
01F07800
01E07C00
03E03C00
00000000
00FFF000
03FFFE00
0FFFFF00
1FFFFF80
3FFFFFC0
3F800FE0
7E0003E0
7C0003E0
7C0001F0
780001F0
F80001F0
F80001F0
F80000F0
F80000F0
F80000F0
F80001F0
F80001F0
780001F0
7C0001F0
7C0003F0
7E0003E0
3F000FE0
3FFFFFC0
1FFFFF80
0FFFFF00
03FFFE00
00FFF000
ENDCHAR
STARTCHAR 00D5
ENCODING 213
SWIDTH 825 0
DWIDTH 33 0
BBX 28 35 2 0
BITMAP
07FFFE00
07FFFE00
07FFFE00
07FFFE00
00000000
00000000
00000000
00000000
00FFF000
03FFFE00
0FFFFF00
1FFFFF80
3FFFFFC0
3F800FE0
7E0003E0
7C0003E0
7C0001F0
780001F0
F80001F0
F80001F0
F80000F0
F80000F0
F80000F0
F80001F0
F80001F0
780001F0
7C0001F0
7C0003F0
7E0003E0
3F000FE0
3FFFFFC0
1FFFFF80
0FFFFF00
03FFFE00
00FFF000
ENDCHAR
STARTCHAR 00D6
ENCODING 214
SWIDTH 825 0
DWIDTH 33 0
BBX 28 35 2 0
BITMAP
01F07800
01F07800
01F07800
01F07800
01F07800
00000000
00000000
00000000
00FFF000
03FFFE00
0FFFFF00
1FFFFF80
3FFFFFC0
3F800FE0
7E0003E0
7C0003E0
7C0001F0
780001F0
F80001F0
F80001F0
F80000F0
F80000F0
F80000F0
F80001F0
F80001F0
780001F0
7C0001F0
7C0003F0
7E0003E0
3F000FE0
3FFFFFC0
1FFFFF80
0FFFFF00
03FFFE00
00FFF000
ENDCHAR
STARTCHAR 00D7
ENCODING 215
SWIDTH 625 0
DWIDTH 25 0
BBX 19 18 3 5
BITMAP
6000C0
F003E0
7807C0
3C0F80
1E1F00
0F3E00
07FC00
03F800
01F000
03F000
07F800
0FBC00
1F1E00
3E0F00
7C0780
F803C0
7001C0
200080
ENDCHAR
STARTCHAR 00D8
ENCODING 216
SWIDTH 825 0
DWIDTH 33 0
BBX 28 33 2 -3
BITMAP
000003C0
00000380
00000700
00FFFF00
03FFFE00
0FFFFF00
1FFFFF80
3FFFFFC0
3F807FE0
7E0073E0
7C00F3E0
7C00E1F0
7801C1F0
F803C1F0
F80381F0
F80780F0
F80700F0
F80E00F0
F81E01F0
F81C01F0
783C01F0
7C3801F0
7C7003F0
7EF003E0
3FE00FE0
3FFFFFC0
1FFFFF80
0FFFFF00
07FFFE00
07FFF000
0F000000
0E000000
1E000000
ENDCHAR
STARTCHAR 00D9
ENCODING 217
SWIDTH 725 0
DWIDTH 29 0
BBX 23 37 3 0
BITMAP
01F000
01F000
00F800
007800
007C00
003C00
003E00
001E00
001F00
000000
F8001E
F8001E
F8001E
F8001E
F8001E
F8001E
F8001E
F8001E
F8001E
F8001E
F8001E
F8001E
F8001E
F8001E
F8001E
F8001E
F8001E
F8001E
F8001E
F8003E
F8003E
FC007E
7FFFFE
7FFFFC
3FFFF8
1FFFF0
07FFC0
ENDCHAR
STARTCHAR 00DA
ENCODING 218
SWIDTH 725 0
DWIDTH 29 0
BBX 23 37 3 0
BITMAP
000F00
001F00
001E00
003E00
003C00
007C00
007800
00F000
00F000
000000
F8001E
F8001E
F8001E
F8001E
F8001E
F8001E
F8001E
F8001E
F8001E
F8001E
F8001E
F8001E
F8001E
F8001E
F8001E
F8001E
F8001E
F8001E
F8001E
F8003E
F8003E
FC007E
7FFFFE
7FFFFC
3FFFF8
1FFFF0
07FFC0
ENDCHAR
STARTCHAR 00DB
ENCODING 219
SWIDTH 725 0
DWIDTH 29 0
BBX 23 37 3 0
BITMAP
007C00
00FF00
01FF00
03EF80
03C780
07C7C0
0783C0
0F83E0
0F01F0
000000
F8001E
F8001E
F8001E
F8001E
F8001E
F8001E
F8001E
F8001E
F8001E
F8001E
F8001E
F8001E
F8001E
F8001E
F8001E
F8001E
F8001E
F8001E
F8001E
F8003E
F8003E
FC007E
7FFFFE
7FFFFC
3FFFF8
1FFFF0
07FFC0
ENDCHAR
STARTCHAR 00DC
ENCODING 220
SWIDTH 725 0
DWIDTH 29 0
BBX 23 35 3 0
BITMAP
0783E0
0783E0
0783E0
0783E0
0783E0
000000
000000
000000
F8001E
F8001E
F8001E
F8001E
F8001E
F8001E
F8001E
F8001E
F8001E
F8001E
F8001E
F8001E
F8001E
F8001E
F8001E
F8001E
F8001E
F8001E
F8001E
F8003E
F8003E
FC007E
7FFFFE
7FFFFC
3FFFF8
1FFFF0
07FFC0
ENDCHAR
STARTCHAR 00DD
ENCODING 221
SWIDTH 700 0
DWIDTH 28 0
BBX 26 37 1 0
BITMAP
0007C000
000F8000
000F0000
001F0000
001E0000
003E0000
003C0000
00780000
00780000
00000000
FC000FC0
7C001F80
7E001F00
3F003F00
1F007E00
1F807C00
0F80F800
07C1F800
03E1F000
03E3E000
01F7E000
00FFC000
00FF8000
007F0000
003F0000
003E0000
003E0000
003E0000
003E0000
003E0000
003E0000
003E0000
003E0000
003E0000
003E0000
003E0000
003E0000
ENDCHAR
STARTCHAR 00DE
ENCODING 222
SWIDTH 700 0
DWIDTH 28 0
BBX 23 27 3 0
BITMAP
F80000
F80000
F80000
F80000
FFFE00
FFFFC0
7FFFF0
7FFFF8
1FFFF8
0000FC
00007C
00003E
00003E
00003E
00003E
00007C
00007C
0FFFFC
3FFFF8
7FFFF0
7FFFE0
FFFF80
F80000
F80000
F80000
F80000
F80000
ENDCHAR
STARTCHAR 00DF
ENCODING 223
SWIDTH 850 0
DWIDTH 34 0
BBX 29 30 3 0
BITMAP
1FFC0000
3FFF0000
7FFF0000
7FFF8000
F80F8000
F8078000
F0078000
F0078000
F0078000
F0078000
F0078000
F007C000
F007FF00
F007FFC0
F003FFE0
F001FFF0
F00001F0
F00000F8
F00000F8
F0000078
F0000078
F0000078
F0000078
F00000F8
F00000F8
F00003F0
F01FFFF0
F01FFFE0
F01FFFC0
F01FFF00
ENDCHAR
STARTCHAR 00E0
ENCODING 224
SWIDTH 675 0
DWIDTH 27 0
BBX 21 31 3 0
BITMAP
03E000
03E000
01F000
00F000
00F800
007800
007C00
003C00
003E00
000000
7FFF80
7FFFE0
7FFFF0
7FFFF0
0000F8
0000F8
000078
000078
000078
3FFFF8
7FFFF8
FFFFF8
F80078
F00078
F00078
F00078
F80078
FFFFF8
7FFFF8
3FFFF0
1FFFE0
ENDCHAR
STARTCHAR 00E1
ENCODING 225
SWIDTH 675 0
DWIDTH 27 0
BBX 21 31 3 0
BITMAP
003E00
003E00
007C00
007800
00F800
00F000
01F000
01E000
03E000
000000
7FFF80
7FFFE0
7FFFF0
7FFFF0
0000F8
0000F8
000078
000078
000078
3FFFF8
7FFFF8
FFFFF8
F80078
F00078
F00078
F00078
F80078
FFFFF8
7FFFF8
3FFFF0
1FFFE0
ENDCHAR
STARTCHAR 00E2
ENCODING 226
SWIDTH 675 0
DWIDTH 27 0
BBX 21 31 3 0
BITMAP
00F800
03FE00
03FE00
07DF00
078F00
0F8F80
0F0780
1F07C0
1E03E0
000000
7FFF80
7FFFE0
7FFFF0
7FFFF0
0000F8
0000F8
000078
000078
000078
3FFFF8
7FFFF8
FFFFF8
F80078
F00078
F00078
F00078
F80078
FFFFF8
7FFFF8
3FFFF0
1FFFE0
ENDCHAR
STARTCHAR 00E3
ENCODING 227
SWIDTH 675 0
DWIDTH 27 0
BBX 21 29 3 0
BITMAP
7FFFF0
7FFFF0
7FFFF0
7FFFF0
000000
000000
000000
000000
7FFF80
7FFFE0
7FFFF0
7FFFF0
0000F8
0000F8
000078
000078
000078
3FFFF8
7FFFF8
FFFFF8
F80078
F00078
F00078
F00078
F80078
FFFFF8
7FFFF8
3FFFF0
1FFFE0
ENDCHAR
STARTCHAR 00E4
ENCODING 228
SWIDTH 675 0
DWIDTH 27 0
BBX 21 29 3 0
BITMAP
1F0780
1F0780
1F0780
1F0780
1F0780
000000
000000
000000
7FFF80
7FFFE0
7FFFF0
7FFFF0
0000F8
0000F8
000078
000078
000078
3FFFF8
7FFFF8
FFFFF8
F80078
F00078
F00078
F00078
F80078
FFFFF8
7FFFF8
3FFFF0
1FFFE0
ENDCHAR
STARTCHAR 00E5
ENCODING 229
SWIDTH 675 0
DWIDTH 27 0
BBX 21 32 3 0
BITMAP
01FC00
03FE00
070600
060700
060300
060700
070700
03FE00
01FC00
000000
000000
7FFF80
7FFFE0
7FFFF0
7FFFF0
0000F8
0000F8
000078
000078
000078
3FFFF8
7FFFF8
FFFFF8
F80078
F00078
F00078
F00078
F80078
FFFFF8
7FFFF8
3FFFF0
1FFFE0
ENDCHAR
STARTCHAR 00E6
ENCODING 230
SWIDTH 1075 0
DWIDTH 43 0
BBX 38 21 3 0
BITMAP
7FFF87FFE0
7FFFFFFFF0
7FFFFFFFF8
7FFFFFFFFC
0000FC007C
0000F8003C
000078003C
000078003C
000078007C
3FFFFFFFFC
7FFFFFFFF8
FFFFFFFFE0
F8007F8000
F000780000
F000780000
F000780000
F8007C0000
FFFFFFFFF8
7FFFFFFFF8
3FFFFFFFF8
1FFFE7FFF8
ENDCHAR
STARTCHAR 00E7
ENCODING 231
SWIDTH 600 0
DWIDTH 24 0
BBX 20 31 2 -10
BITMAP
07FFF0
0FFFF0
3FFFF0
3FFFF0
7E0000
7C0000
F80000
F80000
F00000
F00000
F00000
F00000
F00000
F80000
F80000
7C0000
7E0000
3FFFF0
1FFFF0
0FFFF0
03FFF0
000000
003C00
003C00
003C00
003C00
003C00
003C00
00FC00
00F800
00F000
ENDCHAR
STARTCHAR 00E8
ENCODING 232
SWIDTH 650 0
DWIDTH 26 0
BBX 21 31 3 0
BITMAP
03C000
03E000
01E000
01F000
00F000
00F800
007800
003C00
003C00
000000
1FFF80
3FFFE0
7FFFF0
FFFFF0
F800F8
F00078
F00078
F00078
F000F8
FFFFF0
FFFFF0
FFFFC0
F00000
F00000
F00000
F00000
F80000
FFFFF0
7FFFF0
3FFFF0
0FFFF0
ENDCHAR
STARTCHAR 00E9
ENCODING 233
SWIDTH 650 0
DWIDTH 26 0
BBX 21 31 3 0
BITMAP
003E00
003C00
007C00
007800
00F800
00F000
01F000
01E000
03C000
000000
1FFF80
3FFFE0
7FFFF0
FFFFF0
F800F8
F00078
F00078
F00078
F000F8
FFFFF0
FFFFF0
FFFFC0
F00000
F00000
F00000
F00000
F80000
FFFFF0
7FFFF0
3FFFF0
0FFFF0
ENDCHAR
STARTCHAR 00EA
ENCODING 234
SWIDTH 650 0
DWIDTH 26 0
BBX 21 31 3 0
BITMAP
01F800
03FC00
07FE00
079E00
0F9F00
0F0F00
1F0F80
1E0780
3E07C0
000000
1FFF80
3FFFE0
7FFFF0
FFFFF0
F800F8
F00078
F00078
F00078
F000F8
FFFFF0
FFFFF0
FFFFC0
F00000
F00000
F00000
F00000
F80000
FFFFF0
7FFFF0
3FFFF0
0FFFF0
ENDCHAR
STARTCHAR 00EB
ENCODING 235
SWIDTH 650 0
DWIDTH 26 0
BBX 21 29 3 0
BITMAP
1F0780
1F0780
1F0780
1F0780
1F0780
000000
000000
000000
1FFF80
3FFFE0
7FFFF0
FFFFF0
F800F8
F00078
F00078
F00078
F000F8
FFFFF0
FFFFF0
FFFFC0
F00000
F00000
F00000
F00000
F80000
FFFFF0
7FFFF0
3FFFF0
0FFFF0
ENDCHAR
STARTCHAR 00EC
ENCODING 236
SWIDTH 275 0
DWIDTH 11 0
BBX 9 31 1 0
BITMAP
F800
7800
7C00
3C00
3E00
1E00
0F00
0F80
0780
0000
1E00
1E00
1E00
1E00
1E00
1E00
1E00
1E00
1E00
1E00
1E00
1E00
1E00
1E00
1E00
1E00
1E00
1E00
1E00
1E00
1E00
ENDCHAR
STARTCHAR 00ED
ENCODING 237
SWIDTH 275 0
DWIDTH 11 0
BBX 9 31 1 0
BITMAP
0F80
0F00
1F00
1E00
3E00
3C00
7800
7800
F000
0000
3C00
3C00
3C00
3C00
3C00
3C00
3C00
3C00
3C00
3C00
3C00
3C00
3C00
3C00
3C00
3C00
3C00
3C00
3C00
3C00
3C00
ENDCHAR
STARTCHAR 00EE
ENCODING 238
SWIDTH 375 0
DWIDTH 15 0
BBX 16 31 -1 0
BITMAP
07E0
0FF0
0FF8
1F78
1E3C
3C3E
7C1E
781F
F80F
0000
03C0
03C0
03C0
03C0
03C0
03C0
03C0
03C0
03C0
03C0
03C0
03C0
03C0
03C0
03C0
03C0
03C0
03C0
03C0
03C0
03C0
ENDCHAR
STARTCHAR 00EF
ENCODING 239
SWIDTH 350 0
DWIDTH 14 0
BBX 14 29 0 0
BITMAP
F03C
F03C
F03C
F03C
F03C
0000
0000
0000
0780
0780
0780
0780
0780
0780
0780
0780
0780
0780
0780
0780
0780
0780
0780
0780
0780
0780
0780
0780
0780
ENDCHAR
STARTCHAR 00F0
ENCODING 240
SWIDTH 700 0
DWIDTH 28 0
BBX 23 32 2 0
BITMAP
001800
003800
07FFC0
07FFF0
07FFF8
07FFFC
00C0FC
00C03C
01803E
00003E
00003E
00001E
03FFFE
0FFFFE
1FFFFE
3FFFFE
7E001E
7C001E
F8001E
F8001E
F0001E
F0001E
F0001E
F0003E
F8003E
F8003E
7C003C
7E00FC
3FFFFC
3FFFF8
0FFFF0
03FFC0
ENDCHAR
STARTCHAR 00F1
ENCODING 241
SWIDTH 700 0
DWIDTH 28 0
BBX 22 29 3 0
BITMAP
3FFFF0
3FFFF0
3FFFF0
3FFFF0
000000
000000
000000
000000
7FFF00
FFFFC0
FFFFF0
FFFFF8
F001F8
F0007C
F0007C
F0003C
F0003C
F0003C
F0003C
F0003C
F0003C
F0003C
F0003C
F0003C
F0003C
F0003C
F0003C
F0003C
F0003C
ENDCHAR
STARTCHAR 00F2
ENCODING 242
SWIDTH 675 0
DWIDTH 27 0
BBX 23 31 2 0
BITMAP
01E000
01F000
00F000
00F800
007800
007C00
003C00
001E00
001E00
000000
07FF80
0FFFE0
3FFFF0
3FFFF8
7E00FC
7C007C
F8003C
F8003E
F0003E
F0003E
F0003E
F0003E
F0003E
F8003E
F8003C
7C007C
7E00FC
3FFFF8
1FFFF0
0FFFE0
03FF80
ENDCHAR
STARTCHAR 00F3
ENCODING 243
SWIDTH 675 0
DWIDTH 27 0
BBX 23 31 2 0
BITMAP
001F00
001F00
003E00
003C00
007C00
007800
00F800
00F000
01F000
000000
07FF80
0FFFE0
3FFFF0
3FFFF8
7E00FC
7C007C
F8003C
F8003E
F0003E
F0003E
F0003E
F0003E
F0003E
F8003E
F8003C
7C007C
7E00FC
3FFFF8
1FFFF0
0FFFE0
03FF80
ENDCHAR
STARTCHAR 00F4
ENCODING 244
SWIDTH 675 0
DWIDTH 27 0
BBX 23 31 2 0
BITMAP
007C00
01FE00
01FF00
03EF80
03C780
07C7C0
0783C0
0F83E0
1F01E0
000000
07FF80
0FFFE0
3FFFF0
3FFFF8
7E00FC
7C007C
F8003C
F8003E
F0003E
F0003E
F0003E
F0003E
F0003E
F8003E
F8003C
7C007C
7E00FC
3FFFF8
1FFFF0
0FFFE0
03FF80
ENDCHAR
STARTCHAR 00F5
ENCODING 245
SWIDTH 675 0
DWIDTH 27 0
BBX 23 29 2 0
BITMAP
3FFFF8
3FFFF8
3FFFF8
3FFFF8
000000
000000
000000
000000
07FF80
0FFFE0
3FFFF0
3FFFF8
7E00FC
7C007C
F8003C
F8003E
F0003E
F0003E
F0003E
F0003E
F0003E
F8003E
F8003C
7C007C
7E00FC
3FFFF8
1FFFF0
0FFFE0
03FF80
ENDCHAR
STARTCHAR 00F6
ENCODING 246
SWIDTH 675 0
DWIDTH 27 0
BBX 23 29 2 0
BITMAP
0F83C0
0F83C0
0F83C0
0F83C0
0F83C0
000000
000000
000000
07FF80
0FFFE0
3FFFF0
3FFFF8
7E00FC
7C007C
F8003C
F8003E
F0003E
F0003E
F0003E
F0003E
F0003E
F8003E
F8003C
7C007C
7E00FC
3FFFF8
1FFFF0
0FFFE0
03FF80
ENDCHAR
STARTCHAR 00F7
ENCODING 247
SWIDTH 625 0
DWIDTH 25 0
BBX 21 25 2 1
BITMAP
00F800
00F800
00F800
00F800
00F800
000000
000000
000000
000000
000000
000000
FFFFF8
FFFFF8
FFFFF8
000000
000000
000000
000000
000000
000000
00F800
00F800
00F800
00F800
00F800
ENDCHAR
STARTCHAR 00F8
ENCODING 248
SWIDTH 675 0
DWIDTH 27 0
BBX 23 28 2 -3
BITMAP
00001C
000038
000078
000070
07FFE0
0FFFE0
3FFFF0
3FFFF8
7E07FC
7C077C
F80F3C
F81E3E
F01C3E
F03C3E
F0783E
F0703E
F0F03E
F9E03E
F9C03C
7FC07C
7F80FC
3FFFF8
1FFFF0
0FFFE0
1FFF80
3C0000
380000
700000
ENDCHAR
STARTCHAR 00F9
ENCODING 249
SWIDTH 700 0
DWIDTH 28 0
BBX 22 31 3 0
BITMAP
03E000
01E000
01F000
00F800
007800
007C00
003C00
003E00
001E00
000000
F0003C
F0003C
F0003C
F0003C
F0003C
F0003C
F0003C
F0003C
F0003C
F0003C
F0003C
F0003C
F0003C
F0003C
F8003C
F8007C
7E01F8
7FFFF8
3FFFF0
1FFFE0
07FF80
ENDCHAR
STARTCHAR 00FA
ENCODING 250
SWIDTH 700 0
DWIDTH 28 0
BBX 22 31 3 0
BITMAP
001F00
001E00
003E00
003C00
007C00
007800
00F000
01F000
01E000
000000
F0003C
F0003C
F0003C
F0003C
F0003C
F0003C
F0003C
F0003C
F0003C
F0003C
F0003C
F0003C
F0003C
F0003C
F8003C
F8007C
7E01F8
7FFFF8
3FFFF0
1FFFE0
07FF80
ENDCHAR
STARTCHAR 00FB
ENCODING 251
SWIDTH 700 0
DWIDTH 28 0
BBX 22 31 3 0
BITMAP
00FC00
01FE00
03FF00
03CF00
07CF80
078780
0F87C0
0F03C0
1F03E0
000000
F0003C
F0003C
F0003C
F0003C
F0003C
F0003C
F0003C
F0003C
F0003C
F0003C
F0003C
F0003C
F0003C
F0003C
F8003C
F8007C
7E01F8
7FFFF8
3FFFF0
1FFFE0
07FF80
ENDCHAR
STARTCHAR 00FC
ENCODING 252
SWIDTH 700 0
DWIDTH 28 0
BBX 22 29 3 0
BITMAP
0F03C0
0F03C0
0F03C0
0F03C0
0F03C0
000000
000000
000000
F0003C
F0003C
F0003C
F0003C
F0003C
F0003C
F0003C
F0003C
F0003C
F0003C
F0003C
F0003C
F0003C
F0003C
F8003C
F8007C
7E01F8
7FFFF8
3FFFF0
1FFFE0
07FF80
ENDCHAR
STARTCHAR 00FD
ENCODING 253
SWIDTH 650 0
DWIDTH 26 0
BBX 24 39 1 -8
BITMAP
000F80
001F00
001E00
003E00
003C00
007C00
007800
00F800
00F000
000000
F0001F
F8001E
78003E
7C003E
3C003C
3E007C
3E0078
1E00F8
1F00F0
0F01F0
0F81F0
0F81E0
0783E0
07C3C0
03C7C0
03E780
03FF80
01FF00
01FF00
00FF00
001E00
003E00
003C00
007C00
007800
00F800
00F800
00F000
01F000
ENDCHAR
STARTCHAR 00FE
ENCODING 254
SWIDTH 700 0
DWIDTH 28 0
BBX 23 38 3 -8
BITMAP
F00000
F00000
F00000
F00000
F00000
F00000
F00000
F00000
F80000
FFFF80
FFFFE0
FFFFF0
7FFFF8
0000FC
00007C
00003C
00003C
00003E
00003E
00003E
00003E
00003E
00003C
00003C
00007C
0000FC
7FFFF8
FFFFF0
FFFFE0
FFFF80
F00000
F00000
F00000
F00000
F00000
F00000
F00000
F00000
ENDCHAR
STARTCHAR 00FF
ENCODING 255
SWIDTH 650 0
DWIDTH 26 0
BBX 24 37 1 -8
BITMAP
0783E0
0783E0
0783E0
0783E0
0783E0
000000
000000
000000
F0001F
F8001E
78003E
7C003E
3C003C
3E007C
3E0078
1E00F8
1F00F0
0F01F0
0F81F0
0F81E0
0783E0
07C3C0
03C7C0
03E780
03FF80
01FF00
01FF00
00FF00
001E00
003E00
003C00
007C00
007800
00F800
00F800
00F000
01F000
ENDCHAR
STARTCHAR 0100
ENCODING 256
SWIDTH 775 0
DWIDTH 31 0
BBX 29 35 1 0
BITMAP
03FFFF00
03FFFF00
03FFFF00
03FFFF00
00000000
00000000
00000000
000FC000
003FE000
003FF000
007FF800
007FF800
00FCF800
00F8FC00
00F87C00
01F07C00
01F03E00
01F03E00
03E03F00
03E01F00
07E01F00
07C01F80
07C00F80
0F800F80
0F800FC0
1F8007C0
1F0007C0
1F0003E0
3E0003E0
3E0003F0
7E0001F0
7C0001F0
7C0001F8
FC0000F8
F80000F8
ENDCHAR
STARTCHAR 0101
ENCODING 257
SWIDTH 675 0
DWIDTH 27 0
BBX 21 29 3 0
BITMAP
7FFFF0
7FFFF0
7FFFF0
7FFFF0
000000
000000
000000
000000
7FFF80
7FFFE0
7FFFF0
7FFFF0
0000F8
0000F8
000078
000078
000078
3FFFF8
7FFFF8
FFFFF8
F80078
F00078
F00078
F00078
F80078
FFFFF8
7FFFF8
3FFFF0
1FFFE0
ENDCHAR
STARTCHAR 0102
ENCODING 258
SWIDTH 775 0
DWIDTH 31 0
BBX 29 38 1 0
BITMAP
01C01E00
01C01E00
01C01E00
01C01E00
01C01E00
01E03E00
01FFFC00
00FFF800
003FE000
00000000
000FC000
003FE000
003FF000
007FF800
007FF800
00FCF800
00F8FC00
00F87C00
01F07C00
01F03E00
01F03E00
03E03F00
03E01F00
07E01F00
07C01F80
07C00F80
0F800F80
0F800FC0
1F8007C0
1F0007C0
1F0003E0
3E0003E0
3E0003F0
7E0001F0
7C0001F0
7C0001F8
FC0000F8
F80000F8
ENDCHAR
STARTCHAR 0103
ENCODING 259
SWIDTH 675 0
DWIDTH 27 0
BBX 21 31 3 0
BITMAP
1C01E0
1C01E0
1C01E0
1C01E0
1C01E0
1E03C0
1FFFC0
0FFF80
03FE00
000000
7FFF80
7FFFE0
7FFFF0
7FFFF0
0000F8
0000F8
000078
000078
000078
3FFFF8
7FFFF8
FFFFF8
F80078
F00078
F00078
F00078
F80078
FFFFF8
7FFFF8
3FFFF0
1FFFE0
ENDCHAR
STARTCHAR 0104
ENCODING 260
SWIDTH 775 0
DWIDTH 31 0
BBX 30 39 1 -11
BITMAP
000FC000
003FE000
003FF000
007FF800
007FF800
00FCF800
00F8FC00
00F87C00
01F07C00
01F03E00
01F03E00
03E03F00
03E01F00
07E01F00
07C01F80
07C00F80
0F800F80
0F8007C0
1F8007C0
1F0007C0
1F0003E0
3E0003E0
3E0003F0
7E0001F0
7C0001F0
7C0001F8
FC0000F8
F80000F8
00000078
000001C0
00000380
00000700
00000F00
00000F00
00000F80
00000FFC
000007FC
000007FC
000001FC
ENDCHAR
STARTCHAR 0105
ENCODING 261
SWIDTH 675 0
DWIDTH 27 0
BBX 21 32 3 -11
BITMAP
7FFF80
7FFFE0
7FFFF0
7FFFF0
0000F8
0000F8
000078
000078
000078
3FFFF8
7FFFF8
FFFFF8
F80078
F00078
F00078
F00078
F80078
FFFFF8
7FFFF8
3FFFF0
1FFFE0
000E00
003800
00E000
01E000
01C000
01E000
01E000
01FF80
01FF80
00FF80
007F80
ENDCHAR
STARTCHAR 0106
ENCODING 262
SWIDTH 675 0
DWIDTH 27 0
BBX 23 37 2 0
BITMAP
0003E0
0003C0
0007C0
000780
000F80
000F00
001E00
003E00
003C00
000000
00FFFE
03FFFE
0FFFFE
1FFFFE
3FFFFE
3F8000
7E0000
7C0000
7C0000
780000
F80000
F80000
F80000
F80000
F80000
F80000
F80000
780000
7C0000
7C0000
7E0000
3F0000
1FFFFE
1FFFFE
0FFFFE
03FFFE
00FFFE
ENDCHAR
STARTCHAR 0107
ENCODING 263
SWIDTH 600 0
DWIDTH 24 0
BBX 20 31 2 0
BITMAP
000F80
001F00
001E00
003E00
003C00
007C00
007800
00F000
00F000
000000
07FFF0
0FFFF0
3FFFF0
3FFFF0
7E0000
7C0000
F80000
F80000
F00000
F00000
F00000
F00000
F00000
F80000
F80000
7C0000
7E0000
3FFFF0
1FFFF0
0FFFF0
03FFF0
ENDCHAR
STARTCHAR 010A
ENCODING 266
SWIDTH 675 0
DWIDTH 27 0
BBX 23 35 2 0
BITMAP
000F00
000F00
000F00
000F00
000F00
000000
000000
000000
00FFFE
03FFFE
0FFFFE
1FFFFE
3FFFFE
3F8000
7E0000
7C0000
7C0000
780000
F80000
F80000
F80000
F80000
F80000
F80000
F80000
780000
7C0000
7C0000
7E0000
3F0000
1FFFFE
1FFFFE
0FFFFE
03FFFE
00FFFE
ENDCHAR
STARTCHAR 010B
ENCODING 267
SWIDTH 600 0
DWIDTH 24 0
BBX 20 29 2 0
BITMAP
003C00
003C00
003C00
003C00
003C00
000000
000000
000000
07FFF0
0FFFF0
3FFFF0
3FFFF0
7E0000
7C0000
F80000
F80000
F00000
F00000
F00000
F00000
F00000
F80000
F80000
7C0000
7E0000
3FFFF0
1FFFF0
0FFFF0
03FFF0
ENDCHAR
STARTCHAR 010C
ENCODING 268
SWIDTH 675 0
DWIDTH 27 0
BBX 23 37 2 0
BITMAP
03C07C
03E078
01F0F8
00F0F0
00F9F0
007BE0
007FC0
003FC0
001F80
000000
00FFFE
03FFFE
0FFFFE
1FFFFE
3FFFFE
3F8000
7E0000
7C0000
7C0000
780000
F80000
F80000
F80000
F80000
F80000
F80000
F80000
780000
7C0000
7C0000
7E0000
3F0000
1FFFFE
1FFFFE
0FFFFE
03FFFE
00FFFE
ENDCHAR
STARTCHAR 010D
ENCODING 269
SWIDTH 600 0
DWIDTH 24 0
BBX 20 31 2 0
BITMAP
0F81E0
0783E0
07C7C0
03C780
03EF80
01FF00
01FF00
00FE00
000000
000000
07FFF0
0FFFF0
3FFFF0
3FFFF0
7E0000
7C0000
F80000
F80000
F00000
F00000
F00000
F00000
F00000
F80000
F80000
7C0000
7E0000
3FFFF0
1FFFF0
0FFFF0
03FFF0
ENDCHAR
STARTCHAR 010E
ENCODING 270
SWIDTH 725 0
DWIDTH 29 0
BBX 24 37 3 0
BITMAP
3E03C0
1E07C0
1F0780
0F0F80
079F00
07DE00
03FE00
03FC00
01F800
000000
7FFF00
FFFFE0
FFFFF0
FFFFF8
FFFFFC
F800FE
F8007E
F8003E
F8001F
F8001F
F8001F
F8001F
F8001F
F8001F
F8001F
F8001F
F8001F
F8001F
F8001F
F8003E
F8007E
F800FE
FFFFFC
FFFFF8
FFFFF0
FFFFE0
7FFF00
ENDCHAR
STARTCHAR 010F
ENCODING 271
SWIDTH 800 0
DWIDTH 32 0
BBX 31 30 2 0
BITMAP
00001E1E
00001E1E
00001E1E
00001E1E
00001E1E
00001E3E
00001E7C
00001E7C
00001E78
07FFFE00
0FFFFE00
3FFFFE00
3FFFFE00
7E001E00
7C001E00
F8001E00
F8001E00
F0001E00
F0001E00
F0001E00
F0001E00
F0003E00
F8003E00
F8003E00
7C003C00
7E00FC00
3FFFFC00
1FFFF800
0FFFF000
03FFC000
ENDCHAR
STARTCHAR 0110
ENCODING 272
SWIDTH 725 0
DWIDTH 29 0
BBX 27 27 0 0
BITMAP
0FFFE000
1FFFFC00
1FFFFE00
1FFFFF00
1FFFFF80
1F001FC0
1F000FC0
1F0007C0
1F0003E0
1F0003E0
1F0003E0
FFFE03E0
FFFE03E0
FFFE03E0
FFFE03E0
1F0003E0
1F0003E0
1F0003E0
1F0003E0
1F0007C0
1F000FC0
1F001FC0
1FFFFF80
1FFFFF00
1FFFFE00
1FFFFC00
0FFFE000
ENDCHAR
STARTCHAR 0111
ENCODING 273
SWIDTH 700 0
DWIDTH 28 0
BBX 23 30 2 0
BITMAP
00001E
0FFFFE
0FFFFE
0FFFFE
0FFFFE
00001E
00001E
00001E
00001E
07FFFE
0FFFFE
3FFFFE
3FFFFE
7E001E
7C001E
F8001E
F8001E
F0001E
F0001E
F0001E
F0001E
F0003E
F8003E
F8003E
7C003C
7E00FC
3FFFFC
1FFFF8
0FFFF0
03FFC0
ENDCHAR
STARTCHAR 0112
ENCODING 274
SWIDTH 700 0
DWIDTH 28 0
BBX 23 35 2 0
BITMAP
0FFFFE
0FFFFE
0FFFFE
0FFFFE
000000
000000
000000
000000
07FFFE
1FFFFE
3FFFFE
7FFFFE
7FFFFE
FC0000
FC0000
F80000
F80000
7C0000
7E0000
3FFFFE
1FFFFE
1FFFFE
3FFFFE
7E0000
7C0000
F80000
F80000
F80000
F80000
FC0000
7FFFFE
7FFFFE
3FFFFE
1FFFFE
07FFFE
ENDCHAR
STARTCHAR 0113
ENCODING 275
SWIDTH 650 0
DWIDTH 26 0
BBX 21 29 3 0
BITMAP
7FFFE0
7FFFE0
7FFFE0
7FFFE0
000000
000000
000000
000000
1FFF80
3FFFE0
7FFFF0
FFFFF0
F800F8
F00078
F00078
F00078
F000F8
FFFFF0
FFFFF0
FFFFC0
F00000
F00000
F00000
F00000
F80000
FFFFF0
7FFFF0
3FFFF0
0FFFF0
ENDCHAR
STARTCHAR 0116
ENCODING 278
SWIDTH 700 0
DWIDTH 28 0
BBX 23 35 2 0
BITMAP
001E00
001E00
001E00
001E00
001E00
000000
000000
000000
07FFFE
1FFFFE
3FFFFE
7FFFFE
7FFFFE
FC0000
FC0000
F80000
F80000
7C0000
7E0000
3FFFFE
1FFFFE
1FFFFE
3FFFFE
7E0000
7C0000
F80000
F80000
F80000
F80000
FC0000
7FFFFE
7FFFFE
3FFFFE
1FFFFE
07FFFE
ENDCHAR
STARTCHAR 0117
ENCODING 279
SWIDTH 650 0
DWIDTH 26 0
BBX 21 29 3 0
BITMAP
00F000
00F000
00F000
00F000
00F000
000000
000000
000000
1FFF80
3FFFE0
7FFFF0
FFFFF0
F800F8
F00078
F00078
F00078
F000F8
FFFFF0
FFFFF0
FFFFC0
F00000
F00000
F00000
F00000
F80000
FFFFF0
7FFFF0
3FFFF0
0FFFF0
ENDCHAR
STARTCHAR 0118
ENCODING 280
SWIDTH 700 0
DWIDTH 28 0
BBX 24 38 2 -11
BITMAP
07FFFE
1FFFFE
3FFFFE
7FFFFE
7FFFFE
FC0000
FC0000
F80000
F80000
7C0000
7E0000
3FFFFE
1FFFFE
1FFFFE
3FFFFE
7E0000
7C0000
F80000
F80000
F80000
F80000
FC0000
7FFFFE
7FFFFE
3FFFFE
1FFFFE
07FFFE
00001C
000070
0001C0
000380
000380
000780
0007C0
0007FF
0003FF
0003FF
0000FF
ENDCHAR
STARTCHAR 0119
ENCODING 281
SWIDTH 650 0
DWIDTH 26 0
BBX 21 32 3 -11
BITMAP
1FFF80
3FFFE0
7FFFF0
FFFFF0
F800F8
F00078
F00078
F00078
F000F8
FFFFF0
FFFFF0
FFFFC0
F00000
F00000
F00000
F00000
F80000
FFFFF0
7FFFF0
3FFFF0
0FFFF0
0000E0
000380
000E00
001C00
001C00
003C00
003E00
003FF8
001FF8
001FF8
0007F8
ENDCHAR
STARTCHAR 011A
ENCODING 282
SWIDTH 700 0
DWIDTH 28 0
BBX 23 37 2 0
BITMAP
07C078
03E0F8
01E0F0
01F1F0
00F1E0
00FBE0
007FC0
007F80
001F00
000000
07FFFE
1FFFFE
3FFFFE
7FFFFE
7FFFFE
FC0000
FC0000
F80000
F80000
7C0000
7E0000
3FFFFE
1FFFFE
1FFFFE
3FFFFE
7E0000
7C0000
F80000
F80000
F80000
F80000
FC0000
7FFFFE
7FFFFE
3FFFFE
1FFFFE
07FFFE
ENDCHAR
STARTCHAR 011B
ENCODING 283
SWIDTH 650 0
DWIDTH 26 0
BBX 21 31 3 0
BITMAP
3E07C0
1F0F80
0F0F00
0F9F00
079E00
07FE00
03FC00
01F800
000000
000000
1FFF80
3FFFE0
7FFFF0
FFFFF0
F800F8
F00078
F00078
F00078
F000F8
FFFFF0
FFFFF0
FFFFC0
F00000
F00000
F00000
F00000
F80000
FFFFF0
7FFFF0
3FFFF0
0FFFF0
ENDCHAR
STARTCHAR 011E
ENCODING 286
SWIDTH 725 0
DWIDTH 29 0
BBX 25 37 2 0
BITMAP
03803C00
03803C00
03803C00
03803C00
03803C00
03E07C00
03FFF800
01FFF000
003FC000
00000000
00FFFF00
03FFFF00
0FFFFF00
1FFFFF00
3FFFFF00
3F800000
7E000000
7C000000
7C000000
78000000
F8000000
F81FF800
F81FFE00
F81FFF00
F81FFF00
F8001F80
F8000F80
78000780
7C000780
7C000780
7E000F80
3F001F80
1FFFFF00
1FFFFF00
0FFFFE00
03FFFC00
00FFF000
ENDCHAR
STARTCHAR 011F
ENCODING 287
SWIDTH 700 0
DWIDTH 28 0
BBX 23 39 2 -8
BITMAP
0E0070
0E0070
0E0070
0E00F0
0F00F0
0F81F0
07FFE0
07FFC0
00FF00
000000
07FFC0
1FFFF0
3FFFF8
3FFFFC
7E007C
7C003C
F8003E
F8003E
F0003E
F0001E
F0001E
F0001E
F8001E
F8001E
78001E
7C001E
3FFFFE
3FFFFE
0FFFFE
03FFFE
00001E
00003E
00003E
00003E
00007C
3FFFFC
3FFFFC
3FFFF8
3FFFE0
ENDCHAR
STARTCHAR 0120
ENCODING 288
SWIDTH 725 0
DWIDTH 29 0
BBX 25 35 2 0
BITMAP
000F0000
000F0000
000F0000
000F0000
000F0000
00000000
00000000
00000000
00FFFF00
03FFFF00
0FFFFF00
1FFFFF00
3FFFFF00
3F800000
7E000000
7C000000
7C000000
78000000
F8000000
F81FF800
F81FFE00
F81FFF00
F81FFF00
F8001F80
F8000F80
78000780
7C000780
7C000780
7E000F80
3F001F80
1FFFFF00
1FFFFF00
0FFFFE00
03FFFC00
00FFF000
ENDCHAR
STARTCHAR 0121
ENCODING 289
SWIDTH 700 0
DWIDTH 28 0
BBX 23 37 2 -8
BITMAP
003C00
003C00
003C00
003C00
003C00
000000
000000
000000
07FFC0
1FFFF0
3FFFF8
3FFFFC
7E007C
7C003C
F8003E
F8003E
F0003E
F0001E
F0001E
F0001E
F8001E
F8001E
78001E
7C001E
3FFFFE
3FFFFE
0FFFFE
03FFFE
00001E
00003E
00003E
00003E
00007C
3FFFFC
3FFFFC
3FFFF8
3FFFE0
ENDCHAR
STARTCHAR 0122
ENCODING 290
SWIDTH 725 0
DWIDTH 29 0
BBX 25 37 2 -10
BITMAP
00FFFF00
03FFFF00
0FFFFF00
1FFFFF00
3FFFFF00
3F800000
7E000000
7C000000
7C000000
78000000
F8000000
F81FF800
F81FFE00
F81FFF00
F81FFF00
F8001F80
F8000F80
78000780
7C000780
7C000780
7E000F80
3F001F80
1FFFFF00
1FFFFF00
0FFFFE00
03FFFC00
00FFF000
00000000
000F0000
000F0000
000F0000
000F0000
000F0000
001F0000
003F0000
003E0000
003C0000
ENDCHAR
STARTCHAR 0123
ENCODING 291
SWIDTH 700 0
DWIDTH 28 0
BBX 23 41 2 -8
BITMAP
001F00
003F00
003F00
007C00
007C00
007C00
007C00
007C00
007C00
007C00
007C00
000000
07FFC0
1FFFF0
3FFFF8
3FFFFC
7E007C
7C003C
F8003E
F8003E
F0003E
F0001E
F0001E
F0001E
F8001E
F8001E
78001E
7C001E
3FFFFE
3FFFFE
0FFFFE
03FFFE
00001E
00003E
00003E
00003E
00007C
3FFFFC
3FFFFC
3FFFF8
3FFFE0
ENDCHAR
STARTCHAR 0126
ENCODING 294
SWIDTH 750 0
DWIDTH 30 0
BBX 29 27 0 0
BITMAP
1F0003E0
1F0003E0
1F0003E0
FFFFFFF8
FFFFFFF8
FFFFFFF8
1F0003E0
1F0003E0
1F0003E0
1F0003E0
1F0003E0
1FFFFFE0
1FFFFFE0
1FFFFFE0
1FFFFFE0
1FFFFFE0
1F0003E0
1F0003E0
1F0003E0
1F0003E0
1F0003E0
1F0003E0
1F0003E0
1F0003E0
1F0003E0
1F0003E0
1F0003E0
ENDCHAR
STARTCHAR 0127
ENCODING 295
SWIDTH 700 0
DWIDTH 28 0
BBX 22 30 3 0
BITMAP
F00000
FFFFC0
FFFFC0
FFFFC0
FFFFC0
F00000
F00000
F00000
F00000
FFFF00
FFFFE0
FFFFF0
FFFFF8
F001F8
F0007C
F0007C
F0003C
F0003C
F0003C
F0003C
F0003C
F0003C
F0003C
F0003C
F0003C
F0003C
F0003C
F0003C
F0003C
F0003C
ENDCHAR
STARTCHAR 0128
ENCODING 296
SWIDTH 350 0
DWIDTH 14 0
BBX 18 35 -2 0
BITMAP
FFFFC0
FFFFC0
FFFFC0
FFFFC0
000000
000000
000000
000000
01F000
01F000
01F000
01F000
01F000
01F000
01F000
01F000
01F000
01F000
01F000
01F000
01F000
01F000
01F000
01F000
01F000
01F000
01F000
01F000
01F000
01F000
01F000
01F000
01F000
01F000
01F000
ENDCHAR
STARTCHAR 0129
ENCODING 297
SWIDTH 400 0
DWIDTH 16 0
BBX 18 29 -1 0
BITMAP
FFFFC0
FFFFC0
FFFFC0
FFFFC0
000000
000000
000000
000000
01E000
01E000
01E000
01E000
01E000
01E000
01E000
01E000
01E000
01E000
01E000
01E000
01E000
01E000
01E000
01E000
01E000
01E000
01E000
01E000
01E000
ENDCHAR
STARTCHAR 012A
ENCODING 298
SWIDTH 350 0
DWIDTH 14 0
BBX 18 35 -2 0
BITMAP
FFFFC0
FFFFC0
FFFFC0
FFFFC0
000000
000000
000000
000000
01F000
01F000
01F000
01F000
01F000
01F000
01F000
01F000
01F000
01F000
01F000
01F000
01F000
01F000
01F000
01F000
01F000
01F000
01F000
01F000
01F000
01F000
01F000
01F000
01F000
01F000
01F000
ENDCHAR
STARTCHAR 012B
ENCODING 299
SWIDTH 400 0
DWIDTH 16 0
BBX 18 29 -1 0
BITMAP
FFFFC0
FFFFC0
FFFFC0
FFFFC0
000000
000000
000000
000000
01E000
01E000
01E000
01E000
01E000
01E000
01E000
01E000
01E000
01E000
01E000
01E000
01E000
01E000
01E000
01E000
01E000
01E000
01E000
01E000
01E000
ENDCHAR
STARTCHAR 012C
ENCODING 300
SWIDTH 375 0
DWIDTH 15 0
BBX 17 37 -1 0
BITMAP
F00780
F00780
F00780
F00780
F00700
780F00
7FFF00
3FFE00
0FF800
000000
03E000
03E000
03E000
03E000
03E000
03E000
03E000
03E000
03E000
03E000
03E000
03E000
03E000
03E000
03E000
03E000
03E000
03E000
03E000
03E000
03E000
03E000
03E000
03E000
03E000
03E000
03E000
ENDCHAR
STARTCHAR 012D
ENCODING 301
SWIDTH 375 0
DWIDTH 15 0
BBX 17 31 -1 0
BITMAP
F00780
F00780
F00780
F00780
F00700
780F00
7FFF00
3FFE00
0FF800
000000
03E000
03E000
03E000
03E000
03E000
03E000
03E000
03E000
03E000
03E000
03E000
03E000
03E000
03E000
03E000
03E000
03E000
03E000
03E000
03E000
03E000
ENDCHAR
STARTCHAR 012E
ENCODING 302
SWIDTH 275 0
DWIDTH 11 0
BBX 10 38 -1 -11
BITMAP
0780
0780
0780
0780
0780
0780
0780
0780
0780
0780
0780
0780
0780
0780
0780
0780
0780
0780
0780
0780
0780
0780
0780
0780
0780
0780
0780
0700
1C00
7000
F000
E000
F000
F000
FFC0
FFC0
7FC0
3FC0
ENDCHAR
STARTCHAR 012F
ENCODING 303
SWIDTH 275 0
DWIDTH 11 0
BBX 11 40 -2 -11
BITMAP
03C0
03C0
03C0
03C0
03C0
0000
0000
0000
03C0
03C0
03C0
03C0
03C0
03C0
03C0
03C0
03C0
03C0
03C0
03C0
03C0
03C0
03C0
03C0
03C0
03C0
03C0
03C0
03C0
0380
0E00
3800
7000
7000
F800
F800
7FE0
7FE0
3FE0
1FE0
ENDCHAR
STARTCHAR 0130
ENCODING 304
SWIDTH 275 0
DWIDTH 11 0
BBX 5 35 3 0
BITMAP
F8
F8
F8
F8
F8
00
00
00
F8
F8
F8
F8
F8
F8
F8
F8
F8
F8
F8
F8
F8
F8
F8
F8
F8
F8
F8
F8
F8
F8
F8
F8
F8
F8
F8
ENDCHAR
STARTCHAR 0131
ENCODING 305
SWIDTH 250 0
DWIDTH 10 0
BBX 4 21 3 0
BITMAP
F0
F0
F0
F0
F0
F0
F0
F0
F0
F0
F0
F0
F0
F0
F0
F0
F0
F0
F0
F0
F0
ENDCHAR
STARTCHAR 0132
ENCODING 306
SWIDTH 825 0
DWIDTH 33 0
BBX 27 27 3 0
BITMAP
F80003E0
F80003E0
F80003E0
F80003E0
F80003E0
F80003E0
F80003E0
F80003E0
F80003E0
F80003E0
F80003E0
F80003E0
F80003E0
F80003E0
F80003E0
F80003E0
F80003E0
F80003E0
F80003E0
F80003E0
F80007E0
F8000FC0
F8FFFFC0
F8FFFF80
F8FFFF80
F8FFFE00
F8FFF800
ENDCHAR
STARTCHAR 0133
ENCODING 307
SWIDTH 525 0
DWIDTH 21 0
BBX 15 37 3 -8
BITMAP
F01E
F01E
F01E
F01E
F01E
0000
0000
0000
F01E
F01E
F01E
F01E
F01E
F01E
F01E
F01E
F01E
F01E
F01E
F01E
F01E
F01E
F01E
F01E
F01E
F01E
F01E
F01E
F01E
001E
001E
003E
003E
07FE
07FC
07F8
07F0
ENDCHAR
STARTCHAR 0136
ENCODING 310
SWIDTH 700 0
DWIDTH 28 0
BBX 24 37 3 -10
BITMAP
F8003E
F8003E
F8007C
F8007C
F800F8
F800F8
F801F8
F801F0
F803F0
F803E0
F807C0
F81FC0
FFFF80
FFFE00
FFFF80
FFFFC0
F80FE0
F803E0
F801F0
F801F8
F800F8
F800FC
F8007C
F8007E
F8003E
F8003F
F8001F
000000
007C00
007C00
007C00
007C00
007C00
007800
01F800
01F800
01F000
ENDCHAR
STARTCHAR 0137
ENCODING 311
SWIDTH 600 0
DWIDTH 24 0
BBX 20 40 3 -10
BITMAP
F00000
F00000
F00000
F00000
F00000
F00000
F00000
F00000
F00000
F001E0
F003E0
F007C0
F007C0
F00F80
F00F00
F01F00
F03E00
FFFC00
FFF800
FFF800
FFFE00
F03E00
F01F00
F00F80
F00F80
F007C0
F003C0
F003E0
F001E0
F001F0
000000
00F000
00F000
00F000
00F000
00F000
01F000
03F000
03E000
03C000
ENDCHAR
STARTCHAR 0139
ENCODING 313
SWIDTH 625 0
DWIDTH 25 0
BBX 22 37 2 0
BITMAP
078000
0F8000
0F0000
1F0000
1E0000
3C0000
3C0000
780000
F80000
000000
7C0000
7C0000
7C0000
7C0000
7C0000
7C0000
7C0000
7C0000
7C0000
7C0000
7C0000
7C0000
7C0000
7C0000
7C0000
7C0000
7C0000
7C0000
7C0000
7C0000
7E0000
3F0000
3FFFFC
1FFFFC
1FFFFC
07FFFC
01FFFC
ENDCHAR
STARTCHAR 013A
ENCODING 314
SWIDTH 275 0
DWIDTH 11 0
BBX 9 36 2 0
BITMAP
0F80
0F00
1F00
1E00
3C00
7C00
7800
F800
F000
7800
7800
7800
7800
7800
7800
7800
7800
7800
7800
7800
7800
7800
7800
7800
7800
7800
7800
7800
7800
7800
7800
7800
7800
7800
7800
7800
ENDCHAR
STARTCHAR 013B
ENCODING 315
SWIDTH 625 0
DWIDTH 25 0
BBX 21 37 3 -10
BITMAP
F80000
F80000
F80000
F80000
F80000
F80000
F80000
F80000
F80000
F80000
F80000
F80000
F80000
F80000
F80000
F80000
F80000
F80000
F80000
F80000
FC0000
7E0000
7FFFF8
3FFFF8
3FFFF8
0FFFF8
03FFF8
000000
007800
007800
007800
007800
007800
00F800
01F000
01F000
01E000
ENDCHAR
STARTCHAR 013C
ENCODING 316
SWIDTH 250 0
DWIDTH 10 0
BBX 6 40 1 -10
BITMAP
3C
3C
3C
3C
3C
3C
3C
3C
3C
3C
3C
3C
3C
3C
3C
3C
3C
3C
3C
3C
3C
3C
3C
3C
3C
3C
3C
3C
3C
3C
00
3C
3C
3C
3C
3C
3C
FC
F8
F0
ENDCHAR
STARTCHAR 013D
ENCODING 317
SWIDTH 625 0
DWIDTH 25 0
BBX 21 30 3 0
BITMAP
000F80
000F80
000F80
F80F80
F80F80
F80F00
F83F00
F83F00
F83E00
F80000
F80000
F80000
F80000
F80000
F80000
F80000
F80000
F80000
F80000
F80000
F80000
F80000
F80000
F80000
7E0000
7FFFF8
3FFFF8
3FFFF8
0FFFF8
03FFF8
ENDCHAR
STARTCHAR 013E
ENCODING 318
SWIDTH 350 0
DWIDTH 14 0
BBX 12 30 3 0
BITMAP
F0F0
F0F0
F0F0
F0F0
F0F0
F0F0
F3F0
F3E0
F3C0
F000
F000
F000
F000
F000
F000
F000
F000
F000
F000
F000
F000
F000
F000
F000
F000
F000
F000
F000
F000
F000
ENDCHAR
STARTCHAR 0141
ENCODING 321
SWIDTH 625 0
DWIDTH 25 0
BBX 24 27 0 0
BITMAP
1F0000
1F0000
1F0000
1F0000
1F0600
1F3E00
1FFE00
1FFE00
1FF800
7FC000
FF0000
FF0000
FF0000
9F0000
1F0000
1F0000
1F0000
1F0000
1F0000
1F0000
1F8000
0FC000
0FFFFF
07FFFF
07FFFF
01FFFF
007FFF
ENDCHAR
STARTCHAR 0142
ENCODING 322
SWIDTH 375 0
DWIDTH 15 0
BBX 15 30 0 0
BITMAP
07C0
07C0
07C0
07C0
07C6
07DE
07FE
07FE
0FF8
3FE0
FFC0
FFC0
F7C0
87C0
07C0
07C0
07C0
07C0
07C0
07C0
07C0
07C0
07C0
07C0
07C0
07C0
07C0
07C0
07C0
07C0
ENDCHAR
STARTCHAR 0143
ENCODING 323
SWIDTH 875 0
DWIDTH 35 0
BBX 29 39 3 -1
BITMAP
0001F000
0001E000
0003E000
0003C000
0007C000
000F8000
000F0000
001F0000
001E0000
00000000
1F800000
3FE000F8
7FF000F8
7FF000F8
FFF800F8
F8F800F8
F87800F8
F87C00F8
F87C00F8
F83E00F8
F83E00F8
F81F00F8
F81F00F8
F80F80F8
F80F80F8
F80F80F8
F807C0F8
F807C0F8
F803E0F8
F803E0F8
F801F0F8
F801F0F8
F801F8F8
F800F8F8
F800FFF8
F8007FF8
F8007FF0
F8003FE0
00000FC0
ENDCHAR
STARTCHAR 0144
ENCODING 324
SWIDTH 700 0
DWIDTH 28 0
BBX 22 31 3 0
BITMAP
001F00
003E00
003E00
007C00
007800
00F800
00F000
01F000
01E000
000000
7FFF00
FFFFC0
FFFFF0
FFFFF8
F001F8
F0007C
F0007C
F0003C
F0003C
F0003C
F0003C
F0003C
F0003C
F0003C
F0003C
F0003C
F0003C
F0003C
F0003C
F0003C
F0003C
ENDCHAR
STARTCHAR 0145
ENCODING 325
SWIDTH 875 0
DWIDTH 35 0
BBX 29 39 3 -11
BITMAP
1F800000
3FE000F8
7FF000F8
7FF000F8
FFF800F8
F8F800F8
F87800F8
F87C00F8
F87C00F8
F83E00F8
F83E00F8
F81F00F8
F81F00F8
F80F80F8
F80F80F8
F80F80F8
F807C0F8
F807C0F8
F803E0F8
F803E0F8
F801F0F8
F801F0F8
F801F8F8
F800F8F8
F800FFF8
F8007FF8
F8007FF0
F8003FE0
00000FC0
001F0000
001F0000
001F0000
001F0000
001F0000
001F0000
001E0000
007E0000
007E0000
00780000
ENDCHAR
STARTCHAR 0146
ENCODING 326
SWIDTH 700 0
DWIDTH 28 0
BBX 22 31 3 -10
BITMAP
7FFF00
FFFFC0
FFFFF0
FFFFF8
F001F8
F0007C
F0007C
F0003C
F0003C
F0003C
F0003C
F0003C
F0003C
F0003C
F0003C
F0003C
F0003C
F0003C
F0003C
F0003C
F0003C
000000
007800
007800
007800
007800
007800
007800
01F800
01F800
01F000
ENDCHAR
STARTCHAR 0147
ENCODING 327
SWIDTH 875 0
DWIDTH 35 0
BBX 29 39 3 -1
BITMAP
01E03E00
01F03C00
00F87C00
00787800
007CF800
003DF000
003FE000
001FE000
000FC000
00000000
1F800000
3FE000F8
7FF000F8
7FF000F8
FFF800F8
F8F800F8
F87800F8
F87C00F8
F87C00F8
F83E00F8
F83E00F8
F81F00F8
F81F00F8
F80F80F8
F80F80F8
F80F80F8
F807C0F8
F807C0F8
F803E0F8
F803E0F8
F801F0F8
F801F0F8
F801F8F8
F800F8F8
F800FFF8
F8007FF8
F8007FF0
F8003FE0
00000FC0
ENDCHAR
STARTCHAR 0148
ENCODING 328
SWIDTH 700 0
DWIDTH 28 0
BBX 22 31 3 0
BITMAP
1F03C0
0F07C0
0F8780
07CF80
03CF00
03FF00
01FE00
00FC00
000000
000000
7FFF00
FFFFC0
FFFFF0
FFFFF8
F001F8
F0007C
F0007C
F0003C
F0003C
F0003C
F0003C
F0003C
F0003C
F0003C
F0003C
F0003C
F0003C
F0003C
F0003C
F0003C
F0003C
ENDCHAR
STARTCHAR 014A
ENCODING 330
SWIDTH 800 0
DWIDTH 32 0
BBX 25 36 3 -9
BITMAP
7FFFC000
FFFFF000
FFFFFC00
FFFFFE00
FFFFFF00
F8007F00
F8001F80
F8000F80
F8000F80
F8000F80
F8000F80
F8000F80
F8000F80
F8000F80
F8000F80
F8000F80
F8000F80
F8000F80
F8000F80
F8000F80
F8000F80
F8000F80
F8000F80
F8000F80
F8000F80
F8000F80
F8000F80
00000F80
00000F80
00000F80
00001F80
000FFF80
000FFF00
000FFE00
000FFC00
000FE000
ENDCHAR
STARTCHAR 014B
ENCODING 331
SWIDTH 700 0
DWIDTH 28 0
BBX 22 29 3 -8
BITMAP
7FFF00
FFFFC0
FFFFF0
FFFFF8
F001F8
F0007C
F0007C
F0003C
F0003C
F0003C
F0003C
F0003C
F0003C
F0003C
F0003C
F0003C
F0003C
F0003C
F0003C
F0003C
F0003C
00003C
00003C
00003C
00007C
000FFC
000FFC
000FF8
000FF0
ENDCHAR
STARTCHAR 014C
ENCODING 332
SWIDTH 825 0
DWIDTH 33 0
BBX 28 34 2 0
BITMAP
07FFFE00
07FFFE00
07FFFE00
07FFFE00
00000000
00000000
00000000
00FFF000
03FFFE00
0FFFFF00
1FFFFF80
3FFFFFC0
3F800FE0
7E0003E0
7C0003E0
7C0001F0
780001F0
F80001F0
F80001F0
F80000F0
F80000F0
F80000F0
F80001F0
F80001F0
780001F0
7C0001F0
7C0003F0
7E0003E0
3F000FE0
3FFFFFC0
1FFFFF80
0FFFFF00
03FFFE00
00FFF000
ENDCHAR
STARTCHAR 014D
ENCODING 333
SWIDTH 675 0
DWIDTH 27 0
BBX 23 29 2 0
BITMAP
3FFFF8
3FFFF8
3FFFF8
3FFFF8
000000
000000
000000
000000
07FF80
0FFFE0
3FFFF0
3FFFF8
7E00FC
7C007C
F8003C
F8003E
F0003E
F0003E
F0003E
F0003E
F0003E
F8003E
F8003C
7C007C
7E00FC
3FFFF8
1FFFF0
0FFFE0
03FF80
ENDCHAR
STARTCHAR 0150
ENCODING 336
SWIDTH 825 0
DWIDTH 33 0
BBX 28 37 2 0
BITMAP
003E1E00
003C3E00
007C3C00
00F87C00
00F07800
01F0F800
01E0F000
03E1E000
03C1E000
00000000
00FFF000
03FFFE00
0FFFFF00
1FFFFF80
3FFFFFC0
3F800FE0
7E0003E0
7C0003E0
7C0001F0
780001F0
F80001F0
F80001F0
F80000F0
F80000F0
F80000F0
F80001F0
F80001F0
780001F0
7C0001F0
7C0003F0
7E0003E0
3F000FE0
3FFFFFC0
1FFFFF80
0FFFFF00
03FFFE00
00FFF000
ENDCHAR
STARTCHAR 0151
ENCODING 337
SWIDTH 675 0
DWIDTH 27 0
BBX 23 31 2 0
BITMAP
01F0F8
01E1F0
03E1E0
03C3E0
0783C0
0F87C0
0F0780
1F0F00
1E0F00
000000
07FF80
0FFFE0
3FFFF0
3FFFF8
7E00FC
7C007C
F8003C
F8003E
F0003E
F0003E
F0003E
F0003E
F0003E
F8003E
F8003C
7C007C
7E00FC
3FFFF8
1FFFF0
0FFFE0
03FF80
ENDCHAR
STARTCHAR 0152
ENCODING 338
SWIDTH 1175 0
DWIDTH 47 0
BBX 43 27 2 0
BITMAP
00FFFFFFFFC0
03FFFFFFFFC0
0FFFFFFFFFC0
1FFFFFFFFFC0
3FFFFFFFFFC0
3F000FE00000
7E0003E00000
7C0003F00000
7C0001F00000
780001F00000
F80001F00000
F80000FFFFC0
F80000FFFFC0
F80000FFFFC0
F80000FFFFC0
F80001F00000
F80001F00000
780001F00000
7C0001F00000
7C0003E00000
7E0007E00000
3F000FE00000
1FFFFFFFFFE0
1FFFFFFFFFE0
0FFFFFFFFFE0
03FFFFFFFFE0
00FFFFFFFFE0
ENDCHAR
STARTCHAR 0153
ENCODING 339
SWIDTH 1100 0
DWIDTH 44 0
BBX 40 21 2 0
BITMAP
07FF83FFF0
0FFFE7FFFC
3FFFFFFFFE
3FFFFFFFFE
7E00FF001F
7C007E000F
F8003E000F
F8003E000F
F0003E001F
F0003FFFFE
F0003FFFFE
F0003FFFF8
F0003E0000
F8003E0000
F8003E0000
7C007E0000
7E00FF0000
3FFFFFFFFE
1FFFFFFFFE
0FFFE7FFFE
03FF81FFFE
ENDCHAR
STARTCHAR 0154
ENCODING 340
SWIDTH 725 0
DWIDTH 29 0
BBX 24 37 3 0
BITMAP
001F00
001E00
003E00
003C00
007C00
007800
00F000
00F000
01E000
000000
FFFFC0
FFFFF0
FFFFF8
FFFFFC
FFFFFE
00003E
00003E
00001E
00001E
00001E
00003E
00007E
3FFFFC
7FFFFC
FFFFF8
FFFFE0
FFFFC0
F807E0
F803E0
F803F0
F801F0
F800F8
F800F8
F8007C
F8007E
F8003E
F8001F
ENDCHAR
STARTCHAR 0155
ENCODING 341
SWIDTH 475 0
DWIDTH 19 0
BBX 14 31 3 0
BITMAP
00F0
01F0
01E0
03E0
03C0
0780
0780
0F00
0F00
0000
3FFC
7FFC
7FFC
FFFC
F800
F000
F000
F000
F000
F000
F000
F000
F000
F000
F000
F000
F000
F000
F000
F000
F000
ENDCHAR
STARTCHAR 0156
ENCODING 342
SWIDTH 725 0
DWIDTH 29 0
BBX 24 37 3 -10
BITMAP
FFFFC0
FFFFF0
FFFFF8
FFFFFC
FFFFFE
00003E
00003E
00001E
00001E
00001E
00003E
00007E
3FFFFC
7FFFFC
FFFFF8
FFFFE0
FFFFC0
F807E0
F803E0
F803F0
F801F0
F800F8
F800F8
F8007C
F8007E
F8003E
F8001F
000000
007C00
007C00
007C00
007C00
007C00
007800
01F800
01F800
01F000
ENDCHAR
STARTCHAR 0157
ENCODING 343
SWIDTH 475 0
DWIDTH 19 0
BBX 16 31 1 -10
BITMAP
0FFF
1FFF
1FFF
3FFF
3E00
3C00
3C00
3C00
3C00
3C00
3C00
3C00
3C00
3C00
3C00
3C00
3C00
3C00
3C00
3C00
3C00
0000
3C00
3C00
3C00
3C00
3C00
3C00
FC00
F800
F000
ENDCHAR
STARTCHAR 0158
ENCODING 344
SWIDTH 725 0
DWIDTH 29 0
BBX 24 37 3 0
BITMAP
1F03E0
0F03C0
0F87C0
078780
07CF80
03CF00
03FF00
01FE00
00FC00
000000
FFFFC0
FFFFF0
FFFFF8
FFFFFC
FFFFFE
00003E
00003E
00001E
00001E
00001E
00003E
00007E
3FFFFC
7FFFFC
FFFFF8
FFFFE0
FFFFC0
F807E0
F803E0
F803F0
F801F0
F800F8
F800F8
F8007C
F8007E
F8003E
F8001F
ENDCHAR
STARTCHAR 0159
ENCODING 345
SWIDTH 500 0
DWIDTH 20 0
BBX 15 31 3 0
BITMAP
F81E
783E
7C3C
3C7C
3E78
1FF8
0FF0
07E0
0000
0000
3FFC
7FFC
7FFC
FFFC
F800
F000
F000
F000
F000
F000
F000
F000
F000
F000
F000
F000
F000
F000
F000
F000
F000
ENDCHAR
STARTCHAR 015A
ENCODING 346
SWIDTH 700 0
DWIDTH 28 0
BBX 24 37 2 0
BITMAP
000F80
000F00
001F00
001E00
003E00
003C00
007800
007800
00F000
000000
07FFFC
1FFFFC
3FFFFC
7FFFFC
7FFFFC
FC0000
F80000
F80000
F80000
F80000
FC0000
7FFFE0
7FFFF8
3FFFFC
0FFFFE
0000FF
00001F
00001F
00001F
00001F
00001F
00003F
7FFFFF
7FFFFE
7FFFFC
7FFFF8
7FFFE0
ENDCHAR
STARTCHAR 015B
ENCODING 347
SWIDTH 575 0
DWIDTH 23 0
BBX 19 31 2 0
BITMAP
003E00
003C00
007C00
00F800
00F000
01F000
01E000
03E000
03C000
000000
1FFFE0
3FFFE0
7FFFE0
FFFFE0
F80000
F00000
F00000
F00000
FFF800
7FFF80
3FFFC0
0FFFE0
0003E0
0001E0
0001E0
0001E0
0003E0
FFFFE0
FFFFC0
FFFFC0
FFFF00
ENDCHAR
STARTCHAR 015E
ENCODING 350
SWIDTH 700 0
DWIDTH 28 0
BBX 24 37 2 -10
BITMAP
07FFFC
1FFFFC
3FFFFC
7FFFFC
7FFFFC
FC0000
F80000
F80000
F80000
F80000
FC0000
7FFFE0
7FFFF8
3FFFFC
0FFFFE
0000FF
00001F
00001F
00001F
00001F
00001F
00003F
7FFFFF
7FFFFE
7FFFFC
7FFFF8
7FFFE0
000000
003C00
003C00
003C00
003C00
003C00
003C00
00FC00
00F800
00F000
ENDCHAR
STARTCHAR 015F
ENCODING 351
SWIDTH 575 0
DWIDTH 23 0
BBX 19 31 2 -10
BITMAP
1FFFE0
3FFFE0
7FFFE0
FFFFE0
F80000
F00000
F00000
F00000
FFF800
7FFF80
3FFFC0
0FFFE0
0003E0
0001E0
0001E0
0001E0
0003E0
FFFFE0
FFFFC0
FFFFC0
FFFF00
000000
00F000
00F000
00F000
00F000
00F000
01F000
03F000
03E000
03C000
ENDCHAR
STARTCHAR 0160
ENCODING 352
SWIDTH 700 0
DWIDTH 28 0
BBX 24 37 2 0
BITMAP
0F80F0
0781F0
07C1E0
03C3E0
01E7C0
01F780
00FF80
00FF00
007E00
000000
07FFFC
1FFFFC
3FFFFC
7FFFFC
7FFFFC
FC0000
F80000
F80000
F80000
F80000
FC0000
7FFFE0
7FFFF8
3FFFFC
0FFFFE
0000FF
00001F
00001F
00001F
00001F
00001F
00003F
7FFFFF
7FFFFE
7FFFFC
7FFFF8
7FFFE0
ENDCHAR
STARTCHAR 0161
ENCODING 353
SWIDTH 575 0
DWIDTH 23 0
BBX 19 31 2 0
BITMAP
1E07C0
1F0780
0F0F00
0F9F00
079E00
07FE00
03FC00
01F800
000000
000000
1FFFE0
3FFFE0
7FFFE0
FFFFE0
F80000
F00000
F00000
F00000
FFF800
7FFF80
3FFFC0
0FFFE0
0003E0
0001E0
0001E0
0001E0
0003E0
FFFFE0
FFFFC0
FFFFC0
FFFF00
ENDCHAR
STARTCHAR 0164
ENCODING 356
SWIDTH 575 0
DWIDTH 23 0
BBX 21 37 1 0
BITMAP
3E03C0
1F07C0
0F0780
0F8F80
078F00
07DF00
03FE00
03FC00
00F800
000000
FFFFF8
FFFFF8
FFFFF8
FFFFF8
FFFFF8
00F800
00F800
00F800
00F800
00F800
00F800
00F800
00F800
00F800
00F800
00F800
00F800
00F800
00F800
00F800
00F800
00F800
00F800
00F800
00F800
00F800
00F800
ENDCHAR
STARTCHAR 0165
ENCODING 357
SWIDTH 500 0
DWIDTH 20 0
BBX 20 30 1 0
BITMAP
0001F0
0001F0
0001F0
0001F0
1E01F0
1E01F0
1E07E0
1E07E0
1E07C0
FFF800
FFF800
FFF800
FFF800
1E0000
1E0000
1E0000
1E0000
1E0000
1E0000
1E0000
1E0000
1E0000
1E0000
1E0000
1E0000
1F0000
1FF800
0FF800
0FF800
03F800
ENDCHAR
STARTCHAR 0166
ENCODING 358
SWIDTH 575 0
DWIDTH 23 0
BBX 21 27 1 0
BITMAP
FFFFF8
FFFFF8
FFFFF8
FFFFF8
FFFFF8
00F800
00F800
00F800
00F800
00F800
00F800
00F800
00F800
7FFFF0
7FFFF0
7FFFF0
7FFFF0
00F800
00F800
00F800
00F800
00F800
00F800
00F800
00F800
00F800
00F800
ENDCHAR
STARTCHAR 0167
ENCODING 359
SWIDTH 375 0
DWIDTH 15 0
BBX 13 26 1 0
BITMAP
1E00
1E00
1E00
1E00
1E00
FFF8
FFF8
FFF8
FFF8
1E00
1E00
1E00
1E00
FFF8
FFF8
FFF8
FFF8
1E00
1E00
1E00
1E00
1F00
1FF8
0FF8
0FF8
03F8
ENDCHAR
STARTCHAR 0168
ENCODING 360
SWIDTH 725 0
DWIDTH 29 0
BBX 23 35 3 0
BITMAP
3FFFF8
3FFFF8
3FFFF8
3FFFF8
000000
000000
000000
000000
F8001E
F8001E
F8001E
F8001E
F8001E
F8001E
F8001E
F8001E
F8001E
F8001E
F8001E
F8001E
F8001E
F8001E
F8001E
F8001E
F8001E
F8001E
F8001E
F8003E
F8003E
FC007E
7FFFFE
7FFFFC
3FFFF8
1FFFF0
07FFC0
ENDCHAR
STARTCHAR 0169
ENCODING 361
SWIDTH 700 0
DWIDTH 28 0
BBX 22 29 3 0
BITMAP
3FFFF0
3FFFF0
3FFFF0
3FFFF0
000000
000000
000000
000000
F0003C
F0003C
F0003C
F0003C
F0003C
F0003C
F0003C
F0003C
F0003C
F0003C
F0003C
F0003C
F0003C
F0003C
F8003C
F8007C
7E01F8
7FFFF8
3FFFF0
1FFFE0
07FF80
ENDCHAR
STARTCHAR 016A
ENCODING 362
SWIDTH 725 0
DWIDTH 29 0
BBX 23 35 3 0
BITMAP
3FFFF8
3FFFF8
3FFFF8
3FFFF8
000000
000000
000000
000000
F8001E
F8001E
F8001E
F8001E
F8001E
F8001E
F8001E
F8001E
F8001E
F8001E
F8001E
F8001E
F8001E
F8001E
F8001E
F8001E
F8001E
F8001E
F8001E
F8003E
F8003E
FC007E
7FFFFE
7FFFFC
3FFFF8
1FFFF0
07FFC0
ENDCHAR
STARTCHAR 016B
ENCODING 363
SWIDTH 700 0
DWIDTH 28 0
BBX 22 29 3 0
BITMAP
3FFFF0
3FFFF0
3FFFF0
3FFFF0
000000
000000
000000
000000
F0003C
F0003C
F0003C
F0003C
F0003C
F0003C
F0003C
F0003C
F0003C
F0003C
F0003C
F0003C
F0003C
F0003C
F8003C
F8007C
7E01F8
7FFFF8
3FFFF0
1FFFE0
07FF80
ENDCHAR
STARTCHAR 016E
ENCODING 366
SWIDTH 725 0
DWIDTH 29 0
BBX 23 37 3 0
BITMAP
00FE00
01FF00
018380
038180
030180
038180
038380
01FF00
00FE00
000000
F8001E
F8001E
F8001E
F8001E
F8001E
F8001E
F8001E
F8001E
F8001E
F8001E
F8001E
F8001E
F8001E
F8001E
F8001E
F8001E
F8001E
F8001E
F8001E
F8003E
F8003E
FC007E
7FFFFE
7FFFFC
3FFFF8
1FFFF0
07FFC0
ENDCHAR
STARTCHAR 016F
ENCODING 367
SWIDTH 700 0
DWIDTH 28 0
BBX 22 32 3 0
BITMAP
01FE00
03FF00
030300
030300
030300
030300
030700
03FF00
00FE00
000000
000000
F0003C
F0003C
F0003C
F0003C
F0003C
F0003C
F0003C
F0003C
F0003C
F0003C
F0003C
F0003C
F0003C
F0003C
F8003C
F8007C
7E01F8
7FFFF8
3FFFF0
1FFFE0
07FF80
ENDCHAR
STARTCHAR 0170
ENCODING 368
SWIDTH 725 0
DWIDTH 29 0
BBX 23 37 3 0
BITMAP
01F0F8
01E0F0
03E1F0
03C1E0
07C3E0
0783C0
0F8780
0F0F80
1E0F00
000000
F8001E
F8001E
F8001E
F8001E
F8001E
F8001E
F8001E
F8001E
F8001E
F8001E
F8001E
F8001E
F8001E
F8001E
F8001E
F8001E
F8001E
F8001E
F8001E
F8003E
F8003E
FC007E
7FFFFE
7FFFFC
3FFFF8
1FFFF0
07FFC0
ENDCHAR
STARTCHAR 0171
ENCODING 369
SWIDTH 700 0
DWIDTH 28 0
BBX 22 31 3 0
BITMAP
01F0F0
03E1F0
03C1E0
07C3E0
0787C0
0F8780
0F0F80
1E0F00
1E1F00
000000
F0003C
F0003C
F0003C
F0003C
F0003C
F0003C
F0003C
F0003C
F0003C
F0003C
F0003C
F0003C
F0003C
F0003C
F8003C
F8007C
7E01F8
7FFFF8
3FFFF0
1FFFE0
07FF80
ENDCHAR
STARTCHAR 0172
ENCODING 370
SWIDTH 725 0
DWIDTH 29 0
BBX 23 38 3 -11
BITMAP
F8001E
F8001E
F8001E
F8001E
F8001E
F8001E
F8001E
F8001E
F8001E
F8001E
F8001E
F8001E
F8001E
F8001E
F8001E
F8001E
F8001E
F8001E
F8001E
F8003E
F8003E
FC007E
7FFFFE
7FFFFC
3FFFF8
1FFFF0
07FFC0
001C00
00E000
01C000
038000
078000
078000
07C000
07FE00
07FE00
03FE00
00FE00
ENDCHAR
STARTCHAR 0173
ENCODING 371
SWIDTH 700 0
DWIDTH 28 0
BBX 22 32 3 -11
BITMAP
F0003C
F0003C
F0003C
F0003C
F0003C
F0003C
F0003C
F0003C
F0003C
F0003C
F0003C
F0003C
F0003C
F0003C
F8003C
F8007C
7E01F8
7FFFF8
3FFFF0
1FFFE0
07FF80
003800
00E000
038000
070000
0F0000
0F0000
0F8000
0FFE00
07FE00
07FE00
01FE00
ENDCHAR
STARTCHAR 0174
ENCODING 372
SWIDTH 1050 0
DWIDTH 42 0
BBX 40 38 1 -1
BITMAP
00007E0000
0000FF0000
0001FF8000
0001E78000
0003E7C000
0003C3C000
0007C3E000
000781E000
000F81F000
00007E0000
F800FF001F
F801FF801E
7C03FF803E
7C03FFC03E
7C03C7C03E
7C03C3C03E
7C07C3C03E
7C07C3C03E
7C07C3E03E
7C07C3E03C
7C0783E03C
3C0F81E07C
3C0F81E07C
3E0F81F07C
3E0F81F07C
3E0F01F07C
3E0F00F07C
3E1F00F07C
3E1F00F078
3E1F00F878
3E1F00F878
1E1E00F8F8
1E3E0078F8
1FFE007FF8
1FFE007FF0
0FFC003FF0
0FF8003FE0
03F0000FC0
ENDCHAR
STARTCHAR 0175
ENCODING 373
SWIDTH 975 0
DWIDTH 39 0
BBX 37 32 1 -1
BITMAP
0001FC0000
0003FE0000
0003FE0000
0007DF0000
00078F0000
000F878000
001F07C000
001E03C000
0000000000
F800F800F8
F803FE00F8
F807FF00F8
7807FF00F0
78078F00F0
780F8F00F0
780F8F81F0
7C0F0781F0
7C0F0781F0
7C0F0781F0
7C1F0781F0
3C1F07C1E0
3C1E03C1E0
3C1E03C1E0
3C1E03C3E0
3C3E03E3E0
3E3C03E3E0
3E3C01E3E0
3E3C01E3C0
1FFC01FFC0
1FF800FFC0
0FF800FF80
07E0003E00
ENDCHAR
STARTCHAR 0176
ENCODING 374
SWIDTH 700 0
DWIDTH 28 0
BBX 26 37 1 0
BITMAP
003F0000
007F8000
00FF8000
00F7C000
01E3C000
01E1E000
03C1F000
07C0F000
0780F800
00000000
FC000FC0
7C001F80
7E001F00
3F003F00
1F007E00
1F807C00
0F80F800
07C1F800
03E1F000
03E3E000
01F7E000
00FFC000
00FF8000
007F0000
003F0000
003E0000
003E0000
003E0000
003E0000
003E0000
003E0000
003E0000
003E0000
003E0000
003E0000
003E0000
003E0000
ENDCHAR
STARTCHAR 0177
ENCODING 375
SWIDTH 650 0
DWIDTH 26 0
BBX 24 39 1 -8
BITMAP
007C00
00FF00
01FF00
03EF80
03C780
07C7C0
0783E0
0F81E0
0F01F0
000000
F8001F
F8001E
78003E
7C003E
3C003C
3E007C
3E0078
1E00F8
1F00F0
0F01F0
0F81F0
0F81E0
0783E0
07C3C0
03C7C0
03E780
03FF80
01FF00
01FF00
00FF00
001E00
003E00
003C00
007C00
007800
00F800
00F800
00F000
01F000
ENDCHAR
STARTCHAR 0178
ENCODING 376
SWIDTH 700 0
DWIDTH 28 0
BBX 26 35 1 0
BITMAP
03C1F000
03C1F000
03C1F000
03C1F000
03C1F000
00000000
00000000
00000000
FC000FC0
7C001F80
7E001F00
3F003F00
1F007E00
1F807C00
0F80F800
07C1F800
03E1F000
03E3E000
01F7E000
00FFC000
00FF8000
007F0000
003F0000
003E0000
003E0000
003E0000
003E0000
003E0000
003E0000
003E0000
003E0000
003E0000
003E0000
003E0000
003E0000
ENDCHAR
STARTCHAR 0179
ENCODING 377
SWIDTH 750 0
DWIDTH 30 0
BBX 25 37 2 0
BITMAP
0007C000
00078000
000F8000
000F0000
001F0000
001E0000
003C0000
007C0000
00780000
00000000
7FFFFC00
7FFFFF00
7FFFFF80
7FFFFF80
7FFFFF80
00000F80
00000780
00000F80
00001F80
00007F80
0001FF00
000FFE00
003FF800
00FFC000
07FF0000
1FFC0000
3FE00000
7F800000
7E000000
F8000000
F8000000
F8000000
FFFFFF80
7FFFFF80
7FFFFF80
3FFFFF80
0FFFFF80
ENDCHAR
STARTCHAR 017A
ENCODING 378
SWIDTH 625 0
DWIDTH 25 0
BBX 21 31 2 0
BITMAP
001E00
003E00
007C00
007800
00F800
00F000
01F000
01E000
03E000
000000
7FFFE0
7FFFF0
7FFFF0
7FFFF8
000078
000078
0000F8
0003F0
001FF0
00FFC0
07FF00
1FF800
7FC000
7E0000
F80000
F00000
F00000
FFFFF8
7FFFF8
7FFFF8
1FFFF8
ENDCHAR
STARTCHAR 017B
ENCODING 379
SWIDTH 750 0
DWIDTH 30 0
BBX 25 35 2 0
BITMAP
001E0000
001E0000
001E0000
001E0000
001E0000
00000000
00000000
00000000
7FFFFC00
7FFFFF00
7FFFFF80
7FFFFF80
7FFFFF80
00000F80
00000780
00000F80
00001F80
00007F80
0001FF00
000FFE00
003FF800
00FFC000
07FF0000
1FFC0000
3FE00000
7F800000
7E000000
F8000000
F8000000
F8000000
FFFFFF80
7FFFFF80
7FFFFF80
3FFFFF80
0FFFFF80
ENDCHAR
STARTCHAR 017C
ENCODING 380
SWIDTH 625 0
DWIDTH 25 0
BBX 21 29 2 0
BITMAP
007800
007800
007800
007800
007800
000000
000000
000000
7FFFE0
7FFFF0
7FFFF0
7FFFF8
000078
000078
0000F8
0003F0
001FF0
00FFC0
07FF00
1FF800
7FC000
7E0000
F80000
F00000
F00000
FFFFF8
7FFFF8
7FFFF8
1FFFF8
ENDCHAR
STARTCHAR 017D
ENCODING 381
SWIDTH 750 0
DWIDTH 30 0
BBX 25 37 2 0
BITMAP
07C0F800
03C0F000
03E1F000
01E1E000
01F3E000
00F3C000
00FFC000
007F8000
003F0000
00000000
7FFFFC00
7FFFFF00
7FFFFF80
7FFFFF80
7FFFFF80
00000F80
00000780
00000F80
00001F80
00007F80
0001FF00
000FFE00
003FF800
00FFC000
07FF0000
1FFC0000
3FE00000
7F800000
7E000000
F8000000
F8000000
F8000000
FFFFFF80
7FFFFF80
7FFFFF80
3FFFFF80
0FFFFF80
ENDCHAR
STARTCHAR 017E
ENCODING 382
SWIDTH 625 0
DWIDTH 25 0
BBX 21 31 2 0
BITMAP
1E07C0
1F0780
0F0F80
078F00
07DF00
03FE00
03FE00
01FC00
000000
000000
7FFFE0
7FFFF0
7FFFF0
7FFFF8
000078
000078
0000F8
0003F0
001FF0
00FFC0
07FF00
1FF800
7FC000
7E0000
F80000
F00000
F00000
FFFFF8
7FFFF8
7FFFF8
1FFFF8
ENDCHAR
STARTCHAR 0180
ENCODING 384
SWIDTH 700 0
DWIDTH 28 0
BBX 23 30 3 0
BITMAP
F00000
FFFFC0
FFFFC0
FFFFC0
FFFFC0
F00000
F00000
F00000
F00000
FFFF80
FFFFE0
FFFFF0
FFFFF8
F000FC
F0007C
F0003C
F0003C
F0003E
F0003E
F0003E
F0003E
F0003E
F0003C
F8003C
F8007C
7E00FC
7FFFF8
3FFFF0
1FFFE0
07FF80
ENDCHAR
STARTCHAR 0181
ENCODING 385
SWIDTH 900 0
DWIDTH 36 0
BBX 34 27 0 0
BITMAP
1FFFFFF800
3FFFFFFE00
7FFFFFFF00
7FFFFFFF80
F81FFFFF80
F81E000F80
F81E0007C0
F81E0007C0
F81E0007C0
F81E000780
001E000F80
001FFFFF00
001FFFFE00
001FFFFE00
001FFFFF00
001E001F80
001E000F80
001E0007C0
001E0007C0
001E0007C0
001E0007C0
001E000FC0
001FFFFF80
001FFFFF80
001FFFFF00
001FFFFE00
001FFFF800
ENDCHAR
STARTCHAR 0187
ENCODING 391
SWIDTH 750 0
DWIDTH 30 0
BBX 28 32 2 0
BITMAP
000003F0
00000FF0
00001FF0
00001FF0
00003E00
00FFFE00
03FFFC00
0FFFFC00
1FFFFC00
3FFFFC00
3F803C00
7E000000
7C000000
7C000000
78000000
F8000000
F8000000
F8000000
F8000000
F8000000
F8000000
F8000000
78000000
7C000000
7C000000
7E000000
3F000000
1FFFFE00
1FFFFE00
0FFFFE00
03FFFE00
00FFFE00
ENDCHAR
STARTCHAR 0188
ENCODING 392
SWIDTH 675 0
DWIDTH 27 0
BBX 25 26 2 0
BITMAP
00000F80
00007F80
0000FF80
0000FF80
0001F800
07FFF000
0FFFE000
3FFFE000
3FFFE000
7E01E000
7C01E000
F8000000
F8000000
F0000000
F0000000
F0000000
F0000000
F0000000
F8000000
F8000000
7C000000
7E000000
3FFFF000
1FFFF000
0FFFF000
03FFF000
ENDCHAR
STARTCHAR 018A
ENCODING 394
SWIDTH 925 0
DWIDTH 37 0
BBX 34 27 0 0
BITMAP
1FFFFFC000
3FFFFFF800
7FFFFFFC00
7FFFFFFE00
F83FFFFF00
F83E003F80
F83E000F80
F83E000F80
F83E0007C0
F83E0007C0
003E0007C0
003E0007C0
003E0003C0
003E0003C0
003E0003C0
003E0007C0
003E0007C0
003E0007C0
003E0007C0
003E000F80
003E001F80
003E003F80
003FFFFF00
003FFFFE00
003FFFFC00
003FFFF800
001FFFC000
ENDCHAR
STARTCHAR 018E
ENCODING 398
SWIDTH 700 0
DWIDTH 28 0
BBX 23 27 3 0
BITMAP
FFFF80
FFFFF0
FFFFF8
FFFFF8
FFFFFC
0000FC
00007C
00007C
00007C
00007C
0000FC
FFFFF8
FFFFF0
FFFFE0
FFFFF8
0001F8
00007C
00007C
00003C
00007E
00007C
0000FC
FFFFFC
FFFFFC
FFFFF8
FFFFF0
FFFF80
ENDCHAR
STARTCHAR 018F
ENCODING 399
SWIDTH 725 0
DWIDTH 29 0
BBX 25 27 2 0
BITMAP
3FFF8000
3FFFF000
3FFFF800
3FFFFC00
3FFFFE00
00007E00
00003F00
00001F00
00000F80
00000F80
00000F80
0FFFFF80
3FFFFF80
3FFFFF80
7FFFFF80
7C000F80
F8000F80
F8000F80
F8001F00
F8001F00
F8003F00
7C007E00
7FFFFE00
7FFFFC00
3FFFF800
1FFFF000
07FF8000
ENDCHAR
STARTCHAR 0192
ENCODING 402
SWIDTH 375 0
DWIDTH 15 0
BBX 16 38 -2 -8
BITMAP
007F
01FF
01FF
03FF
03E0
03C0
03C0
03C0
03C0
1FFF
1FFF
1FFF
1FFF
03C0
03C0
03C0
03C0
03C0
03C0
03C0
03C0
03C0
03C0
03C0
03C0
03C0
03C0
03C0
03C0
03C0
03C0
03C0
03C0
07C0
FFC0
FF80
FF80
FE00
ENDCHAR
STARTCHAR 0194
ENCODING 404
SWIDTH 775 0
DWIDTH 31 0
BBX 29 37 1 -10
BITMAP
F80000F8
7C0001F8
7E0001F0
3E0003E0
1F0003E0
1F0007C0
0F800FC0
0FC00F80
07C01F00
03E01F00
03E03E00
01F07C00
00F87C00
00F8F800
007DF800
007DF000
003FE000
001FE000
001FC000
000F8000
000FC000
001FC000
001FE000
003FE000
007DF000
007CF800
00F8F800
00F07800
00F07C00
01E03C00
01E03C00
01E01C00
01E01C00
01E01C00
00F03C00
00FFF800
003FF000
ENDCHAR
STARTCHAR 0198
ENCODING 408
SWIDTH 775 0
DWIDTH 31 0
BBX 28 28 3 0
BITMAP
00000FF0
F8001FF0
F8003FF0
F8007FF0
F8007C00
F800FC00
F800F800
F801F800
F801F000
F803F000
F803E000
F807C000
F81FC000
FFFF8000
FFFE0000
FFFF8000
FFFFC000
F80FE000
F803E000
F801F000
F801F800
F800F800
F800FC00
F8007C00
F8007E00
F8003E00
F8003F00
F8001F00
ENDCHAR
STARTCHAR 0199
ENCODING 409
SWIDTH 600 0
DWIDTH 24 0
BBX 20 30 3 0
BITMAP
1FC000
3FC000
7FC000
7FC000
F80000
F80000
F00000
F00000
F00000
F001E0
F003E0
F003C0
F007C0
F00F80
F00F00
F01F00
F03E00
FFFC00
FFF800
FFF800
FFFE00
F03E00
F01F00
F00F80
F00F80
F007C0
F003C0
F003E0
F001E0
F001F0
ENDCHAR
STARTCHAR 019D
ENCODING 413
SWIDTH 875 0
DWIDTH 35 0
BBX 34 37 -2 -9
BITMAP
00FC000000
01FF0007C0
03FF8007C0
03FF8007C0
07FFC007C0
07C7C007C0
07C3C007C0
07C3E007C0
07C3E007C0
07C1F007C0
07C1F007C0
07C0F807C0
07C0F807C0
07C07C07C0
07C07C07C0
07C07C07C0
07C03E07C0
07C03E07C0
07C01F07C0
07C01F07C0
07C00F87C0
07C00F87C0
07C00FC7C0
07C007C7C0
07C007FFC0
07C003FFC0
07C003FF80
07C001FF00
07C0007E00
07C0000000
07C0000000
07C0000000
0FC0000000
FF80000000
FF80000000
FF00000000
FE00000000
ENDCHAR
STARTCHAR 01A0
ENCODING 416
SWIDTH 825 0
DWIDTH 33 0
BBX 31 34 2 0
BITMAP
0000003E
0000003E
0000003E
0000003E
0000003E
0000003E
0000003C
00FFFFFC
03FFFFFC
0FFFFFF8
1FFFFFF0
3FFFFFC0
3F800FE0
7E0003E0
7C0003E0
7C0001F0
780001F0
F80001F0
F80001F0
F80000F0
F80000F0
F80000F0
F80001F0
F80001F0
780001F0
7C0001F0
7C0003F0
7E0003E0
3F000FE0
3FFFFFC0
1FFFFF80
0FFFFF00
03FFFE00
00FFF000
ENDCHAR
STARTCHAR 01A1
ENCODING 417
SWIDTH 725 0
DWIDTH 29 0
BBX 26 28 2 0
BITMAP
000003C0
000003C0
000003C0
000003C0
000003C0
000003C0
000007C0
07FFFFC0
0FFFFFC0
3FFFFF80
3FFFFF00
7E00FC00
7C007C00
F8003C00
F8003E00
F0003E00
F0003E00
F0001E00
F0003E00
F0003E00
F8003E00
F8003C00
7C007C00
7E00FC00
3FFFF800
1FFFF000
0FFFE000
03FF8000
ENDCHAR
STARTCHAR 01AF
ENCODING 431
SWIDTH 875 0
DWIDTH 35 0
BBX 32 34 3 0
BITMAP
0000001F
0000001F
0000001F
0000001F
0000001F
0000001F
0000001E
F8001FFE
F8001FFE
F8001FFC
F8001FF8
F8001E00
F8001E00
F8001E00
F8001E00
F8001E00
F8001E00
F8001E00
F8001E00
F8001E00
F8001E00
F8001E00
F8001E00
F8001E00
F8001E00
F8001E00
F8003E00
F8003E00
FC007E00
7FFFFE00
7FFFFC00
3FFFF800
1FFFF000
07FFC000
ENDCHAR
STARTCHAR 01B0
ENCODING 432
SWIDTH 850 0
DWIDTH 34 0
BBX 31 28 3 0
BITMAP
0000003E
0000003E
0000003E
0000003E
0000003E
0000003C
0000007C
F0003FFC
F0003FFC
F0003FF8
F0003FF0
F0003C00
F0003C00
F0003C00
F0003C00
F0003C00
F0003C00
F0003C00
F0003C00
F0003C00
F0003C00
F8003C00
F8007C00
7E01F800
7FFFF800
3FFFF000
1FFFE000
07FF8000
ENDCHAR
STARTCHAR 01B3
ENCODING 435
SWIDTH 750 0
DWIDTH 30 0
BBX 29 28 1 0
BITMAP
000003F8
FC0007F8
7C000FF8
7E001FF8
3F003F00
1F003E00
1F807C00
0F80FC00
07C0F800
03E1F000
03E3E000
01F3E000
00FFC000
00FF8000
007F8000
003F0000
003E0000
003E0000
003E0000
003E0000
003E0000
003E0000
003E0000
003E0000
003E0000
003E0000
003E0000
003E0000
ENDCHAR
STARTCHAR 01B4
ENCODING 436
SWIDTH 775 0
DWIDTH 31 0
BBX 30 33 1 -8
BITMAP
000001FC
000007FC
00000FFC
00000FFC
F0001F80
F8001F00
78003E00
7C003E00
7C003C00
3C007C00
3E007800
1E00F800
1F00F800
0F01F000
0F81F000
0F81E000
0783E000
07C3C000
03C7C000
03E78000
03FF8000
01FF8000
01FF0000
00FF0000
001E0000
003E0000
003C0000
007C0000
00780000
00F80000
00F80000
00F00000
01F00000
ENDCHAR
STARTCHAR 01C4
ENCODING 452
SWIDTH 1475 0
DWIDTH 59 0
BBX 54 37 3 0
BITMAP
000000003C0780
000000003E0F80
000000001E0F00
000000001F1F00
000000000F1E00
000000000FBE00
0000000007FC00
0000000003F800
0000000001F000
00000000000000
7FFF0003FFFFC0
FFFFE003FFFFF0
FFFFF003FFFFF8
FFFFF803FFFFFC
FFFFFC03FFFFFC
F800FE0000007C
F8007E0000007C
F8003E0000007C
F8001F000000FC
F8001F000007F8
F8001F00001FF0
F8001F00007FE0
F8001F0003FF80
F8001F000FFE00
F8001F003FF000
F8001F00FFC000
F8001F03FF0000
F8001F03F80000
F8001F07E00000
F8003E07C00000
F8007E07C00000
F800FE07C00000
FFFFFC07FFFFF8
FFFFF807FFFFF8
FFFFF003FFFFF8
FFFFE003FFFFF8
7FFF0000FFFFF8
ENDCHAR
STARTCHAR 01C5
ENCODING 453
SWIDTH 1350 0
DWIDTH 54 0
BBX 49 31 3 0
BITMAP
00000001F03C00
00000000F07C00
00000000F87800
000000007CF800
7FFF00003CF000
FFFFE0003FF000
FFFFF0001FE000
FFFFF8000FC000
FFFFFC00000000
F800FE00000000
F8007E07FFFE00
F8003E07FFFF00
F8001F07FFFF80
F8001F07FFFF80
F8001F00000780
F8001F00000780
F8001F00000780
F8001F00003F80
F8001F0001FF00
F8001F000FFE00
F8001F003FF000
F8001F01FF8000
F8001F03FC0000
F8003E07F00000
F8007E07800000
F800FE07800000
FFFFFC07800000
FFFFF807FFFF80
FFFFF007FFFF80
FFFFE003FFFF80
7FFF0001FFFF80
ENDCHAR
STARTCHAR 01C6
ENCODING 454
SWIDTH 1325 0
DWIDTH 53 0
BBX 49 31 2 0
BITMAP
00001E01E07C00
00001E01F07800
00001E00F0F800
00001E00F8F000
00001E0079F000
00001E007FE000
00001E003FC000
00001E001F8000
00001E00000000
00001E00000000
07FFFE07FFFC00
0FFFFE07FFFF00
3FFFFE07FFFF00
3FFFFE07FFFF80
7E001E00000F80
7C001E00000780
F8001E00000F80
F8001E00007F00
F0001E0001FE00
F0001E000FFC00
F0001E007FE000
F0001E03FF8000
F0003E07FC0000
F8003E0FE00000
F8003E0F800000
7C003C0F000000
7E00FC0F000000
3FFFFC0FFFFF00
1FFFF80FFFFF00
0FFFF007FFFF00
03FFC003FFFF00
ENDCHAR
STARTCHAR 01DD
ENCODING 477
SWIDTH 650 0
DWIDTH 26 0
BBX 21 21 3 0
BITMAP
7FFF80
7FFFE0
7FFFF0
7FFFF0
0000F8
0000F8
000078
000078
000078
3FFFF8
7FFFF8
FFFFF8
F80078
F00078
F00078
F000F8
F801F8
FFFFF0
7FFFF0
3FFFE0
1FFF80
ENDCHAR
STARTCHAR 01E6
ENCODING 486
SWIDTH 725 0
DWIDTH 29 0
BBX 25 37 2 0
BITMAP
03E07C00
01E07800
01F0F800
00F0F000
00F9F000
0079E000
007FE000
003FC000
001F8000
00000000
00FFFF00
03FFFF00
0FFFFF00
1FFFFF00
3FFFFF00
3F800000
7E000000
7C000000
7C000000
78000000
F8000000
F81FF800
F81FFE00
F81FFF00
F81FFF00
F8001F80
F8000F80
78000780
7C000780
7C000780
7E000F80
3F001F80
1FFFFF00
1FFFFF00
0FFFFE00
03FFFC00
00FFF000
ENDCHAR
STARTCHAR 01E7
ENCODING 487
SWIDTH 700 0
DWIDTH 28 0
BBX 23 39 2 -8
BITMAP
0F81E0
0783E0
07C3C0
03C7C0
01E780
01FF80
00FF00
007E00
000000
000000
07FFC0
1FFFF0
3FFFF8
3FFFFC
7E007C
7C003C
F8003E
F8003E
F0003E
F0001E
F0001E
F0001E
F8001E
F8001E
78001E
7C001E
3FFFFE
3FFFFE
0FFFFE
03FFFE
00001E
00003E
00003E
00003E
00007C
3FFFFC
3FFFFC
3FFFF8
3FFFE0
ENDCHAR
STARTCHAR 01F0
ENCODING 496
SWIDTH 350 0
DWIDTH 14 0
BBX 16 39 -1 -8
BITMAP
781F
7C1E
3C3C
3E7C
1E78
1FF8
0FF0
07E0
0000
0000
03C0
03C0
03C0
03C0
03C0
03C0
03C0
03C0
03C0
03C0
03C0
03C0
03C0
03C0
03C0
03C0
03C0
03C0
03C0
03C0
03C0
03C0
03C0
03C0
07C0
FFC0
FFC0
FF80
FF00
ENDCHAR
STARTCHAR 01F1
ENCODING 497
SWIDTH 1475 0
DWIDTH 59 0
BBX 54 27 3 0
BITMAP
7FFF0003FFFFC0
FFFFE003FFFFF0
FFFFF003FFFFF8
FFFFF803FFFFFC
FFFFFC03FFFFFC
F800FE0000007C
F8007E0000007C
F8003E0000007C
F8001F000000FC
F8001F000007F8
F8001F00001FF0
F8001F00007FE0
F8001F0003FF80
F8001F000FFE00
F8001F003FF000
F8001F00FFC000
F8001F03FF0000
F8001F03F80000
F8001F07E00000
F8003E07C00000
F8007E07C00000
F800FE07C00000
FFFFFC07FFFFF8
FFFFF807FFFFF8
FFFFF003FFFFF8
FFFFE003FFFFF8
7FFF0000FFFFF8
ENDCHAR
STARTCHAR 01F2
ENCODING 498
SWIDTH 1350 0
DWIDTH 54 0
BBX 49 27 3 0
BITMAP
7FFF0000000000
FFFFE000000000
FFFFF000000000
FFFFF800000000
FFFFFC00000000
F800FE00000000
F8007E07FFFE00
F8003E07FFFF00
F8001F07FFFF80
F8001F07FFFF80
F8001F00000780
F8001F00000780
F8001F00000780
F8001F00003F80
F8001F0001FF00
F8001F000FFE00
F8001F003FF000
F8001F01FF8000
F8001F03FC0000
F8003E07F00000
F8007E07800000
F800FE07800000
FFFFFC07800000
FFFFF807FFFF80
FFFFF007FFFF80
FFFFE003FFFF80
7FFF0001FFFF80
ENDCHAR
STARTCHAR 01F3
ENCODING 499
SWIDTH 1325 0
DWIDTH 53 0
BBX 49 30 2 0
BITMAP
00001E00000000
00001E00000000
00001E00000000
00001E00000000
00001E00000000
00001E00000000
00001E00000000
00001E00000000
00001E00000000
07FFFE07FFFC00
0FFFFE07FFFF00
3FFFFE07FFFF00
3FFFFE07FFFF80
7E001E00000F80
7C001E00000780
F8001E00000F80
F8001E00007F00
F0001E0001FE00
F0001E000FFC00
F0001E007FE000
F0001E03FF8000
F0003E07FC0000
F8003E0FE00000
F8003E0F800000
7C003C0F000000
7E00FC0F000000
3FFFFC0FFFFF00
1FFFF80FFFFF00
0FFFF007FFFF00
03FFC003FFFF00
ENDCHAR
STARTCHAR 01F4
ENCODING 500
SWIDTH 725 0
DWIDTH 29 0
BBX 25 37 2 0
BITMAP
0003E000
0003C000
0007C000
00078000
000F8000
000F0000
001E0000
001E0000
003C0000
00000000
00FFFF00
03FFFF00
0FFFFF00
1FFFFF00
3FFFFF00
3F800000
7E000000
7C000000
7C000000
78000000
F8000000
F81FF800
F81FFE00
F81FFF00
F81FFF00
F8001F80
F8000F80
78000780
7C000780
7C000780
7E000F80
3F001F80
1FFFFF00
1FFFFF00
0FFFFE00
03FFFC00
00FFF000
ENDCHAR
STARTCHAR 01F5
ENCODING 501
SWIDTH 700 0
DWIDTH 28 0
BBX 23 39 2 -8
BITMAP
000F80
001F00
001E00
003E00
003C00
007C00
007800
00F800
00F000
000000
07FFC0
1FFFF0
3FFFF8
3FFFFC
7E007C
7C003C
F8003E
F8003E
F0003E
F0001E
F0001E
F0001E
F8001E
F8001E
78001E
7C001E
3FFFFE
3FFFFE
0FFFFE
03FFFE
00001E
00003E
00003E
00003E
00007C
3FFFFC
3FFFFC
3FFFF8
3FFFE0
ENDCHAR
STARTCHAR 01F8
ENCODING 504
SWIDTH 875 0
DWIDTH 35 0
BBX 29 39 3 -1
BITMAP
003C0000
003E0000
001E0000
001F0000
000F0000
000F8000
00078000
0003C000
0003C000
00000000
1F800000
3FE000F8
7FF000F8
7FF000F8
FFF800F8
F8F800F8
F87800F8
F87C00F8
F87C00F8
F83E00F8
F83E00F8
F81F00F8
F81F00F8
F80F80F8
F80F80F8
F80F80F8
F807C0F8
F807C0F8
F803E0F8
F803E0F8
F801F0F8
F801F0F8
F801F8F8
F800F8F8
F800FFF8
F8007FF8
F8007FF0
F8003FE0
00000FC0
ENDCHAR
STARTCHAR 01F9
ENCODING 505
SWIDTH 700 0
DWIDTH 28 0
BBX 22 31 3 0
BITMAP
03E000
01F000
01F000
00F800
007800
007C00
003C00
003E00
001E00
000000
7FFF00
FFFFC0
FFFFF0
FFFFF8
F001F8
F0007C
F0007C
F0003C
F0003C
F0003C
F0003C
F0003C
F0003C
F0003C
F0003C
F0003C
F0003C
F0003C
F0003C
F0003C
F0003C
ENDCHAR
STARTCHAR 0218
ENCODING 536
SWIDTH 700 0
DWIDTH 28 0
BBX 24 37 2 -10
BITMAP
07FFFC
1FFFFC
3FFFFC
7FFFFC
7FFFFC
FC0000
F80000
F80000
F80000
F80000
FC0000
7FFFE0
7FFFF8
3FFFFC
0FFFFE
0000FF
00001F
00001F
00001F
00001F
00001F
00003F
7FFFFF
7FFFFE
7FFFFC
7FFFF8
7FFFE0
000000
003C00
003C00
003C00
003C00
003C00
003C00
00FC00
00FC00
00F000
ENDCHAR
STARTCHAR 0219
ENCODING 537
SWIDTH 575 0
DWIDTH 23 0
BBX 19 31 2 -10
BITMAP
1FFFE0
3FFFE0
7FFFE0
FFFFE0
F80000
F00000
F00000
F00000
FFF800
7FFF80
3FFFC0
0FFFE0
0003E0
0001E0
0001E0
0001E0
0003E0
FFFFE0
FFFFC0
FFFFC0
FFFF00
000000
00F000
00F000
00F000
00F000
00F000
00F000
03F000
03E000
03C000
ENDCHAR
STARTCHAR 021A
ENCODING 538
SWIDTH 575 0
DWIDTH 23 0
BBX 21 37 1 -10
BITMAP
FFFFF8
FFFFF8
FFFFF8
FFFFF8
FFFFF8
00F800
00F800
00F800
00F800
00F800
00F800
00F800
00F800
00F800
00F800
00F800
00F800
00F800
00F800
00F800
00F800
00F800
00F800
00F800
00F800
00F800
00F800
000000
00F800
00F800
00F800
00F800
00F800
00F000
03F000
03F000
03E000
ENDCHAR
STARTCHAR 021B
ENCODING 539
SWIDTH 375 0
DWIDTH 15 0
BBX 13 36 1 -10
BITMAP
1E00
1E00
1E00
1E00
1E00
FFF8
FFF8
FFF8
FFF8
1E00
1E00
1E00
1E00
1E00
1E00
1E00
1E00
1E00
1E00
1E00
1E00
1F00
1FF8
0FF8
0FF8
03F8
0000
0780
0780
0780
0780
0780
0780
1F80
1F80
1E00
ENDCHAR
STARTCHAR 0237
ENCODING 567
SWIDTH 275 0
DWIDTH 11 0
BBX 10 30 -2 -8
BITMAP
07C0
07C0
07C0
07C0
07C0
07C0
07C0
07C0
07C0
07C0
07C0
07C0
07C0
07C0
07C0
07C0
07C0
07C0
07C0
07C0
07C0
07C0
07C0
07C0
07C0
07C0
FF80
FF80
FF00
FE00
ENDCHAR
STARTCHAR 0241
ENCODING 577
SWIDTH 500 0
DWIDTH 20 0
BBX 18 30 1 0
BITMAP
FFFC00
FFFE00
FFFF00
FFFF80
000F80
000780
0007C0
0007C0
000780
000F80
03FF80
07FF00
0FFE00
0FF800
0F0000
0F0000
0F0000
0F0000
0F0000
0F0000
0F0000
0F0000
0F0000
0F0000
0F0000
0F0000
0F0000
0F0000
0F0000
0F0000
ENDCHAR
STARTCHAR 0242
ENCODING 578
SWIDTH 500 0
DWIDTH 20 0
BBX 18 21 1 0
BITMAP
FFFC00
FFFE00
FFFF00
FFFF80
000F80
0007C0
0007C0
0007C0
000780
000F80
03FF80
07FF00
0FFE00
0FF800
0F0000
0F0000
0F0000
0F0000
0F0000
0F0000
0F0000
ENDCHAR
STARTCHAR 024C
ENCODING 588
SWIDTH 775 0
DWIDTH 31 0
BBX 29 27 0 0
BITMAP
07FFFE00
07FFFF80
07FFFFE0
07FFFFE0
07FFFFF0
000001F0
000001F0
000000F8
000000F8
000000F8
000001F0
000003F0
FFFFFFF0
FFFFFFE0
FFFFFFC0
FFFFFF80
FFFFFE00
07C03F00
07C01F00
07C00F80
07C00F80
07C007C0
07C007E0
07C003E0
07C003F0
07C001F0
07C000F8
ENDCHAR
STARTCHAR 024D
ENCODING 589
SWIDTH 500 0
DWIDTH 20 0
BBX 18 21 1 0
BITMAP
03FFC0
07FFC0
0FFFC0
0FFFC0
0F8000
0F0000
0F0000
0F0000
0F0000
FFFFC0
FFFFC0
FFFFC0
FFFFC0
0F0000
0F0000
0F0000
0F0000
0F0000
0F0000
0F0000
0F0000
ENDCHAR
STARTCHAR 0253
ENCODING 595
SWIDTH 700 0
DWIDTH 28 0
BBX 23 30 3 0
BITMAP
1FC000
3FC000
7FC000
7FC000
F80000
F80000
F00000
F00000
F00000
FFFF80
FFFFE0
FFFFF0
FFFFF8
F000FC
F0007C
F0003C
F0003C
F0003E
F0003E
F0003E
F0003E
F0003E
F0003C
F8003C
F8007C
7E00FC
7FFFF8
3FFFF0
1FFFE0
07FF80
ENDCHAR
STARTCHAR 0257
ENCODING 599
SWIDTH 775 0
DWIDTH 31 0
BBX 29 30 2 0
BITMAP
000003F8
00000FF8
00001FF8
00001FF8
00001F00
00001E00
00001E00
00001E00
00001E00
07FFFE00
0FFFFE00
3FFFFE00
3FFFFE00
7E001E00
7C001E00
F8001E00
F8001E00
F0001E00
F0001E00
F0001E00
F0001E00
F0003E00
F8003E00
F8003E00
7C003C00
7E00FC00
3FFFFC00
1FFFF800
0FFFF000
03FFC000
ENDCHAR
STARTCHAR 0263
ENCODING 611
SWIDTH 675 0
DWIDTH 27 0
BBX 25 32 1 -11
BITMAP
F8000F80
F8000F80
7C001F00
3E003E00
3E003E00
1F007C00
0F007800
0F80F800
07C1F000
03C1E000
03E3E000
01E3C000
00F78000
00FF8000
007F0000
003E0000
003E0000
003E0000
007F0000
007F0000
00F78000
00F78000
01E3C000
01C1C000
03C1E000
0380E000
0380E000
0380E000
03C1E000
03FFE000
01FFC000
007F8000
ENDCHAR
STARTCHAR 0272
ENCODING 626
SWIDTH 700 0
DWIDTH 28 0
BBX 28 29 -3 -8
BITMAP
01FFFC00
03FFFF00
03FFFFC0
03FFFFE0
03C007E0
03C001F0
03C001F0
03C000F0
03C000F0
03C000F0
03C000F0
03C000F0
03C000F0
03C000F0
03C000F0
03C000F0
03C000F0
03C000F0
03C000F0
03C000F0
03C000F0
03C00000
03C00000
03C00000
07C00000
FFC00000
FF800000
FF800000
FF000000
ENDCHAR
STARTCHAR 02C6
ENCODING 710
SWIDTH 500 0
DWIDTH 20 0
BBX 16 9 2 22
BITMAP
07E0
0FF0
1FF8
1E78
3E7C
3C3C
7C3E
781F
F80F
ENDCHAR
STARTCHAR 02C7
ENCODING 711
SWIDTH 500 0
DWIDTH 20 0
BBX 15 8 3 23
BITMAP
F03E
F83C
787C
7C78
3CF0
3FF0
1FE0
0FC0
ENDCHAR
STARTCHAR 02D8
ENCODING 728
SWIDTH 525 0
DWIDTH 21 0
BBX 16 9 2 22
BITMAP
F007
F007
F007
F007
F00F
781F
7FFF
3FFE
0FF8
ENDCHAR
STARTCHAR 02D9
ENCODING 729
SWIDTH 225 0
DWIDTH 9 0
BBX 4 5 2 24
BITMAP
F0
F0
F0
F0
F0
ENDCHAR
STARTCHAR 02DA
ENCODING 730
SWIDTH 375 0
DWIDTH 15 0
BBX 11 9 2 22
BITMAP
3F80
7FC0
E0E0
C060
C060
C060
E0E0
7FC0
3F80
ENDCHAR
STARTCHAR 02DB
ENCODING 731
SWIDTH 375 0
DWIDTH 15 0
BBX 11 11 2 -11
BITMAP
01C0
0E00
3800
7000
F000
F000
F800
FFE0
7FE0
7FE0
1FE0
ENDCHAR
STARTCHAR 02DC
ENCODING 732
SWIDTH 575 0
DWIDTH 23 0
BBX 19 4 2 25
BITMAP
FFFFE0
FFFFE0
FFFFE0
FFFFE0
ENDCHAR
STARTCHAR 02DD
ENCODING 733
SWIDTH 575 0
DWIDTH 23 0
BBX 18 9 1 22
BITMAP
0F87C0
0F0F80
1F0F80
1E1F00
3E1E00
3C3E00
783C00
787C00
F07800
ENDCHAR
STARTCHAR 0300
ENCODING 768
SWIDTH 25 0
DWIDTH 1 0
BBX 9 9 -19 22
BITMAP
F800
F800
7C00
3C00
3E00
1E00
1F00
0F00
0F80
ENDCHAR
STARTCHAR 0301
ENCODING 769
SWIDTH 25 0
DWIDTH 1 0
BBX 9 9 -19 22
BITMAP
0780
0F80
0F00
1F00
1E00
3C00
7C00
7800
F800
ENDCHAR
STARTCHAR 0302
ENCODING 770
SWIDTH 25 0
DWIDTH 1 0
BBX 16 9 -22 22
BITMAP
07E0
0FF0
1FF0
1EF8
3E7C
3C3C
783E
F81E
F01F
ENDCHAR
STARTCHAR 0303
ENCODING 771
SWIDTH 25 0
DWIDTH 1 0
BBX 18 4 -23 25
BITMAP
FFFFC0
FFFFC0
FFFFC0
FFFFC0
ENDCHAR
STARTCHAR 0304
ENCODING 772
SWIDTH 25 0
DWIDTH 1 0
BBX 18 4 -23 25
BITMAP
FFFFC0
FFFFC0
FFFFC0
FFFFC0
ENDCHAR
STARTCHAR 0306
ENCODING 774
SWIDTH 25 0
DWIDTH 1 0
BBX 16 9 -22 22
BITMAP
E00F
E00F
E00F
E00F
F00F
F81F
FFFE
7FFC
0FF0
ENDCHAR
STARTCHAR 0307
ENCODING 775
SWIDTH 25 0
DWIDTH 1 0
BBX 5 5 -17 24
BITMAP
F8
F8
F8
F8
F8
ENDCHAR
STARTCHAR 0308
ENCODING 776
SWIDTH 25 0
DWIDTH 1 0
BBX 14 5 -21 24
BITMAP
F07C
F07C
F07C
F07C
F07C
ENDCHAR
STARTCHAR 0309
ENCODING 777
SWIDTH 25 0
DWIDTH 1 0
BBX 13 13 -19 23
BITMAP
FFC0
FFF0
FFF0
0078
0078
0078
0078
0FF0
1FF0
3FC0
3800
3800
3800
ENDCHAR
STARTCHAR 030A
ENCODING 778
SWIDTH 25 0
DWIDTH 1 0
BBX 11 9 -20 22
BITMAP
3F80
7FC0
60E0
E060
E060
E060
60E0
7FC0
3F80
ENDCHAR
STARTCHAR 030B
ENCODING 779
SWIDTH 25 0
DWIDTH 1 0
BBX 17 9 -22 22
BITMAP
0F0F80
1F0F80
1E1F00
3E1E00
3C3E00
7C3C00
787C00
F07800
F0F800
ENDCHAR
STARTCHAR 030C
ENCODING 780
SWIDTH 25 0
DWIDTH 1 0
BBX 15 8 -22 23
BITMAP
F81E
783E
7C3C
3C7C
3E78
1FF8
0FF0
07E0
ENDCHAR
STARTCHAR 0313
ENCODING 787
SWIDTH 25 0
DWIDTH 1 0
BBX 7 11 -17 22
BITMAP
3E
7E
7E
F8
F8
F8
F8
F8
F8
F8
F8
ENDCHAR
STARTCHAR 031B
ENCODING 795
SWIDTH 150 0
DWIDTH 6 0
BBX 12 11 -6 17
BITMAP
00F0
00F0
00F0
00F0
00F0
00F0
01F0
FFF0
FFE0
FFE0
FF80
ENDCHAR
STARTCHAR 0323
ENCODING 803
SWIDTH 25 0
DWIDTH 1 0
BBX 4 5 -16 -8
BITMAP
F0
F0
F0
F0
F0
ENDCHAR
STARTCHAR 0326
ENCODING 806
SWIDTH 25 0
DWIDTH 1 0
BBX 6 9 -18 -10
BITMAP
3C
3C
3C
3C
3C
3C
FC
F8
F0
ENDCHAR
STARTCHAR 0328
ENCODING 808
SWIDTH 25 0
DWIDTH 1 0
BBX 10 11 -21 -11
BITMAP
0180
0E00
3800
7000
F000
F000
F800
FFC0
FFC0
7FC0
3FC0
ENDCHAR
STARTCHAR 032D
ENCODING 813
SWIDTH 25 0
DWIDTH 1 0
BBX 16 9 -22 -11
BITMAP
07C0
0FF0
1FF0
3EF8
3C78
7C7C
783C
F83E
F01F
ENDCHAR
STARTCHAR 0384
ENCODING 900
SWIDTH 250 0
DWIDTH 10 0
BBX 6 9 1 22
BITMAP
3C
3C
78
78
78
78
F0
F0
F0
ENDCHAR
STARTCHAR 0385
ENCODING 901
SWIDTH 525 0
DWIDTH 21 0
BBX 18 9 2 22
BITMAP
01F000
01E000
F1E7C0
F1E7C0
F3C7C0
F3C7C0
F3C7C0
03C000
038000
ENDCHAR
STARTCHAR 0386
ENCODING 902
SWIDTH 825 0
DWIDTH 33 0
BBX 29 32 3 0
BITMAP
7C000000
78000000
78000000
78000000
F00FC000
F03FE000
F07FF000
F07FF000
E07FF800
00F8F800
00F8F800
01F87C00
01F07C00
01F07C00
03E03E00
03E03E00
07E03F00
07C01F00
07C01F00
0FC01F80
0F800F80
0F800F80
1FFFFFC0
1FFFFFC0
3FFFFFE0
3FFFFFE0
3E0003E0
7C0003F0
7C0001F0
FC0001F0
F80000F8
F80000F8
ENDCHAR
STARTCHAR 0387
ENCODING 903
SWIDTH 250 0
DWIDTH 10 0
BBX 4 5 3 10
BITMAP
F0
F0
F0
F0
F0
ENDCHAR
STARTCHAR 0388
ENCODING 904
SWIDTH 800 0
DWIDTH 32 0
BBX 28 31 1 0
BITMAP
3C000000
3C000000
78000000
78000000
783FFFF0
78FFFFF0
F1FFFFF0
F3FFFFF0
F3FFFFF0
03E00000
07E00000
07C00000
07C00000
03E00000
03F00000
01FFFFF0
00FFFFF0
00FFFFF0
01FFFFF0
03F80000
03E00000
07C00000
07C00000
07C00000
07E00000
03E00000
03FFFFF0
03FFFFF0
01FFFFF0
00FFFFF0
003FFFF0
ENDCHAR
STARTCHAR 0389
ENCODING 905
SWIDTH 875 0
DWIDTH 35 0
BBX 31 31 1 0
BITMAP
3C000000
3C000000
78000000
78000000
79F0003E
79F0003E
F1F0003E
F1F0003E
F1F0003E
01F0003E
01F0003E
01F0003E
01F0003E
01F0003E
01F0003E
01FFFFFE
01FFFFFE
01FFFFFE
01FFFFFE
01FFFFFE
01F0003E
01F0003E
01F0003E
01F0003E
01F0003E
01F0003E
01F0003E
01F0003E
01F0003E
01F0003E
01F0003E
ENDCHAR
STARTCHAR 038A
ENCODING 906
SWIDTH 400 0
DWIDTH 16 0
BBX 12 31 1 0
BITMAP
3C00
3C00
7800
7800
79F0
79F0
F1F0
F1F0
F1F0
01F0
01F0
01F0
01F0
01F0
01F0
01F0
01F0
01F0
01F0
01F0
01F0
01F0
01F0
01F0
01F0
01F0
01F0
01F0
01F0
01F0
01F0
ENDCHAR
STARTCHAR 038C
ENCODING 908
SWIDTH 875 0
DWIDTH 35 0
BBX 32 31 1 0
BITMAP
3C000000
3C000000
78000000
78000000
780FFF00
787FFFC0
F0FFFFF0
F1FFFFF8
F3FFFFFC
03F000FC
07E0007E
07C0003E
0F80003E
0F80001F
0F80001F
0F80001F
0F80001F
0F80001F
0F80001F
0F80001F
0F80001F
0F80001F
0F80003E
07C0003E
07E0007E
03F000FC
03FFFFFC
01FFFFF8
00FFFFF0
007FFFE0
000FFF00
ENDCHAR
STARTCHAR 038E
ENCODING 910
SWIDTH 875 0
DWIDTH 35 0
BBX 33 31 1 0
BITMAP
3C00000000
3C00000000
7800000000
7800000000
79F8000F80
78FC001F00
F07C003F00
F07E003E00
F03F007C00
001F00FC00
000F80F800
000FC1F000
0007C3E000
0003E3E000
0003F7C000
0001FF8000
0000FF8000
00007F0000
00007E0000
00003E0000
00003E0000
00003E0000
00003E0000
00003E0000
00003E0000
00003E0000
00003E0000
00003E0000
00003E0000
00003E0000
00003E0000
ENDCHAR
STARTCHAR 038F
ENCODING 911
SWIDTH 875 0
DWIDTH 35 0
BBX 33 31 1 0
BITMAP
3C00000000
3C00000000
7800000000
7800000000
781FFFC000
78FFFFF000
F1FFFFFC00
F3FFFFFE00
F3FFFFFE00
07F0007F00
07E0003F00
07C0001F00
07C0001F00
0780001F00
0780000F00
0780001F00
07C0001F00
07C0001F00
03E0003E00
03F0007C00
01F800FC00
007C01F000
003E07E000
001F07C000
000F0F0000
00078F0000
0FFF8FFF80
0FFF8FFF80
0FFF07FF80
0FFF07FF80
0FFC01FF80
ENDCHAR
STARTCHAR 0390
ENCODING 912
SWIDTH 450 0
DWIDTH 18 0
BBX 17 31 0 0
BITMAP
01E000
01E000
F1E780
F3E780
F3C780
F3C780
F3C780
038000
078000
000000
078000
078000
078000
078000
078000
078000
078000
078000
078000
078000
078000
078000
078000
078000
078000
07C000
07C000
03FE00
03FE00
01FE00
00FE00
ENDCHAR
STARTCHAR 0391
ENCODING 913
SWIDTH 775 0
DWIDTH 31 0
BBX 29 28 1 0
BITMAP
000FC000
003FE000
003FF000
007FF800
007FF800
00FCF800
00F8FC00
00F87C00
01F87C00
01F03E00
01F03E00
03E03F00
03E01F00
07E01F00
07C01F80
07C00F80
0F800F80
0F800FC0
1FFFFFC0
1FFFFFC0
1FFFFFE0
3FFFFFE0
3E0003F0
7E0001F0
7C0001F0
7C0001F8
FC0000F8
F80000F8
ENDCHAR
STARTCHAR 0392
ENCODING 914
SWIDTH 725 0
DWIDTH 29 0
BBX 24 27 3 0
BITMAP
7FFFC0
FFFFF8
FFFFFC
FFFFFC
FFFFFE
F8003E
F8003E
F8001E
F8001E
F8003E
F8007E
FFFFFC
FFFFF8
FFFFF0
FFFFFC
F8007E
F8003E
F8001E
F8001E
F8001F
F8003E
F8003E
FFFFFE
FFFFFE
FFFFFC
FFFFF8
7FFFC0
ENDCHAR
STARTCHAR 0393
ENCODING 915
SWIDTH 625 0
DWIDTH 25 0
BBX 21 27 3 0
BITMAP
03FFF8
0FFFF8
3FFFF8
3FFFF8
7FFFF8
7E0000
FC0000
F80000
F80000
F80000
F80000
F80000
F80000
F80000
F80000
F80000
F80000
F80000
F80000
F80000
F80000
F80000
F80000
F80000
F80000
F80000
F80000
ENDCHAR
STARTCHAR 0394
ENCODING 916
SWIDTH 775 0
DWIDTH 31 0
BBX 29 28 1 0
BITMAP
000FC000
003FE000
003FF000
007FF000
007FF800
00FCF800
00F8FC00
00F87C00
01F07C00
01F03E00
03F03E00
03E03F00
03E01F00
07C01F00
07C00F80
0F800F80
0F800F80
0F8007C0
1F0007C0
1F0003E0
3E0003E0
3E0003E0
3E0001F0
7FFFFFF0
7FFFFFF8
7FFFFFF8
FFFFFFF8
7FFFFFF8
ENDCHAR
STARTCHAR 0395
ENCODING 917
SWIDTH 700 0
DWIDTH 28 0
BBX 23 27 2 0
BITMAP
07FFFE
1FFFFE
3FFFFE
7FFFFE
7FFFFE
FC0000
FC0000
F80000
F80000
7C0000
7E0000
3FFFFE
1FFFFE
1FFFFE
3FFFFE
7E0000
7C0000
F80000
F80000
F80000
F80000
FC0000
7FFFFE
7FFFFE
3FFFFE
1FFFFE
07FFFE
ENDCHAR
STARTCHAR 0396
ENCODING 918
SWIDTH 750 0
DWIDTH 30 0
BBX 25 27 2 0
BITMAP
7FFFFC00
7FFFFF00
7FFFFF80
7FFFFF80
7FFFFF80
00000F80
00000780
00000F80
00001F80
00007F80
0001FF00
000FFE00
003FF800
00FFC000
07FF0000
1FFC0000
3FE00000
7F800000
7E000000
F8000000
F8000000
F8000000
FFFFFF80
7FFFFF80
7FFFFF80
3FFFFF80
0FFFFF80
ENDCHAR
STARTCHAR 0397
ENCODING 919
SWIDTH 750 0
DWIDTH 30 0
BBX 24 27 3 0
BITMAP
F8001F
F8001F
F8001F
F8001F
F8001F
F8001F
F8001F
F8001F
F8001F
F8001F
F8001F
FFFFFF
FFFFFF
FFFFFF
FFFFFF
FFFFFF
F8001F
F8001F
F8001F
F8001F
F8001F
F8001F
F8001F
F8001F
F8001F
F8001F
F8001F
ENDCHAR
STARTCHAR 0398
ENCODING 920
SWIDTH 825 0
DWIDTH 33 0
BBX 28 27 2 0
BITMAP
00FFF000
03FFFE00
0FFFFF00
1FFFFF80
3FFFFFC0
3F000FE0
7E0003E0
7C0003F0
7C0001F0
780001F0
F80001F0
F87FF0F0
F87FF0F0
F87FF0F0
F87FF0F0
F80001F0
F80001F0
780001F0
7C0001F0
7C0003F0
7E0007E0
3F000FE0
1FFFFFC0
1FFFFF80
0FFFFF00
03FFFE00
00FFF000
ENDCHAR
STARTCHAR 0399
ENCODING 921
SWIDTH 275 0
DWIDTH 11 0
BBX 5 27 3 0
BITMAP
F8
F8
F8
F8
F8
F8
F8
F8
F8
F8
F8
F8
F8
F8
F8
F8
F8
F8
F8
F8
F8
F8
F8
F8
F8
F8
F8
ENDCHAR
STARTCHAR 039A
ENCODING 922
SWIDTH 700 0
DWIDTH 28 0
BBX 24 27 3 0
BITMAP
F8003E
F8003E
F8007C
F8007C
F800F8
F800F8
F801F8
F801F0
F803F0
F803E0
F807C0
F81FC0
FFFF80
FFFE00
FFFF80
FFFFC0
F80FE0
F803E0
F801F0
F801F8
F800F8
F800FC
F8007C
F8007E
F8003E
F8003F
F8001F
ENDCHAR
STARTCHAR 039B
ENCODING 923
SWIDTH 775 0
DWIDTH 31 0
BBX 29 28 1 0
BITMAP
000FC000
003FE000
003FF000
007FF800
007FF800
00FCF800
00F8FC00
00F87C00
01F07C00
01F03E00
01F03E00
03E03F00
03E01F00
07E01F00
07C01F80
07C00F80
0F800F80
0F800FC0
1F8007C0
1F0007C0
1F0003E0
3E0003E0
3E0003F0
7E0001F0
7C0001F0
7C0001F8
FC0000F8
F80000F8
ENDCHAR
STARTCHAR 039C
ENCODING 924
SWIDTH 1100 0
DWIDTH 44 0
BBX 38 29 3 -1
BITMAP
0FC0000FC0
3FE0001FF0
7FF0003FF8
7FF8007FF8
FFF8007FFC
F87C007C7C
F87C00F87C
F87C00F87C
F87C00F87C
F87C00F87C
F83E00F07C
F83E01F07C
F83E01F07C
F83E01F07C
F81F01E07C
F81F03E07C
F81F03E07C
F81F03E07C
F80F03E07C
F80F83C07C
F80F87C07C
F80F87C07C
F80F87C07C
F807C7807C
F807FF807C
F807FF807C
F803FF007C
F801FE007C
0000FC0000
ENDCHAR
STARTCHAR 039D
ENCODING 925
SWIDTH 875 0
DWIDTH 35 0
BBX 29 29 3 -1
BITMAP
1F800000
3FE000F8
7FF000F8
7FF000F8
FFF800F8
F8F800F8
F87800F8
F87C00F8
F87C00F8
F83E00F8
F83E00F8
F81F00F8
F81F00F8
F80F80F8
F80F80F8
F80F80F8
F807C0F8
F807C0F8
F803E0F8
F803E0F8
F801F0F8
F801F0F8
F801F8F8
F800F8F8
F800FFF8
F8007FF8
F8007FF0
F8003FE0
00000FC0
ENDCHAR
STARTCHAR 039E
ENCODING 926
SWIDTH 675 0
DWIDTH 27 0
BBX 21 27 3 0
BITMAP
FFFFF8
FFFFF8
FFFFF8
FFFFF8
FFFFF8
000000
000000
000000
000000
000000
000000
FFFFF8
FFFFF8
FFFFF8
FFFFF8
000000
000000
000000
000000
000000
000000
000000
FFFFF8
FFFFF8
FFFFF8
FFFFF8
FFFFF8
ENDCHAR
STARTCHAR 039F
ENCODING 927
SWIDTH 825 0
DWIDTH 33 0
BBX 28 27 2 0
BITMAP
00FFF000
03FFFE00
0FFFFF00
1FFFFF80
3FFFFFC0
3F800FE0
7E0003E0
7C0003E0
7C0001F0
780001F0
F80001F0
F80001F0
F80000F0
F80000F0
F80000F0
F80001F0
F80001F0
780001F0
7C0001F0
7C0003F0
7E0003E0
3F000FE0
3FFFFFC0
1FFFFF80
0FFFFF00
03FFFE00
00FFF000
ENDCHAR
STARTCHAR 03A0
ENCODING 928
SWIDTH 750 0
DWIDTH 30 0
BBX 24 27 3 0
BITMAP
7FFFFE
FFFFFE
FFFFFF
FFFFFF
FFFFFF
F8001F
F8001F
F8001F
F8001F
F8001F
F8001F
F8001F
F8001F
F8001F
F8001F
F8001F
F8001F
F8001F
F8001F
F8001F
F8001F
F8001F
F8001F
F8001F
F8001F
F8001F
F8001F
ENDCHAR
STARTCHAR 03A1
ENCODING 929
SWIDTH 675 0
DWIDTH 27 0
BBX 23 27 3 0
BITMAP
FFFF80
FFFFF0
FFFFF8
FFFFFC
FFFFFC
00007C
00003E
00003E
00003E
00003E
00007C
0000FC
3FFFFC
7FFFF8
FFFFF0
FFFFE0
FFFE00
F80000
F80000
F80000
F80000
F80000
F80000
F80000
F80000
F80000
F80000
ENDCHAR
STARTCHAR 03A3
ENCODING 931
SWIDTH 675 0
DWIDTH 27 0
BBX 23 27 2 0
BITMAP
1FFFFE
7FFFFE
7FFFFE
FFFFFE
FFFFFE
F80000
F80000
FC0000
7F8000
3FF000
0FFC00
03FF80
007FC0
001FC0
007FC0
03FF80
1FFC00
3FF000
7F8000
FC0000
F80000
F80000
FFFFFE
FFFFFE
7FFFFE
7FFFFE
1FFFFE
ENDCHAR
STARTCHAR 03A4
ENCODING 932
SWIDTH 575 0
DWIDTH 23 0
BBX 21 27 1 0
BITMAP
FFFFF8
FFFFF8
FFFFF8
FFFFF8
FFFFF8
00F800
00F800
00F800
00F800
00F800
00F800
00F800
00F800
00F800
00F800
00F800
00F800
00F800
00F800
00F800
00F800
00F800
00F800
00F800
00F800
00F800
00F800
ENDCHAR
STARTCHAR 03A5
ENCODING 933
SWIDTH 700 0
DWIDTH 28 0
BBX 26 27 1 0
BITMAP
FC000FC0
7C001F80
7E001F00
3F003F00
1F007E00
1F807C00
0F80F800
07C1F800
03E1F000
03E3E000
01F7E000
00FFC000
00FF8000
007F0000
003F0000
003E0000
003E0000
003E0000
003E0000
003E0000
003E0000
003E0000
003E0000
003E0000
003E0000
003E0000
003E0000
ENDCHAR
STARTCHAR 03A6
ENCODING 934
SWIDTH 850 0
DWIDTH 34 0
BBX 30 27 2 0
BITMAP
00078000
00078000
00078000
01FFFE00
0FFFFF80
1FFFFFE0
3FFFFFF0
3FFFFFF0
7F0783F8
7C0780F8
FC0780F8
F807807C
F807807C
F807807C
F807807C
F807807C
FC0780F8
7C0780F8
7F0783F8
3FFFFFF0
3FFFFFF0
1FFFFFE0
0FFFFFC0
01FFFE00
00078000
00078000
00078000
ENDCHAR
STARTCHAR 03A7
ENCODING 935
SWIDTH 775 0
DWIDTH 31 0
BBX 29 27 1 0
BITMAP
7E0001F8
3F0003F0
1F8007E0
0FC007C0
07C00FC0
03E01F80
03F03F00
01F87E00
00FCFC00
007FF800
003FF000
001FE000
001FE000
001FC000
003FE000
003FF000
007FF800
00FCF800
01F87C00
03F07E00
07E03F00
0FC01F80
0F800FC0
1F8007E0
3F0003E0
7E0003F0
FC0001F8
ENDCHAR
STARTCHAR 03A8
ENCODING 936
SWIDTH 850 0
DWIDTH 34 0
BBX 28 27 3 0
BITMAP
F80F00F0
F80F00F0
F80F00F0
F80F00F0
F80F00F0
F80F00F0
F80F00F0
F80F00F0
F80F00F0
F80F00F0
F80F00F0
F80F00F0
F80F00F0
F80F01F0
FC0F01F0
7E0F07F0
7FFFFFE0
3FFFFFE0
1FFFFFC0
0FFFFF00
000F0000
000F0000
000F0000
000F0000
000F0000
000F0000
000F0000
ENDCHAR
STARTCHAR 03A9
ENCODING 937
SWIDTH 800 0
DWIDTH 32 0
BBX 30 27 1 0
BITMAP
01FFFC00
07FFFF80
0FFFFFC0
1FFFFFE0
3FFFFFF0
3F0003F0
7E0001F0
7C0001F8
7C0000F8
7C0000F8
7C0000F8
7C0000F8
7C0000F0
3C0001F0
3E0003F0
1F0007E0
0FC00FC0
07E01F80
03F03E00
00F87C00
00787800
00787000
FFF87FFC
FFF87FFC
FFF87FFC
FFF03FFC
FFE01FFC
ENDCHAR
STARTCHAR 03AA
ENCODING 938
SWIDTH 300 0
DWIDTH 12 0
BBX 14 35 -1 0
BITMAP
F03C
F03C
F03C
F03C
F03C
0000
0000
0000
0780
0780
0780
0780
0780
0780
0780
0780
0780
0780
0780
0780
0780
0780
0780
0780
0780
0780
0780
0780
0780
0780
0780
0780
0780
0780
0780
ENDCHAR
STARTCHAR 03AB
ENCODING 939
SWIDTH 700 0
DWIDTH 28 0
BBX 26 35 1 0
BITMAP
03C1F000
03C1F000
03C1F000
03C1F000
03C1F000
00000000
00000000
00000000
FC000FC0
7C001F80
7E001F00
3F003F00
1F007E00
1F807C00
0F80F800
07C1F800
03E1F000
03E3E000
01F7E000
00FFC000
00FF8000
007F0000
003F0000
003E0000
003E0000
003E0000
003E0000
003E0000
003E0000
003E0000
003E0000
003E0000
003E0000
003E0000
003E0000
ENDCHAR
STARTCHAR 03AC
ENCODING 940
SWIDTH 725 0
DWIDTH 29 0
BBX 26 31 2 0
BITMAP
003E0000
003C0000
003C0000
003C0000
003C0000
00780000
00780000
00780000
00700000
00000000
07FF07C0
0FFFC7C0
3FFFE780
3FFFEF80
7E03FF80
7C00FF00
F800FF00
F8007E00
F0007E00
F0007E00
F0003C00
F0007E00
F0007E00
F8007E00
F800FF00
7C01FF00
7E03FF80
3FFFEF80
1FFFE780
0FFF87C0
03FE07C0
ENDCHAR
STARTCHAR 03AD
ENCODING 941
SWIDTH 625 0
DWIDTH 25 0
BBX 21 31 2 0
BITMAP
001E00
003C00
003C00
003C00
003C00
007800
007800
007800
007800
000000
0FFFF8
3FFFF8
7FFFF8
7FFFF8
FC0000
F80000
F80000
780000
7C0000
3FFF00
1FFF00
3FFF00
7C0000
780000
F80000
F80000
FC0000
7FFFF8
7FFFF8
3FFFF8
0FFFF8
ENDCHAR
STARTCHAR 03AE
ENCODING 942
SWIDTH 700 0
DWIDTH 28 0
BBX 22 39 3 -8
BITMAP
003C00
007C00
007800
007800
007800
00F000
00F000
00F000
00F000
000000
7FFF00
FFFFC0
FFFFF0
FFFFF8
F001F8
F0007C
F0007C
F0003C
F0003C
F0003C
F0003C
F0003C
F0003C
F0003C
F0003C
F0003C
F0003C
F0003C
F0003C
F0003C
F0003C
00003C
00003C
00003C
00003C
00003C
00003C
00003C
00003C
ENDCHAR
STARTCHAR 03AF
ENCODING 943
SWIDTH 350 0
DWIDTH 14 0
BBX 10 31 3 0
BITMAP
3C00
3C00
3C00
3C00
7800
7800
7800
7000
F000
0000
F000
F000
F000
F000
F000
F000
F000
F000
F000
F000
F000
F000
F000
F000
F000
F000
F800
FFC0
7FC0
7FC0
1FC0
ENDCHAR
STARTCHAR 03B0
ENCODING 944
SWIDTH 700 0
DWIDTH 28 0
BBX 22 31 3 0
BITMAP
003C00
003C00
3C78F0
3C78F0
3C78F0
3C78F0
3CF0F0
00F000
00F000
000000
F0003C
F0003C
F0003C
F0003C
F0003C
F0003C
F0003C
F0003C
F0003C
F0003C
F0003C
F0003C
F0003C
F0003C
F8003C
F8007C
7E01F8
7FFFF8
3FFFF0
1FFFE0
07FF80
ENDCHAR
STARTCHAR 03B1
ENCODING 945
SWIDTH 725 0
DWIDTH 29 0
BBX 26 21 2 0
BITMAP
07FF07C0
0FFFC7C0
3FFFE780
3FFFEF80
7E03FF80
7C00FF00
F800FF00
F8007E00
F0007E00
F0007E00
F0003C00
F0007E00
F0007E00
F8007E00
F800FF00
7C01FF00
7E03FF80
3FFFEF80
1FFFE780
0FFF87C0
03FE07C0
ENDCHAR
STARTCHAR 03B2
ENCODING 946
SWIDTH 675 0
DWIDTH 27 0
BBX 21 38 3 -8
BITMAP
1FFF00
3FFFC0
7FFFE0
7FFFE0
F801F0
F801F0
F000F0
F000F0
F000F0
F000F0
F001F0
F001E0
F07FC0
F07F80
F07FC0
F07FE0
F001F0
F000F0
F000F8
F00078
F00078
F000F8
F000F8
F000F8
F001F0
F003F0
FFFFE0
FFFFE0
FFFFC0
FFFE00
F00000
F00000
F00000
F00000
F00000
F00000
F00000
F00000
ENDCHAR
STARTCHAR 03B3
ENCODING 947
SWIDTH 675 0
DWIDTH 27 0
BBX 25 30 1 -9
BITMAP
F8000780
F8000F80
78000F00
7C001F00
3C001E00
3E003E00
1E003C00
1F007C00
0F007800
0F80F800
0780F000
07C1F000
03C1E000
03E3E000
01E3C000
01F3C000
00F78000
00F78000
007F0000
007F0000
003E0000
003E0000
003E0000
003E0000
003E0000
003E0000
003E0000
003E0000
003E0000
003E0000
ENDCHAR
STARTCHAR 03B4
ENCODING 948
SWIDTH 650 0
DWIDTH 26 0
BBX 22 30 2 0
BITMAP
07FFF0
0FFFF0
1FFFF0
1FFFF0
3E0000
3E0000
3C0000
3E0000
1E0000
1FFF80
0FFFE0
07FFF0
1F03F0
3C00F8
7C0078
780078
F80078
F00078
F0007C
F0007C
F00078
F00078
F80078
F800F8
7C00F8
7E03F0
3FFFF0
1FFFE0
0FFFC0
03FF00
ENDCHAR
STARTCHAR 03B5
ENCODING 949
SWIDTH 625 0
DWIDTH 25 0
BBX 21 21 2 0
BITMAP
0FFFF8
3FFFF8
7FFFF8
7FFFF8
FC0000
F80000
F80000
780000
7C0000
3FFF00
1FFF00
3FFF00
7C0000
780000
F80000
F80000
FC0000
7FFFF8
7FFFF8
3FFFF8
0FFFF8
ENDCHAR
STARTCHAR 03B6
ENCODING 950
SWIDTH 600 0
DWIDTH 24 0
BBX 21 38 2 -8
BITMAP
FFFFC0
FFFFF0
FFFFF0
FFFFF0
0000F8
0000F0
0001F0
0003F0
000FE0
001FC0
007F00
00FE00
01F800
07F000
0FC000
3F8000
3F0000
7C0000
F80000
F80000
F00000
F00000
F00000
F80000
F80000
7E0000
7FFFC0
3FFFE0
1FFFF0
07FFF0
0001F0
0000F0
0000F0
0000F0
0000F0
0000F0
0000F0
0000F0
ENDCHAR
STARTCHAR 03B7
ENCODING 951
SWIDTH 700 0
DWIDTH 28 0
BBX 22 29 3 -8
BITMAP
7FFF00
FFFFC0
FFFFF0
FFFFF8
F001F8
F0007C
F0007C
F0003C
F0003C
F0003C
F0003C
F0003C
F0003C
F0003C
F0003C
F0003C
F0003C
F0003C
F0003C
F0003C
F0003C
00003C
00003C
00003C
00003C
00003C
00003C
00003C
00003C
ENDCHAR
STARTCHAR 03B8
ENCODING 952
SWIDTH 725 0
DWIDTH 29 0
BBX 23 30 3 0
BITMAP
07FF80
1FFFE0
3FFFF0
3FFFF8
7E00F8
78007C
F8003C
F0003C
F0003E
F0003E
F0003E
F0003E
F0003E
FFFFFE
FFFFFE
FFFFFE
FFFFFE
F0003E
F0003E
F0003E
F0003E
F0003E
F0003C
F8003C
78007C
7E01F8
3FFFF8
3FFFF0
0FFFE0
03FF80
ENDCHAR
STARTCHAR 03B9
ENCODING 953
SWIDTH 350 0
DWIDTH 14 0
BBX 10 21 3 0
BITMAP
F000
F000
F000
F000
F000
F000
F000
F000
F000
F000
F000
F000
F000
F000
F000
F000
F800
FFC0
7FC0
7FC0
1FC0
ENDCHAR
STARTCHAR 03BA
ENCODING 954
SWIDTH 600 0
DWIDTH 24 0
BBX 20 21 3 0
BITMAP
F001E0
F003E0
F007C0
F007C0
F00F80
F00F00
F01F00
F03E00
FFFC00
FFF800
FFF800
FFFE00
F03E00
F01F00
F00F80
F00F80
F007C0
F003C0
F003E0
F001E0
F001F0
ENDCHAR
STARTCHAR 03BB
ENCODING 955
SWIDTH 650 0
DWIDTH 26 0
BBX 24 30 1 0
BITMAP
01E000
01F000
00F000
00F800
00F800
007800
007C00
003C00
003E00
001E00
00FF00
01FF00
01FF80
03FF80
03E780
03C7C0
07C3C0
0783E0
0F81E0
0F81F0
0F01F0
1F00F0
1E00F8
3E0078
3C007C
3C003C
7C003E
78003E
F8001E
F0001F
ENDCHAR
STARTCHAR 03BC
ENCODING 956
SWIDTH 775 0
DWIDTH 31 0
BBX 27 29 3 -8
BITMAP
F000F800
F000F800
F000F800
F000F800
F000F800
F000F800
F000F800
F000F800
F000F800
F000F800
F000F800
F000F800
F000F800
F000F800
F000F800
F000F800
F001FC00
FFFFFFE0
FFFFFFE0
FFFFBFE0
FFFE1FE0
F0000000
F0000000
F0000000
F0000000
F0000000
F0000000
F0000000
F0000000
ENDCHAR
STARTCHAR 03BD
ENCODING 957
SWIDTH 675 0
DWIDTH 27 0
BBX 25 22 1 -1
BITMAP
F0000780
F8000F80
78000F00
7C001F00
7C001F00
3C001E00
3E003E00
1E003C00
1F007C00
1F007800
0F00F800
0F80F800
0780F000
07C1F000
03C1E000
03E3E000
03E3C000
01E7C000
01FF8000
00FF8000
00FF0000
003E0000
ENDCHAR
STARTCHAR 03BE
ENCODING 958
SWIDTH 575 0
DWIDTH 23 0
BBX 20 38 2 -8
BITMAP
07FFC0
1FFFC0
3FFFC0
7FFFC0
7E0000
7C0000
780000
780000
780000
780000
3C0000
3F0000
1FFFC0
1FFFC0
3FFFC0
7E0000
780000
F80000
F00000
F00000
F00000
F00000
F80000
F80000
7C0000
7E0000
7FFFC0
3FFFE0
1FFFF0
07FFF0
0001F0
0000F0
0000F0
0000F0
0000F0
0000F0
0000F0
0000F0
ENDCHAR
STARTCHAR 03BF
ENCODING 959
SWIDTH 675 0
DWIDTH 27 0
BBX 23 21 2 0
BITMAP
07FF80
0FFFE0
3FFFF0
3FFFF8
7E00FC
7C007C
F8003C
F8003E
F0003E
F0003E
F0003E
F0003E
F0003E
F8003E
F8003C
7C007C
7E00FC
3FFFF8
1FFFF0
0FFFE0
03FF80
ENDCHAR
STARTCHAR 03C0
ENCODING 960
SWIDTH 750 0
DWIDTH 30 0
BBX 28 21 1 0
BITMAP
FFFFFFF0
FFFFFFF0
FFFFFFF0
FFFFFFF0
0F803E00
0F803E00
0F803E00
0F803E00
0F803E00
0F803E00
0F803E00
0F803E00
0F803E00
0F803E00
0F803E00
0F803E00
0F803E00
0F801FF0
0F801FF0
0F800FF0
0F8007F0
ENDCHAR
STARTCHAR 03C1
ENCODING 961
SWIDTH 700 0
DWIDTH 28 0
BBX 23 29 3 -8
BITMAP
0FFF80
1FFFE0
3FFFF0
7FFFF8
7C00F8
F8007C
F8003C
F0003C
F0003E
F0003E
F0003E
F0003E
F0003E
F0003C
F0003C
F0007C
F001F8
FFFFF8
FFFFF0
FFFFE0
FFFF80
F00000
F00000
F00000
F00000
F00000
F00000
F00000
F00000
ENDCHAR
STARTCHAR 03C2
ENCODING 962
SWIDTH 600 0
DWIDTH 24 0
BBX 20 29 2 -8
BITMAP
07FFE0
0FFFE0
1FFFE0
3FFFE0
7E0000
7C0000
F80000
F80000
F00000
F00000
F00000
F00000
F00000
F80000
F80000
7C0000
7E0000
3FFFC0
1FFFE0
0FFFF0
03FFF0
0001F0
0000F0
0000F0
0000F0
0000F0
0000F0
0000F0
0000F0
ENDCHAR
STARTCHAR 03C3
ENCODING 963
SWIDTH 725 0
DWIDTH 29 0
BBX 25 21 2 0
BITMAP
07FFFF80
0FFFFF80
3FFFFF80
3FFFFF80
7E007800
7C007800
F8007C00
F8003C00
F0003C00
F0003C00
F0003C00
F0003C00
F0003C00
F8003C00
F8007C00
7C007C00
7E01F800
3FFFF800
1FFFF000
0FFFE000
03FF8000
ENDCHAR
STARTCHAR 03C4
ENCODING 964
SWIDTH 600 0
DWIDTH 24 0
BBX 21 21 1 0
BITMAP
FFFFF8
FFFFF8
FFFFF8
FFFFF8
00F800
00F800
00F800
00F800
00F800
00F800
00F800
00F800
00F800
00F800
00F800
007800
007C00
007FE0
007FE0
003FE0
000FE0
ENDCHAR
STARTCHAR 03C5
ENCODING 965
SWIDTH 700 0
DWIDTH 28 0
BBX 22 21 3 0
BITMAP
F0003C
F0003C
F0003C
F0003C
F0003C
F0003C
F0003C
F0003C
F0003C
F0003C
F0003C
F0003C
F0003C
F0003C
F8003C
F8007C
7E01F8
7FFFF8
3FFFF0
1FFFE0
07FF80
ENDCHAR
STARTCHAR 03C6
ENCODING 966
SWIDTH 800 0
DWIDTH 32 0
BBX 28 37 2 -8
BITMAP
000F0000
000F0000
000F0000
000F0000
000F0000
000F0000
000F0000
000F0000
07FFFC00
0FFFFF00
3FFFFFC0
3FFFFFC0
7E0F07E0
7C0F03E0
F80F01F0
F80F01F0
F00F00F0
F00F00F0
F00F00F0
F00F00F0
F00F00F0
F80F01F0
F80F01F0
7C0F03E0
7E0F07E0
3FFFFFC0
1FFFFFC0
0FFFFF00
03FFFC00
000F0000
000F0000
000F0000
000F0000
000F0000
000F0000
000F0000
000F0000
ENDCHAR
STARTCHAR 03C7
ENCODING 967
SWIDTH 675 0
DWIDTH 27 0
BBX 25 30 1 -9
BITMAP
7C001F00
7C001F00
3E003E00
1F007C00
1F007C00
0F80F800
07C1F000
07C1F000
03E3E000
01F7E000
01F7C000
00FF8000
007F8000
007F0000
003E0000
007F0000
00FF0000
00FF8000
01F7C000
03E7C000
03E3E000
07C1F000
0F81F000
0F80F800
1F00FC00
3E007C00
3E003E00
7C003F00
F8001F00
F8000F80
ENDCHAR
STARTCHAR 03C8
ENCODING 968
SWIDTH 800 0
DWIDTH 32 0
BBX 26 33 3 -8
BITMAP
001E0000
001E0000
001E0000
001E0000
F01E03C0
F01E03C0
F01E03C0
F01E03C0
F01E03C0
F01E03C0
F01E03C0
F01E03C0
F01E03C0
F01E03C0
F01E03C0
F01E03C0
F01E03C0
F01E03C0
F81E07C0
F81E07C0
7E1E1F80
7FFFFF80
3FFFFF00
1FFFFE00
07FFF000
001E0000
001E0000
001E0000
001E0000
001E0000
001E0000
001E0000
001E0000
ENDCHAR
STARTCHAR 03C9
ENCODING 969
SWIDTH 950 0
DWIDTH 38 0
BBX 32 21 3 0
BITMAP
F000001F
F000001F
F000001F
F000001F
F000001F
F003C01F
F003C01F
F003C01F
F003C01F
F003C01F
F003C01F
F003C01F
F003C01F
F003C01F
F007C01F
F807E01E
7C0FF07E
7FFFFFFE
3FFEFFFC
1FFC7FF8
07F81FE0
ENDCHAR
STARTCHAR 03CA
ENCODING 970
SWIDTH 375 0
DWIDTH 15 0
BBX 14 29 0 0
BITMAP
F078
F078
F078
F078
F078
0000
0000
0000
0F00
0F00
0F00
0F00
0F00
0F00
0F00
0F00
0F00
0F00
0F00
0F00
0F00
0F00
0F00
0F80
0F80
07FC
07FC
03FC
01FC
ENDCHAR
STARTCHAR 03CB
ENCODING 971
SWIDTH 700 0
DWIDTH 28 0
BBX 22 29 3 0
BITMAP
0F03C0
0F03C0
0F03C0
0F03C0
0F03C0
000000
000000
000000
F0003C
F0003C
F0003C
F0003C
F0003C
F0003C
F0003C
F0003C
F0003C
F0003C
F0003C
F0003C
F0003C
F0003C
F8003C
F8007C
7E01F8
7FFFF8
3FFFF0
1FFFE0
07FF80
ENDCHAR
STARTCHAR 03CC
ENCODING 972
SWIDTH 675 0
DWIDTH 27 0
BBX 23 31 2 0
BITMAP
001E00
003E00
003C00
003C00
003C00
007800
007800
007800
007800
000000
07FF80
0FFFE0
3FFFF0
3FFFF8
7E00FC
7C007C
F8003C
F8003E
F0003E
F0003E
F0003E
F0003E
F0003E
F8003E
F8003C
7C007C
7E00FC
3FFFF8
1FFFF0
0FFFE0
03FF80
ENDCHAR
STARTCHAR 03CD
ENCODING 973
SWIDTH 700 0
DWIDTH 28 0
BBX 22 31 3 0
BITMAP
001E00
003E00
003C00
003C00
003C00
007800
007800
007800
007800
000000
F0003C
F0003C
F0003C
F0003C
F0003C
F0003C
F0003C
F0003C
F0003C
F0003C
F0003C
F0003C
F0003C
F0003C
F8003C
F8007C
7E01F8
7FFFF8
3FFFF0
1FFFE0
07FF80
ENDCHAR
STARTCHAR 03CE
ENCODING 974
SWIDTH 950 0
DWIDTH 38 0
BBX 32 31 3 0
BITMAP
0001E000
0001E000
0001E000
0003E000
0003C000
0003C000
0003C000
00038000
00078000
00000000
F000001F
F000001F
F000001F
F000001F
F000001F
F003C01F
F003C01F
F003C01F
F003C01F
F003C01F
F003C01F
F003C01F
F003C01F
F003C01F
F007C01F
F807E01E
7C0FF07E
7FFFFFFE
3FFEFFFC
1FFC7FF8
07F81FE0
ENDCHAR
STARTCHAR 0400
ENCODING 1024
SWIDTH 700 0
DWIDTH 28 0
BBX 23 37 2 0
BITMAP
00F800
007C00
003C00
003E00
001E00
001F00
000F00
000780
000780
000000
07FFFE
1FFFFE
3FFFFE
7FFFFE
7FFFFE
FC0000
FC0000
F80000
F80000
7C0000
7E0000
3FFFFE
1FFFFE
1FFFFE
3FFFFE
7E0000
7C0000
F80000
F80000
F80000
F80000
FC0000
7FFFFE
7FFFFE
3FFFFE
1FFFFE
07FFFE
ENDCHAR
STARTCHAR 0401
ENCODING 1025
SWIDTH 700 0
DWIDTH 28 0
BBX 23 35 2 0
BITMAP
03E0F0
03E0F0
03E0F0
03E0F0
03E0F0
000000
000000
000000
07FFFE
1FFFFE
3FFFFE
7FFFFE
7FFFFE
FC0000
FC0000
F80000
F80000
7C0000
7E0000
3FFFFE
1FFFFE
1FFFFE
3FFFFE
7E0000
7C0000
F80000
F80000
F80000
F80000
FC0000
7FFFFE
7FFFFE
3FFFFE
1FFFFE
07FFFE
ENDCHAR
STARTCHAR 0402
ENCODING 1026
SWIDTH 825 0
DWIDTH 33 0
BBX 29 35 1 -8
BITMAP
FFFFFE00
FFFFFE00
FFFFFE00
FFFFFE00
FFFFFE00
01F00000
01F00000
01F00000
01F00000
01F00000
01FFFE00
01FFFF80
01FFFFC0
01FFFFE0
01FFFFF0
01F003F0
01F001F0
01F001F0
01F000F8
01F000F8
01F000F8
01F000F8
01F000F8
01F000F8
01F000F8
01F000F8
01F000F0
000001F0
000001F0
000003F0
000007E0
0001FFE0
0001FFC0
0001FF80
0001FE00
ENDCHAR
STARTCHAR 0403
ENCODING 1027
SWIDTH 625 0
DWIDTH 25 0
BBX 21 37 3 0
BITMAP
000F80
000F00
001F00
001E00
003E00
003C00
007800
00F800
00F000
000000
03FFF8
0FFFF8
3FFFF8
3FFFF8
7FFFF8
7E0000
FC0000
F80000
F80000
F80000
F80000
F80000
F80000
F80000
F80000
F80000
F80000
F80000
F80000
F80000
F80000
F80000
F80000
F80000
F80000
F80000
F80000
ENDCHAR
STARTCHAR 0404
ENCODING 1028
SWIDTH 675 0
DWIDTH 27 0
BBX 23 27 2 0
BITMAP
00FFFE
03FFFE
0FFFFE
1FFFFE
3FFFFE
3F0000
7E0000
7C0000
7C0000
780000
F80000
FFFFE0
FFFFE0
FFFFE0
FFFFE0
F80000
F80000
780000
7C0000
7C0000
7E0000
3F0000
3FFFFE
1FFFFE
0FFFFE
03FFFE
00FFFE
ENDCHAR
STARTCHAR 0405
ENCODING 1029
SWIDTH 700 0
DWIDTH 28 0
BBX 24 27 2 0
BITMAP
07FFFC
1FFFFC
3FFFFC
7FFFFC
7FFFFC
FC0000
F80000
F80000
F80000
F80000
FC0000
7FFFE0
7FFFF8
3FFFFC
0FFFFE
0000FF
00001F
00001F
00001F
00001F
00001F
00003F
7FFFFF
7FFFFE
7FFFFC
7FFFF8
7FFFE0
ENDCHAR
STARTCHAR 0406
ENCODING 1030
SWIDTH 275 0
DWIDTH 11 0
BBX 5 27 3 0
BITMAP
F8
F8
F8
F8
F8
F8
F8
F8
F8
F8
F8
F8
F8
F8
F8
F8
F8
F8
F8
F8
F8
F8
F8
F8
F8
F8
F8
ENDCHAR
STARTCHAR 0407
ENCODING 1031
SWIDTH 325 0
DWIDTH 13 0
BBX 14 35 -1 0
BITMAP
F83C
F83C
F83C
F83C
F83C
0000
0000
0000
07C0
07C0
07C0
07C0
07C0
07C0
07C0
07C0
07C0
07C0
07C0
07C0
07C0
07C0
07C0
07C0
07C0
07C0
07C0
07C0
07C0
07C0
07C0
07C0
07C0
07C0
07C0
ENDCHAR
STARTCHAR 0408
ENCODING 1032
SWIDTH 575 0
DWIDTH 23 0
BBX 19 27 1 0
BITMAP
0001E0
0001E0
0001E0
0001E0
0001E0
0001E0
0001E0
0001E0
0001E0
0001E0
0001E0
0001E0
0001E0
0001E0
0001E0
0001E0
0001E0
0001E0
0003E0
0003E0
0003E0
0007E0
FFFFC0
FFFFC0
FFFF80
FFFF00
FFF800
ENDCHAR
STARTCHAR 0409
ENCODING 1033
SWIDTH 1100 0
DWIDTH 44 0
BBX 41 28 1 0
BITMAP
0001F0000000
0007FC000000
0007FE000000
000FFE000000
000FFE000000
001F1E000000
001E1E000000
003E1E000000
003E1E000000
007C1E000000
007C1E000000
00F81FFFF000
00F81FFFFC00
00F01FFFFE00
01F00FFFFF00
01F003FFFF00
03E000001F80
03E000000F80
07C000000F80
07C000000F80
0F8000000F80
0F8000000F80
1F8000001F80
FF001FFFFF00
FE001FFFFF00
FE001FFFFE00
FC001FFFFC00
F0001FFFF000
ENDCHAR
STARTCHAR 040A
ENCODING 1034
SWIDTH 1100 0
DWIDTH 44 0
BBX 40 27 3 0
BITMAP
F8003E0000
F8003E0000
F8003E0000
F8003E0000
F8003E0000
F8003E0000
F8003E0000
F8003E0000
F8003E0000
F8003E0000
FFFFFFFF00
FFFFFFFFF0
FFFFFFFFF8
FFFFFFFFFC
FFFFFFFFFE
F80000007E
F80000001F
F80000001F
F80000001F
F80000001F
F80000001F
F80000003F
F8003FFFFE
F8003FFFFE
F8003FFFFC
F8003FFFF8
F8003FFFE0
ENDCHAR
STARTCHAR 040B
ENCODING 1035
SWIDTH 825 0
DWIDTH 33 0
BBX 29 27 1 0
BITMAP
FFFFFE00
FFFFFE00
FFFFFE00
FFFFFE00
FFFFFE00
01F00000
01F00000
01F00000
01F00000
01F00000
01FFFE00
01FFFF80
01FFFFC0
01FFFFE0
01FFFFF0
01F003F0
01F001F0
01F000F0
01F000F8
01F000F8
01F000F8
01F000F8
01F000F8
01F000F8
01F000F8
01F000F8
01F000F8
ENDCHAR
STARTCHAR 040C
ENCODING 1036
SWIDTH 700 0
DWIDTH 28 0
BBX 24 37 3 0
BITMAP
003E00
003C00
007C00
007800
00F000
01F000
01E000
03E000
03C000
000000
F8003E
F8003E
F8007C
F8007C
F800F8
F800F8
F801F8
F801F0
F803F0
F803E0
F807C0
F81FC0
FFFF80
FFFE00
FFFF80
FFFFC0
F80FE0
F803E0
F801F0
F801F8
F800F8
F800FC
F8007C
F8007E
F8003E
F8003F
F8001F
ENDCHAR
STARTCHAR 040D
ENCODING 1037
SWIDTH 875 0
DWIDTH 35 0
BBX 29 39 3 -1
BITMAP
007C0000
007C0000
003E0000
001E0000
001F0000
000F0000
000F8000
00078000
0007C000
00000000
00000FC0
F8003FE0
F8007FF0
F8007FF8
F800FFF8
F800F8F8
F800F8F8
F801F0F8
F801F0F8
F803E0F8
F803E0F8
F807C0F8
F807C0F8
F80FC0F8
F80F80F8
F80F80F8
F81F00F8
F81F00F8
F83E00F8
F83E00F8
F87E00F8
F87C00F8
F87C00F8
F8F800F8
FFF800F8
7FF000F8
7FF000F8
3FE000F8
0F800000
ENDCHAR
STARTCHAR 040E
ENCODING 1038
SWIDTH 725 0
DWIDTH 29 0
BBX 27 37 1 0
BITMAP
07007800
07007800
07007800
07007800
07007800
07C0F800
07FFF000
03FFE000
007F8000
00000000
F80003E0
FC0007E0
7C0007C0
3E000FC0
3E000F80
1F001F00
1F803F00
0F803E00
0FC07E00
07C07C00
03E0FC00
03E1F800
01F1F000
01F3F000
00FBE000
00FFE000
007FC000
003F8000
003F8000
001F0000
003F0000
007E0000
3FFC0000
3FFC0000
3FF80000
3FF00000
3FC00000
ENDCHAR
STARTCHAR 040F
ENCODING 1039
SWIDTH 750 0
DWIDTH 30 0
BBX 24 35 3 -8
BITMAP
F8001F
F8001F
F8001F
F8001F
F8001F
F8001F
F8001F
F8001F
F8001F
F8001F
F8001F
F8001F
F8001F
F8001F
F8001F
F8001F
F8001F
F8001F
F8001F
F8001F
F8001F
F8001F
FFFFFF
FFFFFF
FFFFFF
FFFFFE
7FFFFE
003C00
003C00
003C00
003C00
003C00
003C00
003C00
003C00
ENDCHAR
STARTCHAR 0410
ENCODING 1040
SWIDTH 775 0
DWIDTH 31 0
BBX 29 28 1 0
BITMAP
000FC000
003FE000
003FF000
007FF800
007FF800
00FCF800
00F8FC00
00F87C00
01F87C00
01F03E00
01F03E00
03E03F00
03E01F00
07E01F00
07C01F80
07C00F80
0F800F80
0F800FC0
1FFFFFC0
1FFFFFC0
1FFFFFE0
3FFFFFE0
3E0003F0
7E0001F0
7C0001F0
7C0001F8
FC0000F8
F80000F8
ENDCHAR
STARTCHAR 0411
ENCODING 1041
SWIDTH 675 0
DWIDTH 27 0
BBX 23 27 3 0
BITMAP
7FFF80
FFFF80
FFFF80
FFFF80
FFFF80
F80000
F80000
F80000
F80000
F80000
FFFE00
FFFFE0
FFFFF0
7FFFF8
3FFFFC
0000FC
00007C
00003E
00003E
00003E
00003E
00007C
FFFFFC
FFFFFC
FFFFF8
FFFFF0
FFFFC0
ENDCHAR
STARTCHAR 0412
ENCODING 1042
SWIDTH 725 0
DWIDTH 29 0
BBX 24 27 3 0
BITMAP
7FFFC0
FFFFF8
FFFFFC
FFFFFC
FFFFFE
F8003E
F8003E
F8001E
F8001E
F8003E
F8007E
FFFFFC
FFFFF8
FFFFF0
FFFFFC
F8007E
F8003E
F8001E
F8001E
F8001F
F8003E
F8003E
FFFFFE
FFFFFE
FFFFFC
FFFFF8
7FFFC0
ENDCHAR
STARTCHAR 0413
ENCODING 1043
SWIDTH 625 0
DWIDTH 25 0
BBX 21 27 3 0
BITMAP
03FFF8
0FFFF8
3FFFF8
3FFFF8
7FFFF8
7E0000
FC0000
F80000
F80000
F80000
F80000
F80000
F80000
F80000
F80000
F80000
F80000
F80000
F80000
F80000
F80000
F80000
F80000
F80000
F80000
F80000
F80000
ENDCHAR
STARTCHAR 0414
ENCODING 1044
SWIDTH 825 0
DWIDTH 33 0
BBX 31 36 1 -8
BITMAP
00007C00
0001FF00
0001FF80
0003FF80
0003FF80
0007C780
00078780
000F8780
000F8780
001F0780
001F0780
003E0780
003E0780
003C0780
007C0780
007C0780
00F80780
00F80780
01F00780
01F00780
03E00780
03E00780
07E00780
FFFFFFFE
FFFFFFFE
FFFFFFFE
FFFFFFFE
FFFFFFFE
F000001E
F000001E
F000001E
F000001E
F000001E
F000001E
F000001E
F000001E
ENDCHAR
STARTCHAR 0415
ENCODING 1045
SWIDTH 700 0
DWIDTH 28 0
BBX 23 27 2 0
BITMAP
07FFFE
1FFFFE
3FFFFE
7FFFFE
7FFFFE
FC0000
FC0000
F80000
F80000
7C0000
7E0000
3FFFFE
1FFFFE
1FFFFE
3FFFFE
7E0000
7C0000
F80000
F80000
F80000
F80000
FC0000
7FFFFE
7FFFFE
3FFFFE
1FFFFE
07FFFE
ENDCHAR
STARTCHAR 0416
ENCODING 1046
SWIDTH 1125 0
DWIDTH 45 0
BBX 43 27 1 0
BITMAP
7C001F0007E0
7C001F0007C0
3E001F000FC0
3E001F000F80
1F001F001F80
1F001F001F00
0F801F003F00
0F801F003E00
07C01F007E00
07C01F007C00
03E01F00F800
01F81F03F800
00FFFFFFF000
007FFFFFC000
01FFFFFFF000
03FFFFFFF800
07F01F01FC00
07C01F007E00
0FC01F003E00
0F801F003F00
1F801F001F00
1F001F001F80
3E001F000F80
3E001F000FC0
7C001F0007C0
7C001F0007E0
F8001F0003E0
ENDCHAR
STARTCHAR 0417
ENCODING 1047
SWIDTH 675 0
DWIDTH 27 0
BBX 23 27 2 0
BITMAP
FFFFC0
FFFFF0
FFFFF8
FFFFFC
FFFFFC
00007E
00003E
00003E
00003E
00003E
0000FC
03FFF8
03FFF0
03FFF0
03FFF8
0000FC
00007C
00003E
00003E
00003E
00003E
00007E
FFFFFC
FFFFFC
FFFFF8
FFFFF0
FFFFC0
ENDCHAR
STARTCHAR 0418
ENCODING 1048
SWIDTH 875 0
DWIDTH 35 0
BBX 29 29 3 -1
BITMAP
00000FC0
F8003FE0
F8007FF0
F8007FF8
F800FFF8
F800F8F8
F800F8F8
F801F0F8
F801F0F8
F803E0F8
F803E0F8
F807C0F8
F807C0F8
F80FC0F8
F80F80F8
F80F80F8
F81F00F8
F81F00F8
F83E00F8
F83E00F8
F87E00F8
F87C00F8
F87C00F8
F8F800F8
FFF800F8
7FF000F8
7FF000F8
3FE000F8
0F800000
ENDCHAR
STARTCHAR 0419
ENCODING 1049
SWIDTH 875 0
DWIDTH 35 0
BBX 29 39 3 -1
BITMAP
03C01E00
03C01E00
03C01E00
03C01E00
03C01C00
01E03C00
01FFFC00
00FFF800
003FE000
00000000
00000FC0
F8003FE0
F8007FF0
F8007FF8
F800FFF8
F800F8F8
F800F8F8
F801F0F8
F801F0F8
F803E0F8
F803E0F8
F807C0F8
F807C0F8
F80FC0F8
F80F80F8
F80F80F8
F81F00F8
F81F00F8
F83E00F8
F83E00F8
F87E00F8
F87C00F8
F87C00F8
F8F800F8
FFF800F8
7FF000F8
7FF000F8
3FE000F8
0F800000
ENDCHAR
STARTCHAR 041A
ENCODING 1050
SWIDTH 700 0
DWIDTH 28 0
BBX 24 27 3 0
BITMAP
F8003E
F8003E
F8007C
F8007C
F800F8
F800F8
F801F8
F801F0
F803F0
F803E0
F807C0
F81FC0
FFFF80
FFFE00
FFFF80
FFFFC0
F80FE0
F803E0
F801F0
F801F8
F800F8
F800FC
F8007C
F8007E
F8003E
F8003F
F8001F
ENDCHAR
STARTCHAR 041B
ENCODING 1051
SWIDTH 700 0
DWIDTH 28 0
BBX 23 28 1 0
BITMAP
0001F0
0007FC
0007FE
000FFE
000FFE
001F1E
001E1E
003E1E
003E1E
007C1E
007C1E
00781E
00F81E
00F01E
01F01E
01F01E
03E01E
03E01E
07C01E
07C01E
0F801E
0F801E
1F801E
FF001E
FE001E
FE001E
FC001E
F0001E
ENDCHAR
STARTCHAR 041C
ENCODING 1052
SWIDTH 1100 0
DWIDTH 44 0
BBX 38 29 3 -1
BITMAP
0FC0000FC0
3FE0001FF0
7FF0003FF8
7FF8007FF8
FFF8007FFC
F87C007C7C
F87C00F87C
F87C00F87C
F87C00F87C
F87C00F87C
F83E00F07C
F83E01F07C
F83E01F07C
F83E01F07C
F81F01E07C
F81F03E07C
F81F03E07C
F81F03E07C
F80F03E07C
F80F83C07C
F80F87C07C
F80F87C07C
F80F87C07C
F807C7807C
F807FF807C
F807FF807C
F803FF007C
F801FE007C
0000FC0000
ENDCHAR
STARTCHAR 041D
ENCODING 1053
SWIDTH 750 0
DWIDTH 30 0
BBX 24 27 3 0
BITMAP
F8001F
F8001F
F8001F
F8001F
F8001F
F8001F
F8001F
F8001F
F8001F
F8001F
F8001F
FFFFFF
FFFFFF
FFFFFF
FFFFFF
FFFFFF
F8001F
F8001F
F8001F
F8001F
F8001F
F8001F
F8001F
F8001F
F8001F
F8001F
F8001F
ENDCHAR
STARTCHAR 041E
ENCODING 1054
SWIDTH 825 0
DWIDTH 33 0
BBX 28 27 2 0
BITMAP
00FFF000
03FFFE00
0FFFFF00
1FFFFF80
3FFFFFC0
3F800FE0
7E0003E0
7C0003E0
7C0001F0
780001F0
F80001F0
F80001F0
F80000F0
F80000F0
F80000F0
F80001F0
F80001F0
780001F0
7C0001F0
7C0003F0
7E0003E0
3F000FE0
3FFFFFC0
1FFFFF80
0FFFFF00
03FFFE00
00FFF000
ENDCHAR
STARTCHAR 041F
ENCODING 1055
SWIDTH 750 0
DWIDTH 30 0
BBX 24 27 3 0
BITMAP
7FFFFE
FFFFFE
FFFFFF
FFFFFF
FFFFFF
F8001F
F8001F
F8001F
F8001F
F8001F
F8001F
F8001F
F8001F
F8001F
F8001F
F8001F
F8001F
F8001F
F8001F
F8001F
F8001F
F8001F
F8001F
F8001F
F8001F
F8001F
F8001F
ENDCHAR
STARTCHAR 0420
ENCODING 1056
SWIDTH 675 0
DWIDTH 27 0
BBX 23 27 3 0
BITMAP
FFFF80
FFFFF0
FFFFF8
FFFFFC
FFFFFC
00007C
00003E
00003E
00003E
00003E
00007C
0000FC
3FFFFC
7FFFF8
FFFFF0
FFFFE0
FFFE00
F80000
F80000
F80000
F80000
F80000
F80000
F80000
F80000
F80000
F80000
ENDCHAR
STARTCHAR 0421
ENCODING 1057
SWIDTH 675 0
DWIDTH 27 0
BBX 23 27 2 0
BITMAP
00FFFE
03FFFE
0FFFFE
1FFFFE
3FFFFE
3F8000
7E0000
7C0000
7C0000
780000
F80000
F80000
F80000
F80000
F80000
F80000
F80000
780000
7C0000
7C0000
7E0000
3F0000
1FFFFE
1FFFFE
0FFFFE
03FFFE
00FFFE
ENDCHAR
STARTCHAR 0422
ENCODING 1058
SWIDTH 575 0
DWIDTH 23 0
BBX 21 27 1 0
BITMAP
FFFFF8
FFFFF8
FFFFF8
FFFFF8
FFFFF8
00F800
00F800
00F800
00F800
00F800
00F800
00F800
00F800
00F800
00F800
00F800
00F800
00F800
00F800
00F800
00F800
00F800
00F800
00F800
00F800
00F800
00F800
ENDCHAR
STARTCHAR 0423
ENCODING 1059
SWIDTH 725 0
DWIDTH 29 0
BBX 27 27 1 0
BITMAP
F80003E0
FC0007E0
7C0007C0
3E000FC0
3E000F80
1F001F00
1F803F00
0F803E00
0FC07E00
07C07C00
03E0FC00
03E1F800
01F1F000
01F3F000
00FBE000
00FFE000
007FC000
003F8000
003F8000
001F0000
003F0000
007E0000
3FFC0000
3FFC0000
3FF80000
3FF00000
3FC00000
ENDCHAR
STARTCHAR 0424
ENCODING 1060
SWIDTH 850 0
DWIDTH 34 0
BBX 30 27 2 0
BITMAP
00078000
00078000
00078000
01FFFE00
0FFFFF80
1FFFFFE0
3FFFFFF0
3FFFFFF0
7F0783F8
7C0780F8
FC0780F8
F807807C
F807807C
F807807C
F807807C
F807807C
FC0780F8
7C0780F8
7F0783F8
3FFFFFF0
3FFFFFF0
1FFFFFE0
0FFFFFC0
01FFFE00
00078000
00078000
00078000
ENDCHAR
STARTCHAR 0425
ENCODING 1061
SWIDTH 775 0
DWIDTH 31 0
BBX 29 27 1 0
BITMAP
7E0001F8
3F0003F0
1F8007E0
0FC007C0
07C00FC0
03E01F80
03F03F00
01F87E00
00FCFC00
007FF800
003FF000
001FE000
001FE000
001FC000
003FE000
003FF000
007FF800
00FCF800
01F87C00
03F07E00
07E03F00
0FC01F80
0F800FC0
1F8007E0
3F0003E0
7E0003F0
FC0001F8
ENDCHAR
STARTCHAR 0426
ENCODING 1062
SWIDTH 825 0
DWIDTH 33 0
BBX 29 35 3 -8
BITMAP
F8001F00
F8001F00
F8001F00
F8001F00
F8001F00
F8001F00
F8001F00
F8001F00
F8001F00
F8001F00
F8001F00
F8001F00
F8001F00
F8001F00
F8001F00
F8001F00
F8001F00
F8001F00
F8001F00
F8001F00
F8001F00
F8001F00
FFFFFFF8
FFFFFFF8
FFFFFFF8
FFFFFFF8
7FFFFFF8
00000078
00000078
00000078
00000078
00000078
00000078
00000078
00000078
ENDCHAR
STARTCHAR 0427
ENCODING 1063
SWIDTH 725 0
DWIDTH 29 0
BBX 23 27 3 0
BITMAP
F8003E
F8003E
F8003E
F8003E
F8003E
F8003E
F8003E
F8003E
F8003E
F8003E
F8003E
F8003E
FC003E
FE003E
7FFFFE
7FFFFE
3FFFFE
1FFFFE
03FFFE
00003E
00003E
00003E
00003E
00003E
00003E
00003E
00003E
ENDCHAR
STARTCHAR 0428
ENCODING 1064
SWIDTH 1000 0
DWIDTH 40 0
BBX 34 27 3 0
BITMAP
F801E007C0
F801E007C0
F801E007C0
F801E007C0
F801E007C0
F801E007C0
F801E007C0
F801E007C0
F801E007C0
F801E007C0
F801E007C0
F801E007C0
F801E007C0
F801E007C0
F801E007C0
F801E007C0
F801E007C0
F801E007C0
F801E007C0
F801E007C0
F801E007C0
F801E007C0
FFFFFFFFC0
FFFFFFFFC0
FFFFFFFFC0
FFFFFFFFC0
7FFFFFFF80
ENDCHAR
STARTCHAR 0429
ENCODING 1065
SWIDTH 1075 0
DWIDTH 43 0
BBX 39 35 3 -8
BITMAP
F801E007C0
F801E007C0
F801E007C0
F801E007C0
F801E007C0
F801E007C0
F801E007C0
F801E007C0
F801E007C0
F801E007C0
F801E007C0
F801E007C0
F801E007C0
F801E007C0
F801E007C0
F801E007C0
F801E007C0
F801E007C0
F801E007C0
F801E007C0
F801E007C0
F801E007C0
FFFFFFFFFE
FFFFFFFFFE
FFFFFFFFFE
FFFFFFFFFE
7FFFFFFFFE
000000001E
000000001E
000000001E
000000001E
000000001E
000000001E
000000001E
000000001E
ENDCHAR
STARTCHAR 042A
ENCODING 1066
SWIDTH 800 0
DWIDTH 32 0
BBX 29 27 1 0
BITMAP
FFC00000
FFE00000
FFE00000
FFE00000
FFE00000
01E00000
01E00000
01E00000
01E00000
01E00000
01FFF800
01FFFF80
01FFFFE0
01FFFFE0
00FFFFF0
000001F8
000000F8
000000F8
000000F8
000000F8
000000F8
000001F8
01FFFFF8
01FFFFF0
01FFFFE0
01FFFFC0
01FFFF00
ENDCHAR
STARTCHAR 042B
ENCODING 1067
SWIDTH 925 0
DWIDTH 37 0
BBX 31 27 3 0
BITMAP
F800003E
F800003E
F800003E
F800003E
F800003E
F800003E
F800003E
F800003E
F800003E
F800003E
FFFE003E
FFFFE03E
FFFFF03E
7FFFF83E
3FFFFC3E
0000FC3E
00007C3E
00003E3E
00003E3E
00003E3E
00003E3E
00007C3E
FFFFFC3E
FFFFFC3E
FFFFF83E
FFFFF03E
FFFFC03E
ENDCHAR
STARTCHAR 042C
ENCODING 1068
SWIDTH 675 0
DWIDTH 27 0
BBX 23 27 3 0
BITMAP
F80000
F80000
F80000
F80000
F80000
F80000
F80000
F80000
F80000
F80000
FFFE00
FFFFE0
FFFFF0
7FFFF8
3FFFFC
0000FC
00007C
00003E
00003E
00003E
00003E
00007C
FFFFFC
FFFFFC
FFFFF8
FFFFF0
FFFFC0
ENDCHAR
STARTCHAR 042D
ENCODING 1069
SWIDTH 675 0
DWIDTH 27 0
BBX 23 27 2 0
BITMAP
FFFE00
FFFF80
FFFFE0
FFFFF0
FFFFF8
0001F8
0000FC
00007C
00003C
00003E
00003E
0FFFFE
0FFFFE
0FFFFE
0FFFFE
00003E
00003E
00003E
00007C
00007C
0000FC
0001F8
FFFFF8
FFFFF0
FFFFE0
FFFF80
FFFE00
ENDCHAR
STARTCHAR 042E
ENCODING 1070
SWIDTH 1075 0
DWIDTH 43 0
BBX 37 27 3 0
BITMAP
F8007FF800
F801FFFF00
F807FFFF80
F80FFFFFC0
F80FFFFFE0
F81FC007F0
F83F0001F0
F83E0001F8
F83E0000F8
F83C0000F8
F87C0000F8
FFFC000078
FFFC000078
FFFC000078
FFFC000078
F87C000078
F83C0000F8
F83E0000F8
F83E0000F8
F83E0001F8
F81F0001F0
F81F8007F0
F80FFFFFE0
F80FFFFFC0
F807FFFF80
F801FFFF00
F8007FF800
ENDCHAR
STARTCHAR 042F
ENCODING 1071
SWIDTH 725 0
DWIDTH 29 0
BBX 23 27 2 0
BITMAP
07FFFE
1FFFFE
3FFFFE
7FFFFE
7FFFFE
FC0000
F80000
F80000
F80000
F80000
F80000
7C0000
7FFFFC
3FFFFE
1FFFFE
0FFFFE
03FFFE
07C01E
0FC01E
0F801E
1F801E
1F001E
3E001E
7E001E
7C001E
FC001E
F8001E
ENDCHAR
STARTCHAR 0430
ENCODING 1072
SWIDTH 675 0
DWIDTH 27 0
BBX 21 21 3 0
BITMAP
7FFF80
7FFFE0
7FFFF0
7FFFF0
0000F8
0000F8
000078
000078
000078
3FFFF8
7FFFF8
FFFFF8
F80078
F00078
F00078
F00078
F80078
FFFFF8
7FFFF8
3FFFF0
1FFFE0
ENDCHAR
STARTCHAR 0431
ENCODING 1073
SWIDTH 700 0
DWIDTH 28 0
BBX 23 33 3 0
BITMAP
000078
000078
000078
0FFFF8
3FFFF8
7FFFF8
7FFFF0
FC0000
F80000
F00000
F00000
F00000
F00000
FFFF00
FFFFE0
FFFFF0
FFFFF8
F000FC
F0007C
F0003C
F0003E
F0003E
F0003E
F0003E
F0003E
F0003E
F8003C
F8007C
7C00FC
7FFFF8
3FFFF0
1FFFE0
07FF80
ENDCHAR
STARTCHAR 0432
ENCODING 1074
SWIDTH 625 0
DWIDTH 25 0
BBX 20 21 3 0
BITMAP
7FFF00
FFFFC0
FFFFE0
FFFFE0
F001F0
F001F0
F001F0
F001F0
F003E0
FFFFC0
FFFF80
FFFFC0
F001E0
F001F0
F000F0
F001F0
F001F0
FFFFF0
FFFFE0
FFFFC0
7FFF00
ENDCHAR
STARTCHAR 0433
ENCODING 1075
SWIDTH 450 0
DWIDTH 18 0
BBX 14 21 3 0
BITMAP
1FFC
7FFC
7FFC
FFFC
F800
F000
F000
F000
F000
F000
F000
F000
F000
F000
F000
F000
F000
F000
F000
F000
F000
ENDCHAR
STARTCHAR 0434
ENCODING 1076
SWIDTH 675 0
DWIDTH 27 0
BBX 25 30 1 -8
BITMAP
0007C000
000FF000
001FF000
001FF800
003C7800
007C7800
00787800
00F87800
00F07800
01F07800
01E07800
03E07800
03C07800
07C07800
07807800
0F807800
0F007800
1F007800
FFFFFF80
FFFFFF80
FFFFFF80
FFFFFF80
F0000F80
F0000F80
F0000F80
F0000F80
F0000F80
F0000F80
F0000F80
F0000F80
ENDCHAR
STARTCHAR 0435
ENCODING 1077
SWIDTH 650 0
DWIDTH 26 0
BBX 21 21 3 0
BITMAP
1FFF80
3FFFE0
7FFFF0
FFFFF0
F800F8
F00078
F00078
F00078
F000F8
FFFFF0
FFFFF0
FFFFC0
F00000
F00000
F00000
F00000
F80000
FFFFF0
7FFFF0
3FFFF0
0FFFF0
ENDCHAR
STARTCHAR 0436
ENCODING 1078
SWIDTH 950 0
DWIDTH 38 0
BBX 36 21 1 0
BITMAP
7800F003E0
7C00F003C0
3E00F007C0
1E00F00780
1F00F00F80
0F00F00F00
0F80F01F00
07C0F03E00
03FFFFFC00
01FFFFF800
01FFFFF800
07FFFFFC00
07C0F03E00
0F80F01F00
1F00F00F00
1F00F00F80
3E00F007C0
3C00F007C0
7C00F003E0
7800F003E0
F800F001F0
ENDCHAR
STARTCHAR 0437
ENCODING 1079
SWIDTH 625 0
DWIDTH 25 0
BBX 20 21 3 0
BITMAP
FFFF00
FFFFC0
FFFFE0
FFFFF0
0001F0
0001F0
0001F0
0001F0
0003E0
0FFFC0
0FFF80
0FFFE0
0001E0
0001F0
0000F0
0001F0
0003F0
FFFFF0
FFFFE0
FFFFC0
FFFF00
ENDCHAR
STARTCHAR 0438
ENCODING 1080
SWIDTH 725 0
DWIDTH 29 0
BBX 23 22 3 -1
BITMAP
F000F8
F003FC
F007FE
F007FE
F0071E
F00F1E
F00F1E
F01E1E
F01E1E
F03C1E
F03C1E
F0381E
F0781E
F0701E
F0F01E
F0E01E
F1E01E
F1C01E
FFC01E
7F801E
7F801E
3F0000
ENDCHAR
STARTCHAR 0439
ENCODING 1081
SWIDTH 725 0
DWIDTH 29 0
BBX 23 32 3 -1
BITMAP
0E00F0
0E00F0
0E00F0
0E00F0
0E00F0
0F01E0
0FFFE0
07FFC0
01FF00
000000
F000F8
F003FC
F007FE
F007FE
F0071E
F00F1E
F00F1E
F01E1E
F01E1E
F03C1E
F03C1E
F0381E
F0781E
F0701E
F0F01E
F0E01E
F1E01E
F1C01E
FFC01E
FF801E
7F801E
3F0000
ENDCHAR
STARTCHAR 043A
ENCODING 1082
SWIDTH 600 0
DWIDTH 24 0
BBX 20 21 3 0
BITMAP
F001E0
F003E0
F007C0
F007C0
F00F80
F00F00
F01F00
F03E00
FFFC00
FFF800
FFF800
FFFE00
F03E00
F01F00
F00F80
F00F80
F007C0
F003C0
F003E0
F001E0
F001F0
ENDCHAR
STARTCHAR 043B
ENCODING 1083
SWIDTH 625 0
DWIDTH 25 0
BBX 21 22 1 0
BITMAP
0007C0
000FF0
001FF0
001FF8
003C78
007C78
007878
00F878
00F078
01F078
01E078
03E078
03C078
07C078
078078
0F8078
0F0078
1F0078
FE0078
FC0078
FC0078
F00078
ENDCHAR
STARTCHAR 043C
ENCODING 1084
SWIDTH 925 0
DWIDTH 37 0
BBX 31 22 3 -1
BITMAP
1F0001F0
7F8003FC
FFC007FC
FFC007FE
F1C0071E
F1E00F1E
F0E00E1E
F0E00E1E
F0F01E1E
F0701E1E
F0701C1E
F0701C1E
F0783C1E
F038381E
F038381E
F03C781E
F01C701E
F01C701E
F01FF01E
F00FE01E
F00FE01E
0007C000
ENDCHAR
STARTCHAR 043D
ENCODING 1085
SWIDTH 700 0
DWIDTH 28 0
BBX 22 21 3 0
BITMAP
F0003C
F0003C
F0003C
F0003C
F0003C
F0003C
F0003C
F0003C
FFFFFC
FFFFFC
FFFFFC
FFFFFC
F0003C
F0003C
F0003C
F0003C
F0003C
F0003C
F0003C
F0003C
F0003C
ENDCHAR
STARTCHAR 043E
ENCODING 1086
SWIDTH 675 0
DWIDTH 27 0
BBX 23 21 2 0
BITMAP
07FF80
0FFFE0
3FFFF0
3FFFF8
7E00FC
7C007C
F8003C
F8003E
F0003E
F0003E
F0003E
F0003E
F0003E
F8003E
F8003C
7C007C
7E00FC
3FFFF8
1FFFF0
0FFFE0
03FF80
ENDCHAR
STARTCHAR 043F
ENCODING 1087
SWIDTH 700 0
DWIDTH 28 0
BBX 22 21 3 0
BITMAP
7FFFFC
FFFFFC
FFFFFC
FFFFFC
F0003C
F0003C
F0003C
F0003C
F0003C
F0003C
F0003C
F0003C
F0003C
F0003C
F0003C
F0003C
F0003C
F0003C
F0003C
F0003C
F0003C
ENDCHAR
STARTCHAR 0440
ENCODING 1088
SWIDTH 700 0
DWIDTH 28 0
BBX 23 29 3 -8
BITMAP
0FFF80
1FFFE0
3FFFF0
7FFFF8
7C00F8
F8007C
F8003C
F0003C
F0003E
F0003E
F0003E
F0003E
F0003E
F0003C
F0003C
F0007C
F001F8
FFFFF8
FFFFF0
FFFFE0
FFFF80
F00000
F00000
F00000
F00000
F00000
F00000
F00000
F00000
ENDCHAR
STARTCHAR 0441
ENCODING 1089
SWIDTH 600 0
DWIDTH 24 0
BBX 20 21 2 0
BITMAP
07FFF0
0FFFF0
3FFFF0
3FFFF0
7E0000
7C0000
F80000
F80000
F00000
F00000
F00000
F00000
F00000
F80000
F80000
7C0000
7E0000
3FFFF0
1FFFF0
0FFFF0
03FFF0
ENDCHAR
STARTCHAR 0442
ENCODING 1090
SWIDTH 575 0
DWIDTH 23 0
BBX 21 21 1 0
BITMAP
FFFFF8
FFFFF8
FFFFF8
FFFFF8
00F800
00F800
00F800
00F800
00F800
00F800
00F800
00F800
00F800
00F800
00F800
00F800
00F800
00F800
00F800
00F800
00F800
ENDCHAR
STARTCHAR 0443
ENCODING 1091
SWIDTH 650 0
DWIDTH 26 0
BBX 24 29 1 -8
BITMAP
F8001F
F8001E
78003E
7C003C
3C007C
3E007C
3E0078
1E00F8
1F00F0
0F01F0
0F81E0
0F83E0
0783E0
07C3C0
03C7C0
03E780
03FF80
01FF00
01FF00
00FF00
001E00
003E00
003C00
007C00
007800
00F800
00F800
00F000
01F000
ENDCHAR
STARTCHAR 0444
ENCODING 1092
SWIDTH 800 0
DWIDTH 32 0
BBX 28 37 2 -8
BITMAP
000F0000
000F0000
000F0000
000F0000
000F0000
000F0000
000F0000
000F0000
07FFFC00
0FFFFF00
3FFFFFC0
3FFFFFC0
7E0F07E0
7C0F03E0
F80F01F0
F80F01F0
F00F00F0
F00F00F0
F00F00F0
F00F00F0
F00F00F0
F80F01F0
F80F01F0
7C0F03E0
7E0F07E0
3FFFFFC0
1FFFFFC0
0FFFFF00
03FFFC00
000F0000
000F0000
000F0000
000F0000
000F0000
000F0000
000F0000
000F0000
ENDCHAR
STARTCHAR 0445
ENCODING 1093
SWIDTH 675 0
DWIDTH 27 0
BBX 25 21 1 0
BITMAP
7C001F80
3E001F00
1F003E00
0F807C00
07C0F800
03E1F000
01F3E000
00FFC000
007F8000
003F0000
003F0000
007F0000
00FF8000
01F7C000
03E3E000
07C1F000
0F80F800
1F007C00
3E003E00
7C001F00
FC000F80
ENDCHAR
STARTCHAR 0446
ENCODING 1094
SWIDTH 800 0
DWIDTH 32 0
BBX 28 29 3 -8
BITMAP
F0003C00
F0003C00
F0003C00
F0003C00
F0003C00
F0003C00
F0003C00
F0003C00
F0003C00
F0003C00
F0003C00
F0003C00
F0003C00
F0003C00
F0003C00
F0003C00
F0003C00
FFFFFFF0
FFFFFFF0
FFFFFFF0
7FFFFFF0
000001F0
000001F0
000001F0
000001F0
000001F0
000001F0
000001F0
000001F0
ENDCHAR
STARTCHAR 0447
ENCODING 1095
SWIDTH 675 0
DWIDTH 27 0
BBX 21 21 3 0
BITMAP
F00078
F00078
F00078
F00078
F00078
F00078
F00078
F00078
F80078
FC0078
7FFFF8
7FFFF8
3FFFF8
0FFFF8
000078
000078
000078
000078
000078
000078
000078
ENDCHAR
STARTCHAR 0448
ENCODING 1096
SWIDTH 900 0
DWIDTH 36 0
BBX 30 21 3 0
BITMAP
F007803C
F007803C
F007803C
F007803C
F007803C
F007803C
F007803C
F007803C
F007803C
F007803C
F007803C
F007803C
F007803C
F007803C
F007803C
F007803C
F007803C
FFFFFFFC
FFFFFFFC
FFFFFFFC
7FFFFFFC
ENDCHAR
STARTCHAR 0449
ENCODING 1097
SWIDTH 1000 0
DWIDTH 40 0
BBX 36 29 3 -8
BITMAP
F007803C00
F007803C00
F007803C00
F007803C00
F007803C00
F007803C00
F007803C00
F007803C00
F007803C00
F007803C00
F007803C00
F007803C00
F007803C00
F007803C00
F007803C00
F007803C00
F007803C00
FFFFFFFFF0
FFFFFFFFF0
FFFFFFFFF0
7FFFFFFFF0
00000001F0
00000001F0
00000001F0
00000001F0
00000001F0
00000001F0
00000001F0
00000001F0
ENDCHAR
STARTCHAR 044A
ENCODING 1098
SWIDTH 750 0
DWIDTH 30 0
BBX 26 21 1 0
BITMAP
FFE00000
FFF00000
FFF00000
FFF00000
01F00000
01F00000
01F00000
01FFFC00
00FFFF00
00FFFF80
007FFF80
000007C0
000003C0
000003C0
000003C0
000003C0
000007C0
01FFFFC0
01FFFF80
01FFFF00
01FFFC00
ENDCHAR
STARTCHAR 044B
ENCODING 1099
SWIDTH 800 0
DWIDTH 32 0
BBX 26 22 3 0
BITMAP
F00003C0
F00003C0
F00003C0
F00003C0
F00003C0
F00003C0
F00003C0
F00003C0
FFFE03C0
FFFF83C0
FFFF83C0
7FFFC3C0
0003C3C0
0003E3C0
0001E3C0
0001E3C0
0003E3C0
0003E3C0
FFFFC3C0
FFFFC3C0
FFFF83C0
FFFE03C0
ENDCHAR
STARTCHAR 044C
ENCODING 1100
SWIDTH 600 0
DWIDTH 24 0
BBX 19 22 3 0
BITMAP
F00000
F00000
F00000
F00000
F00000
F00000
F00000
F00000
FFFE00
FFFF80
FFFF80
7FFFC0
0003C0
0003E0
0001E0
0001E0
0003E0
0003E0
FFFFC0
FFFFC0
FFFF80
FFFE00
ENDCHAR
STARTCHAR 044D
ENCODING 1101
SWIDTH 600 0
DWIDTH 24 0
BBX 20 21 2 0
BITMAP
FFFC00
FFFF00
FFFF80
FFFFC0
0007E0
0003E0
0001F0
0001F0
0000F0
07FFF0
07FFF0
07FFF0
0000F0
0001F0
0001F0
0003E0
0007E0
FFFFC0
FFFF80
FFFF00
FFFC00
ENDCHAR
STARTCHAR 044E
ENCODING 1102
SWIDTH 900 0
DWIDTH 36 0
BBX 31 21 3 0
BITMAP
F003FFC0
F00FFFF0
F01FFFF8
F03FFFF8
F03E00FC
F07C003C
F078003E
F078001E
F078001E
FFF8001E
FFF8001E
FFF8001E
F078001E
F078001E
F078003E
F07C003C
F03F00FC
F03FFFF8
F01FFFF8
F00FFFF0
F003FFC0
ENDCHAR
STARTCHAR 044F
ENCODING 1103
SWIDTH 625 0
DWIDTH 25 0
BBX 20 21 2 0
BITMAP
0FFFF0
3FFFF0
7FFFF0
7FFFF0
F80000
F80000
F00000
F00000
F80000
7FFFC0
7FFFE0
3FFFF0
0FFFF0
0F80F0
0F00F0
1F00F0
3E00F0
3C00F0
7C00F0
F800F0
F800F0
ENDCHAR
STARTCHAR 0450
ENCODING 1104
SWIDTH 650 0
DWIDTH 26 0
BBX 21 31 3 0
BITMAP
07C000
03E000
01E000
01F000
00F000
00F800
007800
007C00
003C00
000000
1FFF80
3FFFE0
7FFFF0
FFFFF0
F800F8
F00078
F00078
F00078
F000F8
FFFFF0
FFFFF0
FFFFC0
F00000
F00000
F00000
F00000
F80000
FFFFF0
7FFFF0
3FFFF0
0FFFF0
ENDCHAR
STARTCHAR 0451
ENCODING 1105
SWIDTH 650 0
DWIDTH 26 0
BBX 21 29 3 0
BITMAP
1F0780
1F0780
1F0780
1F0780
1F0780
000000
000000
000000
1FFF80
3FFFE0
7FFFF0
FFFFF0
F800F8
F00078
F00078
F00078
F000F8
FFFFF0
FFFFF0
FFFFC0
F00000
F00000
F00000
F00000
F80000
FFFFF0
7FFFF0
3FFFF0
0FFFF0
ENDCHAR
STARTCHAR 0452
ENCODING 1106
SWIDTH 700 0
DWIDTH 28 0
BBX 22 38 3 -8
BITMAP
F00000
FFFFC0
FFFFC0
FFFFC0
FFFFC0
F00000
F00000
F00000
F00000
FFFF00
FFFFE0
FFFFF0
FFFFF8
F001F8
F0007C
F0007C
F0003C
F0003C
F0003C
F0003C
F0003C
F0003C
F0003C
F0003C
F0003C
F0003C
F0003C
F0003C
F0003C
F0003C
00003C
00003C
00003C
00007C
000FFC
000FFC
000FF8
000FF0
ENDCHAR
STARTCHAR 0453
ENCODING 1107
SWIDTH 450 0
DWIDTH 18 0
BBX 14 31 3 0
BITMAP
00F8
00F0
01F0
01E0
03E0
03C0
0780
0780
0F00
0000
1FFC
7FFC
7FFC
FFFC
F800
F000
F000
F000
F000
F000
F000
F000
F000
F000
F000
F000
F000
F000
F000
F000
F000
ENDCHAR
STARTCHAR 0454
ENCODING 1108
SWIDTH 600 0
DWIDTH 24 0
BBX 20 21 2 0
BITMAP
03FFF0
0FFFF0
1FFFF0
3FFFF0
7E0000
7C0000
F80000
F80000
F00000
FFFE00
FFFE00
FFFE00
F00000
F80000
F80000
780000
7E0000
3FFFF0
1FFFF0
0FFFF0
03FFF0
ENDCHAR
STARTCHAR 0455
ENCODING 1109
SWIDTH 575 0
DWIDTH 23 0
BBX 19 21 2 0
BITMAP
1FFFE0
3FFFE0
7FFFE0
FFFFE0
F80000
F00000
F00000
F00000
FFF800
7FFF80
3FFFC0
0FFFE0
0003E0
0001E0
0001E0
0001E0
0003E0
FFFFE0
FFFFC0
FFFFC0
FFFF00
ENDCHAR
STARTCHAR 0456
ENCODING 1110
SWIDTH 250 0
DWIDTH 10 0
BBX 4 29 3 0
BITMAP
F0
F0
F0
F0
F0
00
00
00
F0
F0
F0
F0
F0
F0
F0
F0
F0
F0
F0
F0
F0
F0
F0
F0
F0
F0
F0
F0
F0
ENDCHAR
STARTCHAR 0457
ENCODING 1111
SWIDTH 350 0
DWIDTH 14 0
BBX 14 29 0 0
BITMAP
F03C
F03C
F03C
F03C
F03C
0000
0000
0000
0780
0780
0780
0780
0780
0780
0780
0780
0780
0780
0780
0780
0780
0780
0780
0780
0780
0780
0780
0780
0780
ENDCHAR
STARTCHAR 0458
ENCODING 1112
SWIDTH 275 0
DWIDTH 11 0
BBX 10 37 -2 -8
BITMAP
07C0
07C0
07C0
07C0
07C0
0000
0000
0000
07C0
07C0
07C0
07C0
07C0
07C0
07C0
07C0
07C0
07C0
07C0
07C0
07C0
07C0
07C0
07C0
07C0
07C0
07C0
07C0
07C0
07C0
07C0
07C0
07C0
FF80
FF80
FF00
FE00
ENDCHAR
STARTCHAR 0459
ENCODING 1113
SWIDTH 975 0
DWIDTH 39 0
BBX 36 22 1 0
BITMAP
0007C00000
000FF00000
001FF00000
001FF80000
003C780000
007C780000
0078780000
00F8780000
00F07FFF00
01F07FFF80
01E07FFFC0
03E03FFFE0
03C00003E0
07C00001E0
07800001F0
0F800001F0
0F000001E0
1F000003E0
FE007FFFE0
FC007FFFC0
FC007FFF80
F0007FFF00
ENDCHAR
STARTCHAR 045A
ENCODING 1114
SWIDTH 1025 0
DWIDTH 41 0
BBX 35 22 3 0
BITMAP
F000780000
F000780000
F000780000
F000780000
F000780000
F000780000
F000780000
F000780000
FFFFFFFE00
FFFFFFFF80
FFFFFFFFC0
FFFFFFFFC0
F0000003E0
F0000001E0
F0000001E0
F0000001E0
F0000001E0
F0000003E0
F0007FFFE0
F0007FFFC0
F0007FFF80
F0007FFE00
ENDCHAR
STARTCHAR 045B
ENCODING 1115
SWIDTH 700 0
DWIDTH 28 0
BBX 22 30 3 0
BITMAP
F00000
FFFFC0
FFFFC0
FFFFC0
FFFFC0
F00000
F00000
F00000
F00000
FFFF00
FFFFE0
FFFFF0
FFFFF8
F001F8
F0007C
F0007C
F0003C
F0003C
F0003C
F0003C
F0003C
F0003C
F0003C
F0003C
F0003C
F0003C
F0003C
F0003C
F0003C
F0003C
ENDCHAR
STARTCHAR 045C
ENCODING 1116
SWIDTH 600 0
DWIDTH 24 0
BBX 20 31 3 0
BITMAP
007C00
007800
00F800
01F000
01E000
03E000
03C000
07C000
078000
000000
F001E0
F003E0
F003C0
F007C0
F00F80
F00F00
F01F00
F03E00
FFFC00
FFF800
FFF800
FFFE00
F03E00
F01F00
F00F80
F00F80
F007C0
F003C0
F003E0
F001E0
F001F0
ENDCHAR
STARTCHAR 045D
ENCODING 1117
SWIDTH 725 0
DWIDTH 29 0
BBX 23 32 3 -1
BITMAP
01E000
01F000
00F000
00F800
007C00
003C00
003E00
001E00
001F00
000000
F000F8
F003FC
F007FE
F007FE
F0071E
F00F1E
F00E1E
F01E1E
F01E1E
F03C1E
F03C1E
F0381E
F0781E
F0701E
F0F01E
F0E01E
F1E01E
F1C01E
FFC01E
FF801E
7F801E
3F0000
ENDCHAR
STARTCHAR 045E
ENCODING 1118
SWIDTH 650 0
DWIDTH 26 0
BBX 24 39 1 -8
BITMAP
0E00F0
0E00F0
0E00F0
0E00F0
0E00F0
0F01E0
0FFFE0
07FFC0
01FF00
000000
F0001F
F8001F
78001E
7C003E
7C003C
3C007C
3E0078
1E00F8
1F00F0
0F01F0
0F81F0
0F81E0
0783E0
07C3C0
03C7C0
03E780
03FF80
01FF80
01FF00
00FF00
001E00
003E00
003C00
007C00
007800
00F800
00F800
00F000
01F000
ENDCHAR
STARTCHAR 045F
ENCODING 1119
SWIDTH 700 0
DWIDTH 28 0
BBX 22 29 3 -8
BITMAP
F0003C
F0003C
F0003C
F0003C
F0003C
F0003C
F0003C
F0003C
F0003C
F0003C
F0003C
F0003C
F0003C
F0003C
F0003C
F0003C
F0003C
FFFFFC
FFFFFC
FFFFFC
7FFFFC
007800
007800
007800
007800
007800
007800
007800
007800
ENDCHAR
STARTCHAR 0490
ENCODING 1168
SWIDTH 625 0
DWIDTH 25 0
BBX 21 35 3 0
BITMAP
0000F8
0000F8
0000F8
0000F8
0000F8
0000F8
0000F8
0000F8
03FFF8
0FFFF8
3FFFF8
3FFFF8
7FFFF8
7E0000
FC0000
F80000
F80000
F80000
F80000
F80000
F80000
F80000
F80000
F80000
F80000
F80000
F80000
F80000
F80000
F80000
F80000
F80000
F80000
F80000
F80000
ENDCHAR
STARTCHAR 0491
ENCODING 1169
SWIDTH 450 0
DWIDTH 18 0
BBX 14 30 3 0
BITMAP
003C
003C
003C
003C
003C
003C
003C
003C
003C
1FFC
7FFC
7FFC
FFFC
F800
F000
F000
F000
F000
F000
F000
F000
F000
F000
F000
F000
F000
F000
F000
F000
F000
ENDCHAR
STARTCHAR 0492
ENCODING 1170
SWIDTH 625 0
DWIDTH 25 0
BBX 24 27 0 0
BITMAP
007FFF
01FFFF
03FFFF
07FFFF
0FFFFF
0FC000
0F8000
1F0000
1F0000
1F0000
1F0000
1F0000
FFFFE0
FFFFE0
FFFFE0
FFFFE0
1F0000
1F0000
1F0000
1F0000
1F0000
1F0000
1F0000
1F0000
1F0000
1F0000
1F0000
ENDCHAR
STARTCHAR 0493
ENCODING 1171
SWIDTH 500 0
DWIDTH 20 0
BBX 19 21 0 0
BITMAP
03FFC0
07FFC0
0FFFC0
0FFFC0
0F8000
0F0000
0F0000
0F0000
0F0000
0F0000
FFFFE0
FFFFE0
FFFFE0
FFFFE0
0F0000
0F0000
0F0000
0F0000
0F0000
0F0000
0F0000
ENDCHAR
STARTCHAR 0496
ENCODING 1174
SWIDTH 1225 0
DWIDTH 49 0
BBX 47 35 1 -8
BITMAP
7C001F0007E0
7C001F0007C0
3E001F000FC0
3E001F000F80
1F001F001F80
1F001F001F00
0F801F003F00
0F801F003E00
07C01F007E00
07C01F007C00
03E01F00F800
01F81F03F800
01FFFFFFF000
007FFFFFC000
01FFFFFFF000
03FFFFFFF800
07F01F00FC00
07C01F007C00
0FC01F003E00
0F801F003F00
1F001F001F00
1F001F001F80
3E001F000FFE
3E001F000FFE
7C001F0007FE
7C001F0007FE
F8001F0003FE
00000000001E
00000000001E
00000000001E
00000000001E
00000000001E
00000000001E
00000000001E
00000000001E
ENDCHAR
STARTCHAR 0497
ENCODING 1175
SWIDTH 1050 0
DWIDTH 42 0
BBX 40 29 1 -8
BITMAP
7800F003E0
7C00F003C0
3E00F007C0
1E00F00780
1F00F00F80
0F00F00F00
0F80F01F00
07C0F03E00
03FFFFFC00
01FFFFF800
01FFFFF800
07FFFFFC00
07C0F03E00
0F80F01F00
1F00F00F00
1F00F00F80
3E00F00780
3C00F007FF
7C00F003FF
7800F003FF
F800F001FF
000000001F
000000001F
000000001F
000000001F
000000001F
000000001F
000000001F
000000001F
ENDCHAR
STARTCHAR 049A
ENCODING 1178
SWIDTH 800 0
DWIDTH 32 0
BBX 28 35 3 -8
BITMAP
F8003E00
F8003E00
F8007C00
F8007C00
F800F800
F800F800
F801F800
F801F000
F803F000
F803E000
F807C000
F81FC000
FFFF8000
FFFE0000
FFFF8000
FFFFC000
F807E000
F803F000
F801F000
F801F800
F800F800
F800FC00
F8007FF0
F8007FF0
F8003FF0
F8003FF0
F8001FF0
000000F0
000000F0
000000F0
000000F0
000000F0
000000F0
000000F0
000000F0
ENDCHAR
STARTCHAR 049B
ENCODING 1179
SWIDTH 700 0
DWIDTH 28 0
BBX 24 29 3 -8
BITMAP
F001E0
F003E0
F007C0
F007C0
F00F80
F00F00
F01F00
F03E00
FFFC00
FFF800
FFF800
FFFE00
F03E00
F01F00
F00F80
F00F80
F007C0
F003FF
F003FF
F001FF
F001FF
00000F
00000F
00000F
00000F
00000F
00000F
00000F
00000F
ENDCHAR
STARTCHAR 04A2
ENCODING 1186
SWIDTH 825 0
DWIDTH 33 0
BBX 29 35 3 -8
BITMAP
F8001F00
F8001F00
F8001F00
F8001F00
F8001F00
F8001F00
F8001F00
F8001F00
F8001F00
F8001F00
F8001F00
FFFFFF00
FFFFFF00
FFFFFF00
FFFFFF00
FFFFFF00
F8001F00
F8001F00
F8001F00
F8001F00
F8001F00
F8001F00
F8001FF8
F8001FF8
F8001FF8
F8001FF8
F8001FF8
00000078
00000078
00000078
00000078
00000078
00000078
00000078
00000078
ENDCHAR
STARTCHAR 04A3
ENCODING 1187
SWIDTH 800 0
DWIDTH 32 0
BBX 28 29 3 -8
BITMAP
F0003C00
F0003C00
F0003C00
F0003C00
F0003C00
F0003C00
F0003C00
F0003C00
FFFFFC00
FFFFFC00
FFFFFC00
FFFFFC00
F0003C00
F0003C00
F0003C00
F0003C00
F0003C00
F0003FF0
F0003FF0
F0003FF0
F0003FF0
000001F0
000001F0
000001F0
000001F0
000001F0
000001F0
000001F0
000001F0
ENDCHAR
STARTCHAR 04AE
ENCODING 1198
SWIDTH 700 0
DWIDTH 28 0
BBX 26 27 1 0
BITMAP
FC000FC0
7C001F80
7E001F00
3F003F00
1F007E00
1F807C00
0F80F800
07C1F800
03E1F000
03E3E000
01F7E000
00FFC000
00FF8000
007F0000
003F0000
003E0000
003E0000
003E0000
003E0000
003E0000
003E0000
003E0000
003E0000
003E0000
003E0000
003E0000
003E0000
ENDCHAR
STARTCHAR 04AF
ENCODING 1199
SWIDTH 675 0
DWIDTH 27 0
BBX 25 30 1 -9
BITMAP
F8000780
F8000F80
78000F00
7C001F00
3C001E00
3E003E00
1E003C00
1F007C00
0F007800
0F80F800
0780F000
07C1F000
03C1E000
03E3E000
01E3C000
01F3C000
00F78000
00F78000
007F0000
007F0000
003E0000
003E0000
003E0000
003E0000
003E0000
003E0000
003E0000
003E0000
003E0000
003E0000
ENDCHAR
STARTCHAR 04B0
ENCODING 1200
SWIDTH 700 0
DWIDTH 28 0
BBX 26 27 1 0
BITMAP
FC000FC0
7C001F80
7E001F00
3F003F00
1F007E00
1F807C00
0F80F800
07C0F800
07E1F000
03E3E000
01F3E000
00FFC000
00FF8000
007F8000
003F0000
003E0000
003E0000
0FFFFC00
0FFFFC00
0FFFFC00
0FFFFC00
003E0000
003E0000
003E0000
003E0000
003E0000
003E0000
ENDCHAR
STARTCHAR 04B1
ENCODING 1201
SWIDTH 675 0
DWIDTH 27 0
BBX 25 29 1 -8
BITMAP
F8000F80
78000F00
7C001F00
3C001E00
3E003E00
1E003C00
1E003C00
0F007C00
0F007800
0780F800
0780F000
07C1F000
03C1E000
03E3E000
01E3C000
01F7C000
00F78000
00FF8000
007F0000
007F0000
1FFFFC00
1FFFFC00
1FFFFC00
1FFFFC00
003E0000
003E0000
003E0000
003E0000
003E0000
ENDCHAR
STARTCHAR 04B2
ENCODING 1202
SWIDTH 875 0
DWIDTH 35 0
BBX 33 35 1 -8
BITMAP
7E0001F800
3F0003F000
1F8007E000
0FC007C000
07C00FC000
03E01F8000
03F03F0000
01F87E0000
00FCFC0000
007FF80000
003FF00000
001FE00000
001FE00000
001FC00000
003FE00000
003FF00000
007FF80000
00FCF80000
01F87C0000
03F07E0000
07E03F0000
0FC01F8000
0F800FFF80
1F8007FF80
3F0003FF80
7E0003FF80
FC0001FF80
0000000780
0000000780
0000000780
0000000780
0000000780
0000000780
0000000780
0000000780
ENDCHAR
STARTCHAR 04B3
ENCODING 1203
SWIDTH 775 0
DWIDTH 31 0
BBX 29 29 1 -8
BITMAP
7C001F80
3E001F00
1F003E00
0F807C00
07C0F800
03E1F000
01F3E000
00FFC000
007F8000
003F0000
003F0000
007F0000
00FF8000
01F7C000
03E3E000
07C1F000
0F80F800
1F007FF8
3E003FF8
7C001FF8
FC000FF8
00000078
00000078
00000078
00000078
00000078
00000078
00000078
00000078
ENDCHAR
STARTCHAR 04B6
ENCODING 1206
SWIDTH 800 0
DWIDTH 32 0
BBX 28 35 3 -8
BITMAP
F8003E00
F8003E00
F8003E00
F8003E00
F8003E00
F8003E00
F8003E00
F8003E00
F8003E00
F8003E00
F8003E00
F8003E00
FC003E00
7E003E00
7FFFFE00
7FFFFE00
3FFFFE00
0FFFFE00
03FFFE00
00003E00
00003E00
00003E00
00003FF0
00003FF0
00003FF0
00003FF0
00003FF0
000000F0
000000F0
000000F0
000000F0
000000F0
000000F0
000000F0
000000F0
ENDCHAR
STARTCHAR 04B7
ENCODING 1207
SWIDTH 775 0
DWIDTH 31 0
BBX 27 29 3 -8
BITMAP
F0007800
F0007800
F0007800
F0007800
F0007800
F0007800
F0007800
F0007800
F8007800
FC007800
7FFFF800
7FFFF800
3FFFF800
0FFFF800
00007800
00007800
00007800
00007FE0
00007FE0
00007FE0
00007FE0
000003E0
000003E0
000003E0
000003E0
000003E0
000003E0
000003E0
000003E0
ENDCHAR
STARTCHAR 04BA
ENCODING 1210
SWIDTH 725 0
DWIDTH 29 0
BBX 23 27 3 0
BITMAP
F80000
F80000
F80000
F80000
F80000
F80000
F80000
F80000
FFFF00
FFFFE0
FFFFF0
FFFFF8
FFFFFC
F800FC
F8007E
F8003E
F8003E
F8003E
F8003E
F8003E
F8003E
F8003E
F8003E
F8003E
F8003E
F8003E
F8003E
ENDCHAR
STARTCHAR 04BB
ENCODING 1211
SWIDTH 675 0
DWIDTH 27 0
BBX 21 21 3 0
BITMAP
F00000
F00000
F00000
F00000
F00000
F00000
F00000
FFFF80
FFFFE0
FFFFF0
FFFFF0
F001F8
F000F8
F00078
F00078
F00078
F00078
F00078
F00078
F00078
F00078
ENDCHAR
STARTCHAR 04C0
ENCODING 1216
SWIDTH 275 0
DWIDTH 11 0
BBX 5 27 3 0
BITMAP
F8
F8
F8
F8
F8
F8
F8
F8
F8
F8
F8
F8
F8
F8
F8
F8
F8
F8
F8
F8
F8
F8
F8
F8
F8
F8
F8
ENDCHAR
STARTCHAR 04C3
ENCODING 1219
SWIDTH 700 0
DWIDTH 28 0
BBX 24 35 3 -8
BITMAP
F8003E
F8003E
F8007C
F8007C
F800F8
F800F8
F801F8
F801F0
F803F0
F803E0
F807C0
F81FC0
FFFF80
FFFE00
FFFF80
FFFFC0
F80FE0
F803E0
F801F0
F801F8
F800F8
F800FC
F8007C
F8007E
F8003E
F8003F
F8001F
00000F
00000F
00000F
00001F
0001FF
0001FF
0001FE
0001FC
ENDCHAR
STARTCHAR 04C4
ENCODING 1220
SWIDTH 600 0
DWIDTH 24 0
BBX 20 29 3 -8
BITMAP
F001E0
F003E0
F007C0
F007C0
F00F80
F00F00
F01F00
F03E00
FFFC00
FFF800
FFF800
FFFE00
F03E00
F01F00
F00F80
F00780
F007C0
F003C0
F003E0
F001E0
F001F0
0000F0
0000F0
0000F0
0001F0
003FF0
003FE0
003FE0
003F80
ENDCHAR
STARTCHAR 04C7
ENCODING 1223
SWIDTH 750 0
DWIDTH 30 0
BBX 24 35 3 -8
BITMAP
F8001F
F8001F
F8001F
F8001F
F8001F
F8001F
F8001F
F8001F
F8001F
F8001F
F8001F
FFFFFF
FFFFFF
FFFFFF
FFFFFF
FFFFFF
F8001F
F8001F
F8001F
F8001F
F8001F
F8001F
F8001F
F8001F
F8001F
F8001F
F8001F
00001F
00001F
00001E
00003E
0003FE
0003FE
0003FC
0003F8
ENDCHAR
STARTCHAR 04C8
ENCODING 1224
SWIDTH 700 0
DWIDTH 28 0
BBX 22 29 3 -8
BITMAP
F0003C
F0003C
F0003C
F0003C
F0003C
F0003C
F0003C
F0003C
FFFFFC
FFFFFC
FFFFFC
FFFFFC
F0003C
F0003C
F0003C
F0003C
F0003C
F0003C
F0003C
F0003C
F0003C
00003C
00003C
00003C
00007C
000FFC
000FF8
000FF8
000FE0
ENDCHAR
STARTCHAR 04CF
ENCODING 1231
SWIDTH 275 0
DWIDTH 11 0
BBX 4 29 3 0
BITMAP
F0
F0
F0
F0
F0
F0
F0
F0
F0
F0
F0
F0
F0
F0
F0
F0
F0
F0
F0
F0
F0
F0
F0
F0
F0
F0
F0
F0
F0
ENDCHAR
STARTCHAR 04D8
ENCODING 1240
SWIDTH 725 0
DWIDTH 29 0
BBX 25 27 2 0
BITMAP
3FFF8000
3FFFF000
3FFFF800
3FFFFC00
3FFFFE00
00007E00
00003F00
00001F00
00000F80
00000F80
00000F80
0FFFFF80
3FFFFF80
3FFFFF80
7FFFFF80
7C000F80
F8000F80
F8000F80
F8001F00
F8001F00
F8003F00
7C007E00
7FFFFE00
7FFFFC00
3FFFF800
1FFFF000
07FF8000
ENDCHAR
STARTCHAR 04D9
ENCODING 1241
SWIDTH 650 0
DWIDTH 26 0
BBX 21 21 3 0
BITMAP
7FFF80
7FFFE0
7FFFF0
7FFFF0
0000F8
0000F8
000078
000078
000078
3FFFF8
7FFFF8
FFFFF8
F80078
F00078
F00078
F000F8
F801F8
FFFFF0
7FFFF0
3FFFE0
1FFF80
ENDCHAR
STARTCHAR 04E8
ENCODING 1256
SWIDTH 825 0
DWIDTH 33 0
BBX 28 27 2 0
BITMAP
00FFF000
03FFFE00
0FFFFF00
1FFFFF80
3FFFFFC0
3F000FE0
7E0003E0
7C0003F0
7C0001F0
780001F0
F80001F0
FFFFFFF0
FFFFFFF0
FFFFFFF0
FFFFFFF0
F80001F0
F80001F0
780001F0
7C0001F0
7C0003F0
7E0007E0
3F000FE0
1FFFFFC0
1FFFFF80
0FFFFF00
03FFFE00
00FFF000
ENDCHAR
STARTCHAR 04E9
ENCODING 1257
SWIDTH 675 0
DWIDTH 27 0
BBX 23 21 2 0
BITMAP
07FF80
0FFFE0
1FFFF0
3FFFF8
7E00FC
7C007C
F8003C
F8003C
F0003E
FFFFFE
FFFFFE
FFFFFE
F0003E
F8003E
F8003C
7C007C
7E00FC
3FFFF8
1FFFF0
0FFFE0
03FF80
ENDCHAR
STARTCHAR 04EE
ENCODING 1262
SWIDTH 725 0
DWIDTH 29 0
BBX 27 35 1 0
BITMAP
0FFFFE00
0FFFFE00
0FFFFE00
0FFFFE00
00000000
00000000
00000000
00000000
F80003E0
FC0007E0
7C0007C0
3E000FC0
3E000F80
1F001F00
1F803F00
0F803E00
0FC07E00
07C07C00
03E0FC00
03E1F800
01F1F000
01F3F000
00FBE000
00FFE000
007FC000
003F8000
003F8000
001F0000
003F0000
007E0000
3FFC0000
3FFC0000
3FF80000
3FF00000
3FC00000
ENDCHAR
STARTCHAR 04EF
ENCODING 1263
SWIDTH 650 0
DWIDTH 26 0
BBX 24 37 1 -8
BITMAP
1FFFF8
1FFFF8
1FFFF8
1FFFF8
000000
000000
000000
000000
F0001F
F8001E
78003E
7C003E
3C003C
3E007C
3E0078
1E00F8
1F00F0
0F01F0
0F81F0
0F81E0
0783E0
07C3C0
03C7C0
03E780
03FF80
01FF00
01FF00
00FF00
001E00
003E00
003C00
007C00
007800
00F800
00F800
00F000
01F000
ENDCHAR
STARTCHAR 0512
ENCODING 1298
SWIDTH 700 0
DWIDTH 28 0
BBX 23 36 1 -8
BITMAP
0001F0
0007FC
0007FE
000FFE
000FFE
001F1E
001E1E
003E1E
003E1E
007C1E
007C1E
00781E
00F81E
00F01E
01F01E
01F01E
03E01E
03E01E
07C01E
07C01E
0F801E
0F801E
1F801E
FF001E
FE001E
FE001E
FC001E
F0001E
00001E
00001E
00003E
00003E
0003FE
0003FE
0003FC
0003F8
ENDCHAR
STARTCHAR 0513
ENCODING 1299
SWIDTH 625 0
DWIDTH 25 0
BBX 21 30 1 -8
BITMAP
0007C0
000FF0
001FF0
001FF8
003C78
007C78
007878
00F878
00F078
01F078
01E078
03E078
03C078
07C078
078078
0F8078
0F0078
1F0078
FE0078
FC0078
FC0078
F00078
000078
000078
000078
0000F8
001FF8
001FF0
001FF0
001FC0
ENDCHAR
STARTCHAR 1E0C
ENCODING 7692
SWIDTH 725 0
DWIDTH 29 0
BBX 24 35 3 -8
BITMAP
7FFF00
FFFFE0
FFFFF0
FFFFF8
FFFFFC
F800FE
F8007E
F8003E
F8001F
F8001F
F8001F
F8001F
F8001F
F8001F
F8001F
F8001F
F8001F
F8001F
F8001F
F8003E
F8007E
F800FE
FFFFFC
FFFFF8
FFFFF0
FFFFE0
7FFF00
000000
000000
000000
007800
007800
007800
007800
007800
ENDCHAR
STARTCHAR 1E0D
ENCODING 7693
SWIDTH 700 0
DWIDTH 28 0
BBX 23 38 2 -8
BITMAP
00001E
00001E
00001E
00001E
00001E
00001E
00001E
00001E
00001E
07FFFE
0FFFFE
3FFFFE
3FFFFE
7E001E
7C001E
F8001E
F8001E
F0001E
F0001E
F0001E
F0001E
F0003E
F8003E
F8003E
7C003C
7E00FC
3FFFFC
1FFFF8
0FFFF0
03FFC0
000000
000000
000000
003C00
003C00
003C00
003C00
003C00
ENDCHAR
STARTCHAR 1E12
ENCODING 7698
SWIDTH 725 0
DWIDTH 29 0
BBX 24 38 3 -11
BITMAP
7FFF00
FFFFE0
FFFFF0
FFFFF8
FFFFFC
F800FE
F8007E
F8003E
F8001F
F8001F
F8001F
F8001F
F8001F
F8001F
F8001F
F8001F
F8001F
F8001F
F8001F
F8003E
F8007E
F800FE
FFFFFC
FFFFF8
FFFFF0
FFFFE0
7FFF00
000000
000000
00F800
03FC00
03FE00
07DF00
078F00
0F8F80
0F0780
1F07C0
1E03C0
ENDCHAR
STARTCHAR 1E13
ENCODING 7699
SWIDTH 700 0
DWIDTH 28 0
BBX 23 41 2 -11
BITMAP
00001E
00001E
00001E
00001E
00001E
00001E
00001E
00001E
00001E
07FFFE
0FFFFE
3FFFFE
3FFFFE
7E001E
7C001E
F8001E
F8001E
F0001E
F0001E
F0001E
F0001E
F0003E
F8003E
F8003E
7C003C
7E00FC
3FFFFC
1FFFF8
0FFFF0
03FFC0
000000
000000
007C00
00FF00
01FF00
01EF80
03C780
07C3C0
0783E0
0F81E0
0F01F0
ENDCHAR
STARTCHAR 1E24
ENCODING 7716
SWIDTH 750 0
DWIDTH 30 0
BBX 24 35 3 -8
BITMAP
F8001F
F8001F
F8001F
F8001F
F8001F
F8001F
F8001F
F8001F
F8001F
F8001F
F8001F
FFFFFF
FFFFFF
FFFFFF
FFFFFF
FFFFFF
F8001F
F8001F
F8001F
F8001F
F8001F
F8001F
F8001F
F8001F
F8001F
F8001F
F8001F
000000
000000
000000
003C00
003C00
003C00
003C00
003C00
ENDCHAR
STARTCHAR 1E25
ENCODING 7717
SWIDTH 700 0
DWIDTH 28 0
BBX 22 38 3 -8
BITMAP
F00000
F00000
F00000
F00000
F00000
F00000
F00000
F00000
F00000
FFFF00
FFFFE0
FFFFF0
FFFFF8
F001F8
F0007C
F0007C
F0003C
F0003C
F0003C
F0003C
F0003C
F0003C
F0003C
F0003C
F0003C
F0003C
F0003C
F0003C
F0003C
F0003C
000000
000000
000000
007800
007800
007800
007800
007800
ENDCHAR
STARTCHAR 1E3C
ENCODING 7740
SWIDTH 625 0
DWIDTH 25 0
BBX 21 38 3 -11
BITMAP
F80000
F80000
F80000
F80000
F80000
F80000
F80000
F80000
F80000
F80000
F80000
F80000
F80000
F80000
F80000
F80000
F80000
F80000
F80000
F80000
FC0000
7E0000
7FFFF8
3FFFF8
3FFFF8
0FFFF8
03FFF8
000000
000000
01F800
03FC00
03FE00
07DE00
078F00
0F0F80
1F0780
1E07C0
3E03C0
ENDCHAR
STARTCHAR 1E3D
ENCODING 7741
SWIDTH 275 0
DWIDTH 11 0
BBX 16 41 -2 -11
BITMAP
07C0
07C0
07C0
07C0
07C0
07C0
07C0
07C0
07C0
07C0
07C0
07C0
07C0
07C0
07C0
07C0
07C0
07C0
07C0
07C0
07C0
07C0
07C0
07C0
07C0
07C0
07C0
07C0
07C0
07C0
0000
0000
07C0
1FF0
1FF0
3EF8
3C78
7C7C
783C
F83E
F01F
ENDCHAR
STARTCHAR 1E44
ENCODING 7748
SWIDTH 875 0
DWIDTH 35 0
BBX 29 37 3 -1
BITMAP
00078000
00078000
00078000
00078000
00078000
00000000
00000000
00000000
1F800000
3FE000F8
7FF000F8
7FF000F8
FFF800F8
F8F800F8
F87800F8
F87C00F8
F87C00F8
F83E00F8
F83E00F8
F81F00F8
F81F00F8
F80F80F8
F80F80F8
F80F80F8
F807C0F8
F807C0F8
F803E0F8
F803E0F8
F801F0F8
F801F0F8
F801F8F8
F800F8F8
F800FFF8
F8007FF8
F8007FF0
F8003FE0
00000FC0
ENDCHAR
STARTCHAR 1E45
ENCODING 7749
SWIDTH 700 0
DWIDTH 28 0
BBX 22 29 3 0
BITMAP
007800
007800
007800
007800
007800
000000
000000
000000
7FFF00
FFFFC0
FFFFF0
FFFFF8
F001F8
F0007C
F0007C
F0003C
F0003C
F0003C
F0003C
F0003C
F0003C
F0003C
F0003C
F0003C
F0003C
F0003C
F0003C
F0003C
F0003C
ENDCHAR
STARTCHAR 1E4A
ENCODING 7754
SWIDTH 875 0
DWIDTH 35 0
BBX 29 39 3 -11
BITMAP
1F800000
3FE000F8
7FF000F8
7FF000F8
FFF800F8
F8F800F8
F87800F8
F87C00F8
F87C00F8
F83E00F8
F83E00F8
F81F00F8
F81F00F8
F80F80F8
F80F80F8
F80F80F8
F807C0F8
F807C0F8
F803E0F8
F803E0F8
F801F0F8
F801F0F8
F801F8F8
F800F8F8
F800FFF8
F8007FF8
F8007FF0
F8003FE0
00000FC0
00000000
00000000
001F8000
003FC000
007FE000
0079F000
00F8F000
00F0F800
01F07800
01E07C00
ENDCHAR
STARTCHAR 1E4B
ENCODING 7755
SWIDTH 700 0
DWIDTH 28 0
BBX 22 32 3 -11
BITMAP
7FFF00
FFFFC0
FFFFF0
FFFFF8
F001F8
F0007C
F0007C
F0003C
F0003C
F0003C
F0003C
F0003C
F0003C
F0003C
F0003C
F0003C
F0003C
F0003C
F0003C
F0003C
F0003C
000000
000000
00FC00
01FE00
03FF00
03CF00
07CF80
078780
0F87C0
0F03C0
1F03E0
ENDCHAR
STARTCHAR 1E5A
ENCODING 7770
SWIDTH 725 0
DWIDTH 29 0
BBX 24 35 3 -8
BITMAP
FFFFC0
FFFFF0
FFFFF8
FFFFFC
FFFFFE
00003E
00003E
00001E
00001E
00001E
00003E
00007E
3FFFFC
7FFFFC
FFFFF8
FFFFE0
FFFFC0
F807E0
F803E0
F803F0
F801F0
F800F8
F800F8
F8007C
F8007E
F8003E
F8001F
000000
000000
000000
007800
007800
007800
007800
007800
ENDCHAR
STARTCHAR 1E5B
ENCODING 7771
SWIDTH 475 0
DWIDTH 19 0
BBX 14 29 3 -8
BITMAP
3FFC
7FFC
7FFC
FFFC
F800
F000
F000
F000
F000
F000
F000
F000
F000
F000
F000
F000
F000
F000
F000
F000
F000
0000
0000
0000
F000
F000
F000
F000
F000
ENDCHAR
STARTCHAR 1E62
ENCODING 7778
SWIDTH 700 0
DWIDTH 28 0
BBX 24 35 2 -8
BITMAP
07FFFC
1FFFFC
3FFFFC
7FFFFC
7FFFFC
FC0000
F80000
F80000
F80000
F80000
FC0000
7FFFE0
7FFFF8
3FFFFC
0FFFFE
0000FF
00001F
00001F
00001F
00001F
00001F
00003F
7FFFFF
7FFFFE
7FFFFC
7FFFF8
7FFFE0
000000
000000
000000
003C00
003C00
003C00
003C00
003C00
ENDCHAR
STARTCHAR 1E63
ENCODING 7779
SWIDTH 575 0
DWIDTH 23 0
BBX 19 29 2 -8
BITMAP
1FFFE0
3FFFE0
7FFFE0
FFFFE0
F80000
F00000
F00000
F00000
FFF800
7FFF80
3FFFC0
0FFFE0
0003E0
0001E0
0001E0
0001E0
0003E0
FFFFE0
FFFFC0
FFFFC0
FFFF00
000000
000000
000000
01F000
01F000
01F000
01F000
01F000
ENDCHAR
STARTCHAR 1E6C
ENCODING 7788
SWIDTH 575 0
DWIDTH 23 0
BBX 21 35 1 -8
BITMAP
FFFFF8
FFFFF8
FFFFF8
FFFFF8
FFFFF8
00F800
00F800
00F800
00F800
00F800
00F800
00F800
00F800
00F800
00F800
00F800
00F800
00F800
00F800
00F800
00F800
00F800
00F800
00F800
00F800
00F800
00F800
000000
000000
000000
00F800
00F800
00F800
00F800
00F800
ENDCHAR
STARTCHAR 1E6D
ENCODING 7789
SWIDTH 375 0
DWIDTH 15 0
BBX 13 34 1 -8
BITMAP
1E00
1E00
1E00
1E00
1E00
FFF8
FFF8
FFF8
FFF8
1E00
1E00
1E00
1E00
1E00
1E00
1E00
1E00
1E00
1E00
1E00
1E00
1F00
1FF8
0FF8
0FF8
03F8
0000
0000
0000
0780
0780
0780
0780
0780
ENDCHAR
STARTCHAR 1E80
ENCODING 7808
SWIDTH 1050 0
DWIDTH 42 0
BBX 40 39 1 -1
BITMAP
0001F00000
0000F00000
0000F80000
0000780000
00007C0000
00003C0000
00003E0000
00001E0000
00000F0000
0000000000
00007E0000
F800FF001F
F801FF801E
7C03FF803E
7C03FFC03E
7C03C7C03E
7C03C3C03E
7C07C3C03E
7C07C3C03E
7C07C3E03E
7C07C3E03C
7C0783E03C
3C0F81E07C
3C0F81E07C
3E0F81F07C
3E0F81F07C
3E0F01F07C
3E0F00F07C
3E1F00F07C
3E1F00F078
3E1F00F878
3E1F00F878
1E1E00F8F8
1E3E0078F8
1FFE007FF8
1FFE007FF0
0FFC003FF0
0FF8003FE0
03F0000FC0
ENDCHAR
STARTCHAR 1E81
ENCODING 7809
SWIDTH 975 0
DWIDTH 39 0
BBX 37 33 1 -1
BITMAP
0003C00000
0003E00000
0001E00000
0001F00000
0000F00000
0000F80000
0000780000
00003C0000
00003C0000
0000000000
F800F800F8
F803FE00F8
F807FF00F8
7807FF00F0
78078F00F0
780F8F00F0
780F8F81F0
7C0F0781F0
7C0F0781F0
7C0F0781F0
7C1F0781F0
3C1F07C1E0
3C1E03C1E0
3C1E03C1E0
3C1E03C3E0
3C3E03E3E0
3E3C03E3E0
3E3C01E3E0
3E3C01E3C0
1FFC01FFC0
1FF800FFC0
0FF800FF80
07E0003E00
ENDCHAR
STARTCHAR 1E82
ENCODING 7810
SWIDTH 1050 0
DWIDTH 42 0
BBX 40 39 1 -1
BITMAP
00000F8000
00000F0000
00001F0000
00001E0000
00003E0000
00003C0000
0000780000
0000780000
0000F00000
0000000000
00007E0000
F800FF001F
F801FF801E
7C03FF803E
7C03FFC03E
7C03C7C03E
7C03C3C03E
7C07C3C03E
7C07C3C03E
7C07C3E03E
7C07C3E03C
7C0783E03C
3C0F81E07C
3C0F81E07C
3E0F81F07C
3E0F81F07C
3E0F01F07C
3E0F00F07C
3E1F00F07C
3E1F00F078
3E1F00F878
3E1F00F878
1E1E00F8F8
1E3E0078F8
1FFE007FF8
1FFE007FF0
0FFC003FF0
0FF8003FE0
03F0000FC0
ENDCHAR
STARTCHAR 1E83
ENCODING 7811
SWIDTH 975 0
DWIDTH 39 0
BBX 37 33 1 -1
BITMAP
00001F0000
00003E0000
00003C0000
00007C0000
0000780000
0000F80000
0000F00000
0001E00000
0001E00000
0000000000
F800F800F8
F803FE00F8
F807FF00F8
7807FF00F0
78078F00F0
780F8F00F0
780F8F81F0
7C0F0781F0
7C0F0781F0
7C0F0781F0
7C1F0781F0
3C1F07C1E0
3C1E03C1E0
3C1E03C1E0
3C1E03C3E0
3C3E03E3E0
3E3C03E3E0
3E3C01E3E0
3E3C01E3C0
1FFC01FFC0
1FF800FFC0
0FF800FF80
07E0003E00
ENDCHAR
STARTCHAR 1E84
ENCODING 7812
SWIDTH 1050 0
DWIDTH 42 0
BBX 40 37 1 -1
BITMAP
000781E000
000781E000
000781E000
000781E000
000781E000
0000000000
0000000000
0000000000
00007E0000
F800FF001F
F801FF801E
7C03FF803E
7C03FFC03E
7C03C7C03E
7C03C3C03E
7C07C3C03E
7C07C3C03E
7C07C3E03E
7C07C3E03C
7C0783E03C
3C0F81E07C
3C0F81E07C
3E0F81F07C
3E0F81F07C
3E0F01F07C
3E0F00F07C
3E1F00F07C
3E1F00F078
3E1F00F878
3E1F00F878
1E1E00F8F8
1E3E0078F8
1FFE007FF8
1FFE007FF0
0FFC003FF0
0FF8003FE0
03F0000FC0
ENDCHAR
STARTCHAR 1E85
ENCODING 7813
SWIDTH 975 0
DWIDTH 39 0
BBX 37 31 1 -1
BITMAP
000F078000
000F078000
000F078000
000F078000
000F078000
0000000000
0000000000
0000000000
F800F800F8
F803FE00F8
F807FF00F8
7807FF00F0
78078F00F0
780F8F00F0
780F8F81F0
7C0F0781F0
7C0F0781F0
7C0F0781F0
7C1F0781F0
3C1F07C1E0
3C1E03C1E0
3C1E03C1E0
3C1E03C3E0
3C3E03E3E0
3E3C03E3E0
3E3C01E3E0
3E3C01E3C0
1FFC01FFC0
1FF800FFC0
0FF800FF80
07E0003E00
ENDCHAR
STARTCHAR 1E92
ENCODING 7826
SWIDTH 750 0
DWIDTH 30 0
BBX 25 35 2 -8
BITMAP
7FFFFC00
7FFFFF00
7FFFFF80
7FFFFF80
7FFFFF80
00000F80
00000780
00000F80
00001F80
00007F80
0001FF00
000FFE00
003FF800
00FFC000
07FF0000
1FFC0000
3FE00000
7F800000
7E000000
F8000000
F8000000
F8000000
FFFFFF80
7FFFFF80
7FFFFF80
3FFFFF80
0FFFFF80
00000000
00000000
00000000
001E0000
001E0000
001E0000
001E0000
001E0000
ENDCHAR
STARTCHAR 1E93
ENCODING 7827
SWIDTH 625 0
DWIDTH 25 0
BBX 21 29 2 -8
BITMAP
7FFFE0
7FFFF0
7FFFF0
7FFFF8
000078
000078
0000F8
0003F0
001FF0
00FFC0
07FF00
1FF800
7FC000
7E0000
F80000
F00000
F00000
FFFFF8
7FFFF8
7FFFF8
1FFFF8
000000
000000
000000
00F800
00F800
00F800
00F800
00F800
ENDCHAR
STARTCHAR 1EA0
ENCODING 7840
SWIDTH 775 0
DWIDTH 31 0
BBX 29 36 1 -8
BITMAP
000FC000
003FE000
003FF000
007FF800
007FF800
00FCF800
00F8FC00
00F87C00
01F87C00
01F03E00
01F03E00
03E03F00
03E01F00
07E01F00
07C01F80
07C00F80
0F800F80
0F800FC0
1FFFFFC0
1FFFFFC0
1FFFFFE0
3FFFFFE0
3E0003F0
7E0001F0
7C0001F0
7C0001F8
FC0000F8
F80000F8
00000000
00000000
00000000
00078000
00078000
00078000
00078000
00078000
ENDCHAR
STARTCHAR 1EA1
ENCODING 7841
SWIDTH 675 0
DWIDTH 27 0
BBX 21 29 3 -8
BITMAP
7FFF80
7FFFE0
7FFFF0
7FFFF0
0000F8
0000F8
000078
000078
000078
3FFFF8
7FFFF8
FFFFF8
F80078
F00078
F00078
F00078
F80078
FFFFF8
7FFFF8
3FFFF0
1FFFE0
000000
000000
000000
00F800
00F800
00F800
00F800
00F800
ENDCHAR
STARTCHAR 1EA2
ENCODING 7842
SWIDTH 775 0
DWIDTH 31 0
BBX 29 42 1 0
BITMAP
001FFC00
001FFE00
001FFE00
00000F00
00000F00
00000F00
00000F00
0001FE00
0003FE00
0007F800
00070000
00070000
00070000
00000000
000FC000
003FE000
003FF000
007FF800
007FF800
00FCF800
00F8FC00
00F87C00
01F87C00
01F03E00
01F03E00
03E03F00
03E01F00
07E01F00
07C01F80
07C00F80
0F800F80
0F800FC0
1FFFFFC0
1FFFFFC0
1FFFFFE0
3FFFFFE0
3E0003F0
7E0001F0
7C0001F0
7C0001F8
FC0000F8
F80000F8
ENDCHAR
STARTCHAR 1EA3
ENCODING 7843
SWIDTH 675 0
DWIDTH 27 0
BBX 21 36 3 0
BITMAP
03FF00
03FFC0
03FFC0
0001E0
0001E0
0001E0
0001E0
003FC0
007FC0
00FF00
00E000
00E000
00E000
000000
000000
7FFF80
7FFFE0
7FFFF0
7FFFF0
0000F8
0000F8
000078
000078
000078
3FFFF8
7FFFF8
FFFFF8
F80078
F00078
F00078
F00078
F80078
FFFFF8
7FFFF8
3FFFF0
1FFFE0
ENDCHAR
STARTCHAR 1EA4
ENCODING 7844
SWIDTH 775 0
DWIDTH 31 0
BBX 31 42 1 0
BITMAP
0000003E
0000003E
0000007C
00000078
000000F8
001FC0F0
003FE1F0
003FE1E0
007CF3E0
0078F800
00F87800
00F07C00
01F03C00
00000000
000FC000
003FE000
003FF000
007FF800
007FF800
00FCF800
00F8FC00
00F87C00
01F87C00
01F03E00
01F03E00
03E03F00
03E01F00
07E01F00
07C01F80
07C00F80
0F800F80
0F800FC0
1FFFFFC0
1FFFFFC0
1FFFFFE0
3FFFFFE0
3E0003F0
7E0001F0
7C0001F0
7C0001F8
FC0000F8
F80000F8
ENDCHAR
STARTCHAR 1EA5
ENCODING 7845
SWIDTH 675 0
DWIDTH 27 0
BBX 26 36 3 0
BITMAP
000007C0
00000780
00000F80
00000F00
00001F00
00F81E00
03FC3C00
03FE3C00
07DF7800
078F0000
0F8F8000
0F078000
1F07C000
3E03C000
00000000
7FFF8000
7FFFE000
7FFFF000
7FFFF000
0000F800
0000F800
00007800
00007800
00007800
3FFFF800
7FFFF800
FFFFF800
F8007800
F0007800
F0007800
F0007800
F8007800
FFFFF800
7FFFF800
3FFFF000
1FFFE000
ENDCHAR
STARTCHAR 1EA6
ENCODING 7846
SWIDTH 775 0
DWIDTH 31 0
BBX 31 42 -1 0
BITMAP
F8000000
78000000
7C000000
3E000000
1E000000
1F07F000
0F0FF800
0F8FF800
079F3C00
001E3E00
003E1E00
003C1F00
007C0F00
00000000
0003F000
000FF800
000FFC00
001FFE00
001FFE00
003F3E00
003E3F00
003E1F00
007E1F00
007C0F80
007C0F80
00F80FC0
00F807C0
01F807C0
01F007E0
01F003E0
03E003E0
03E003F0
07FFFFF0
07FFFFF0
07FFFFF8
0FFFFFF8
0F8000FC
1F80007C
1F00007C
1F00007E
3F00003E
3E00003E
ENDCHAR
STARTCHAR 1EA7
ENCODING 7847
SWIDTH 675 0
DWIDTH 27 0
BBX 26 36 -2 0
BITMAP
F8000000
F8000000
7C000000
3C000000
3E000000
1E07C000
1F1FE000
0F1FF000
07BEF800
003C7800
007C7C00
00783C00
00F83E00
00F01E00
00000000
03FFFC00
03FFFF00
03FFFF80
03FFFF80
000007C0
000007C0
000003C0
000003C0
000003C0
01FFFFC0
03FFFFC0
07FFFFC0
07C003C0
078003C0
078003C0
078003C0
07C003C0
07FFFFC0
03FFFFC0
01FFFF80
00FFFF00
ENDCHAR
STARTCHAR 1EA8
ENCODING 7848
SWIDTH 775 0
DWIDTH 31 0
BBX 33 45 1 0
BITMAP
000007FE00
000007FF00
000007FF80
0000000780
0000000380
0000000380
0000000780
000000FF80
000FC1FF00
001FE1FE00
003FF1C000
007CF1C000
0078F9C000
00F8780000
00F07C0000
01F03C0000
0000000000
000FC00000
003FE00000
003FF00000
007FF80000
007FF80000
00FCF80000
00F8FC0000
00F87C0000
01F87C0000
01F03E0000
01F03E0000
03E03F0000
03E01F0000
07E01F0000
07C01F8000
07C00F8000
0F800F8000
0F800FC000
1FFFFFC000
1FFFFFC000
1FFFFFE000
3FFFFFE000
3E0003F000
7E0001F000
7C0001F000
7C0001F800
FC0000F800
F80000F800
ENDCHAR
STARTCHAR 1EA9
ENCODING 7849
SWIDTH 675 0
DWIDTH 27 0
BBX 28 41 3 0
BITMAP
0001FFC0
0001FFE0
0001FFE0
000000F0
000000F0
000000F0
000000F0
00001FE0
00003FE0
00007F80
00F87800
03FC7000
03FE7000
07DF0000
078F0000
0F8F8000
0F078000
1F07C000
1E03C000
00000000
7FFF8000
7FFFE000
7FFFF000
7FFFF000
0000F800
0000F800
00007800
00007800
00007800
3FFFF800
7FFFF800
FFFFF800
F8007800
F0007800
F0007800
F0007800
F8007800
FFFFF800
7FFFF800
3FFFF000
1FFFE000
ENDCHAR
STARTCHAR 1EAA
ENCODING 7850
SWIDTH 775 0
DWIDTH 31 0
BBX 29 42 1 0
BITMAP
03FFFF00
03FFFF00
03FFFF00
03FFFF00
00000000
000FC000
001FE000
003FF000
007CF000
0078F800
00F87800
00F07C00
01F03C00
00000000
000FC000
003FE000
003FF000
007FF800
007FF800
00FCF800
00F8FC00
00F87C00
01F87C00
01F03E00
01F03E00
03E03F00
03E01F00
07E01F00
07C01F80
07C00F80
0F800F80
0F800FC0
1FFFFFC0
1FFFFFC0
1FFFFFE0
3FFFFFE0
3E0003F0
7E0001F0
7C0001F0
7C0001F8
FC0000F8
F80000F8
ENDCHAR
STARTCHAR 1EAB
ENCODING 7851
SWIDTH 675 0
DWIDTH 27 0
BBX 21 38 3 0
BITMAP
7FFFF0
7FFFF0
7FFFF0
7FFFF0
000000
000000
000000
00F800
03FE00
03FE00
07DF00
078F00
0F8F80
0F0780
1F07C0
1E03E0
000000
7FFF80
7FFFE0
7FFFF0
7FFFF0
0000F8
0000F8
000078
000078
000078
3FFFF8
7FFFF8
FFFFF8
F80078
F00078
F00078
F00078
F80078
FFFFF8
7FFFF8
3FFFF0
1FFFE0
ENDCHAR
STARTCHAR 1EAC
ENCODING 7852
SWIDTH 775 0
DWIDTH 31 0
BBX 29 45 1 -8
BITMAP
000FC000
001FE000
003FF000
007CF000
0078F800
00F87800
00F07C00
01F03C00
00000000
000FC000
003FE000
003FF000
007FF800
007FF800
00FCF800
00F8FC00
00F87C00
01F87C00
01F03E00
01F03E00
03E03F00
03E01F00
07E01F00
07C01F80
07C00F80
0F800F80
0F800FC0
1FFFFFC0
1FFFFFC0
1FFFFFE0
3FFFFFE0
3E0003F0
7E0001F0
7C0001F0
7C0001F8
FC0000F8
F80000F8
00000000
00000000
00000000
001F0000
001F0000
001F0000
001F0000
001F0000
ENDCHAR
STARTCHAR 1EAD
ENCODING 7853
SWIDTH 675 0
DWIDTH 27 0
BBX 21 39 3 -8
BITMAP
00F800
03FC00
03FE00
07DF00
078F00
0F8F80
0F0780
1F07C0
3E03C0
000000
7FFF80
7FFFE0
7FFFF0
7FFFF0
0000F8
0000F8
000078
000078
000078
3FFFF8
7FFFF8
FFFFF8
F80078
F00078
F00078
F00078
F80078
FFFFF8
7FFFF8
3FFFF0
1FFFE0
000000
000000
000000
01E000
01E000
01E000
01E000
01E000
ENDCHAR
STARTCHAR 1EAE
ENCODING 7854
SWIDTH 775 0
DWIDTH 31 0
BBX 29 47 1 0
BITMAP
0000F800
0001F000
0001F000
0003E000
0003C000
0007C000
00078000
000F8000
000F0000
01C01E00
01C01E00
01C01E00
01C01E00
01C01E00
01E03E00
01FFFC00
00FFF800
003FE000
00000000
000FC000
003FE000
003FF000
007FF800
007FF800
00FCF800
00F8FC00
00F87C00
01F87C00
01F03E00
01F03E00
03E03F00
03E01F00
07E01F00
07C01F80
07C00F80
0F800F80
0F800FC0
1FFFFFC0
1FFFFFC0
1FFFFFE0
3FFFFFE0
3E0003F0
7E0001F0
7C0001F0
7C0001F8
FC0000F8
F80000F8
ENDCHAR
STARTCHAR 1EAF
ENCODING 7855
SWIDTH 675 0
DWIDTH 27 0
BBX 21 40 3 0
BITMAP
000F80
000F00
001F00
001E00
003E00
003C00
007800
007800
00F000
1C01E0
1C01E0
1C01E0
1C01E0
1C01E0
1F03C0
1FFFC0
0FFF80
03FE00
000000
7FFF80
7FFFE0
7FFFF0
7FFFF0
0000F8
0000F8
000078
000078
000078
3FFFF8
7FFFF8
FFFFF8
F80078
F00078
F00078
F00078
F80078
FFFFF8
7FFFF8
3FFFF0
1FFFE0
ENDCHAR
STARTCHAR 1EB0
ENCODING 7856
SWIDTH 775 0
DWIDTH 31 0
BBX 29 47 1 0
BITMAP
007C0000
003C0000
003E0000
001F0000
000F0000
000F8000
00078000
0007C000
0003C000
01C01E00
01C01E00
01C01E00
01C01E00
01C01E00
01E03E00
01FFFC00
00FFF800
003FE000
00000000
000FC000
003FE000
003FF000
007FF800
007FF800
00FCF800
00F8FC00
00F87C00
01F87C00
01F03E00
01F03E00
03E03F00
03E01F00
07E01F00
07C01F80
07C00F80
0F800F80
0F800FC0
1FFFFFC0
1FFFFFC0
1FFFFFE0
3FFFFFE0
3E0003F0
7E0001F0
7C0001F0
7C0001F8
FC0000F8
F80000F8
ENDCHAR
STARTCHAR 1EB1
ENCODING 7857
SWIDTH 675 0
DWIDTH 27 0
BBX 21 40 3 0
BITMAP
07C000
03C000
03E000
01E000
01F000
00F000
007800
007800
003C00
3C01E0
3C01E0
3C01E0
3C01E0
1C01E0
1E03C0
1FFFC0
0FFF80
03FE00
000000
7FFF80
7FFFE0
7FFFF0
7FFFF0
0000F8
0000F8
000078
000078
000078
3FFFF8
7FFFF8
FFFFF8
F80078
F00078
F00078
F00078
F80078
FFFFF8
7FFFF8
3FFFF0
1FFFE0
ENDCHAR
STARTCHAR 1EB2
ENCODING 7858
SWIDTH 775 0
DWIDTH 31 0
BBX 29 50 1 0
BITMAP
001FFC00
001FFE00
001FFE00
00000F00
00000F00
00000F00
00000F00
0001FE00
0003FE00
0007F800
00070000
00070000
01C71E00
01C01E00
01C01E00
01C01E00
01E01E00
01F03C00
01FFFC00
00FFF800
003FE000
00000000
000FC000
003FE000
003FF000
007FF800
007FF800
00FCF800
00F8FC00
00F87C00
01F87C00
01F03E00
01F03E00
03E03F00
03E01F00
07E01F00
07C01F80
07C00F80
0F800F80
0F800FC0
1FFFFFC0
1FFFFFC0
1FFFFFE0
3FFFFFE0
3E0003F0
7E0001F0
7C0001F0
7C0001F8
FC0000F8
F80000F8
ENDCHAR
STARTCHAR 1EB3
ENCODING 7859
SWIDTH 675 0
DWIDTH 27 0
BBX 21 45 3 0
BITMAP
01FF80
01FFE0
01FFE0
0000F0
0000F0
0000F0
0000F0
001FE0
003FE0
007F80
007000
007000
007000
000000
3C01E0
3C01E0
3C01E0
3C01E0
1C01C0
1E03C0
1FFFC0
0FFF80
03FE00
000000
7FFF80
7FFFE0
7FFFF0
7FFFF0
0000F8
0000F8
000078
000078
000078
3FFFF8
7FFFF8
FFFFF8
F80078
F00078
F00078
F00078
F80078
FFFFF8
7FFFF8
3FFFF0
1FFFE0
ENDCHAR
STARTCHAR 1EB4
ENCODING 7860
SWIDTH 775 0
DWIDTH 31 0
BBX 29 43 1 0
BITMAP
03FFFF00
03FFFF00
03FFFF00
03FFFF00
00000000
01C01E00
01C01E00
01C01E00
01C01E00
01C01E00
01E03E00
01FFFC00
00FFF800
003FE000
00000000
000FC000
003FE000
003FF000
007FF800
007FF800
00FCF800
00F8FC00
00F87C00
01F87C00
01F03E00
01F03E00
03E03F00
03E01F00
07E01F00
07C01F80
07C00F80
0F800F80
0F800FC0
1FFFFFC0
1FFFFFC0
1FFFFFE0
3FFFFFE0
3E0003F0
7E0001F0
7C0001F0
7C0001F8
FC0000F8
F80000F8
ENDCHAR
STARTCHAR 1EB5
ENCODING 7861
SWIDTH 675 0
DWIDTH 27 0
BBX 21 38 3 0
BITMAP
7FFFF0
7FFFF0
7FFFF0
7FFFF0
000000
000000
000000
3C01E0
3C01E0
3C01E0
3C01E0
1C01E0
1E03C0
1FFFC0
0FFF80
03FE00
000000
7FFF80
7FFFE0
7FFFF0
7FFFF0
0000F8
0000F8
000078
000078
000078
3FFFF8
7FFFF8
FFFFF8
F80078
F00078
F00078
F00078
F80078
FFFFF8
7FFFF8
3FFFF0
1FFFE0
ENDCHAR
STARTCHAR 1EB6
ENCODING 7862
SWIDTH 775 0
DWIDTH 31 0
BBX 29 46 1 -8
BITMAP
01C01E00
01C01E00
01C01E00
01C01E00
01C01E00
01E03E00
01FFFC00
00FFF800
003FE000
00000000
000FC000
003FE000
003FF000
007FF800
007FF800
00FCF800
00F8FC00
00F87C00
01F87C00
01F03E00
01F03E00
03E03F00
03E01F00
07E01F00
07C01F80
07C00F80
0F800F80
0F800FC0
1FFFFFC0
1FFFFFC0
1FFFFFE0
3FFFFFE0
3E0003F0
7E0001F0
7C0001F0
7C0001F8
FC0000F8
F80000F8
00000000
00000000
00000000
00078000
00078000
00078000
00078000
00078000
ENDCHAR
STARTCHAR 1EB7
ENCODING 7863
SWIDTH 675 0
DWIDTH 27 0
BBX 21 39 3 -8
BITMAP
3C01E0
3C01E0
3C01E0
3C01E0
3C01C0
1E03C0
1FFFC0
0FFF80
03FE00
000000
7FFF80
7FFFE0
7FFFF0
7FFFF0
0000F8
0000F8
000078
000078
000078
3FFFF8
7FFFF8
FFFFF8
F80078
F00078
F00078
F00078
F80078
FFFFF8
7FFFF8
3FFFF0
1FFFE0
000000
000000
000000
00F800
00F800
00F800
00F800
00F800
ENDCHAR
STARTCHAR 1EB8
ENCODING 7864
SWIDTH 700 0
DWIDTH 28 0
BBX 23 35 2 -8
BITMAP
07FFFE
1FFFFE
3FFFFE
7FFFFE
7FFFFE
FC0000
FC0000
F80000
F80000
7C0000
7E0000
3FFFFE
1FFFFE
1FFFFE
3FFFFE
7E0000
7C0000
F80000
F80000
F80000
F80000
FC0000
7FFFFE
7FFFFE
3FFFFE
1FFFFE
07FFFE
000000
000000
000000
003C00
003C00
003C00
003C00
003C00
ENDCHAR
STARTCHAR 1EB9
ENCODING 7865
SWIDTH 650 0
DWIDTH 26 0
BBX 21 29 3 -8
BITMAP
1FFF80
3FFFE0
7FFFF0
FFFFF0
F800F8
F00078
F00078
F00078
F000F8
FFFFF0
FFFFF0
FFFFC0
F00000
F00000
F00000
F00000
F80000
FFFFF0
7FFFF0
3FFFF0
0FFFF0
000000
000000
000000
00F000
00F000
00F000
00F000
00F000
ENDCHAR
STARTCHAR 1EBA
ENCODING 7866
SWIDTH 700 0
DWIDTH 28 0
BBX 23 42 2 0
BITMAP
007FE0
007FF0
007FF8
000078
000038
00003C
000038
000078
000FF8
001FF0
001FE0
001C00
001C00
001C00
000000
07FFFE
1FFFFE
3FFFFE
7FFFFE
7FFFFE
FC0000
FC0000
F80000
F80000
7C0000
7E0000
3FFFFE
1FFFFE
1FFFFE
3FFFFE
7E0000
7C0000
F80000
F80000
F80000
F80000
FC0000
7FFFFE
7FFFFE
3FFFFE
1FFFFE
07FFFE
ENDCHAR
STARTCHAR 1EBB
ENCODING 7867
SWIDTH 650 0
DWIDTH 26 0
BBX 21 36 3 0
BITMAP
01FF80
01FFC0
01FFE0
0001E0
0000F0
0000F0
0001E0
003FE0
007FC0
007F80
007000
007000
007000
000000
000000
1FFF80
3FFFE0
7FFFF0
FFFFF0
F800F8
F00078
F00078
F00078
F000F8
FFFFF0
FFFFF0
FFFFC0
F00000
F00000
F00000
F00000
F80000
FFFFF0
7FFFF0
3FFFF0
0FFFF0
ENDCHAR
STARTCHAR 1EBE
ENCODING 7870
SWIDTH 700 0
DWIDTH 28 0
BBX 30 41 2 0
BITMAP
0000007C
00000078
000000F8
000000F0
001F01E0
007F83E0
007FC3C0
00FBE7C0
00F1E780
01F1F000
01E0F000
03E0F800
03C07800
00000000
07FFFE00
1FFFFE00
3FFFFE00
7FFFFE00
7FFFFE00
FC000000
FC000000
F8000000
F8000000
7C000000
7E000000
3FFFFE00
1FFFFE00
1FFFFE00
3FFFFE00
7E000000
7C000000
F8000000
F8000000
F8000000
F8000000
FC000000
7FFFFE00
7FFFFE00
3FFFFE00
1FFFFE00
07FFFE00
ENDCHAR
STARTCHAR 1EBF
ENCODING 7871
SWIDTH 650 0
DWIDTH 26 0
BBX 26 36 3 0
BITMAP
000007C0
00000780
00000F80
00000F00
00001F00
01F81E00
03FC3C00
03FE3C00
07DE7800
078F0000
0F0F8000
1F078000
1E07C000
3E03C000
00000000
1FFF8000
3FFFE000
7FFFF000
FFFFF000
F800F800
F0007800
F0007800
F0007800
F000F800
FFFFF000
FFFFF000
FFFFC000
F0000000
F0000000
F0000000
F0000000
F8000000
FFFFF000
7FFFF000
3FFFF000
0FFFF000
ENDCHAR
STARTCHAR 1EC0
ENCODING 7872
SWIDTH 700 0
DWIDTH 28 0
BBX 26 41 -1 0
BITMAP
F8000000
7C000000
3C000000
3E000000
1E03E000
1F0FF800
0F0FF800
0F9F7C00
079E3C00
003E3E00
003C1E00
007C1F00
00780F00
00000000
00FFFFC0
03FFFFC0
07FFFFC0
0FFFFFC0
0FFFFFC0
1F800000
1F800000
1F000000
1F000000
0F800000
0FC00000
07FFFFC0
03FFFFC0
03FFFFC0
07FFFFC0
0FC00000
0F800000
1F000000
1F000000
1F000000
1F000000
1F800000
0FFFFFC0
0FFFFFC0
07FFFFC0
03FFFFC0
00FFFFC0
ENDCHAR
STARTCHAR 1EC1
ENCODING 7873
SWIDTH 650 0
DWIDTH 26 0
BBX 26 36 -2 0
BITMAP
F0000000
F8000000
78000000
7C000000
3E000000
1E0FC000
1F1FE000
0F1FF000
0FBEF000
003CF800
00787C00
00F83C00
00F03E00
01F01E00
00000000
00FFFC00
01FFFF00
03FFFF80
07FFFF80
07C007C0
078003C0
078003C0
078003C0
078007C0
07FFFF80
07FFFF80
07FFFE00
07800000
07800000
07800000
07800000
07C00000
07FFFF80
03FFFF80
01FFFF80
007FFF80
ENDCHAR
STARTCHAR 1EC2
ENCODING 7874
SWIDTH 700 0
DWIDTH 28 0
BBX 31 45 2 0
BITMAP
00003FF0
00003FFC
00003FFC
0000003E
0000001E
0000000E
0000001E
0000001E
007E03FC
00FF07FC
00FF8FF0
01F78F00
01E3CE00
03C3EE00
07C1E000
0781F000
0F80F000
00000000
07FFFE00
1FFFFE00
3FFFFE00
7FFFFE00
7FFFFE00
FC000000
FC000000
F8000000
F8000000
7C000000
7E000000
3FFFFE00
1FFFFE00
1FFFFE00
3FFFFE00
7E000000
7C000000
F8000000
F8000000
F8000000
F8000000
FC000000
7FFFFE00
7FFFFE00
3FFFFE00
1FFFFE00
07FFFE00
ENDCHAR
STARTCHAR 1EC3
ENCODING 7875
SWIDTH 650 0
DWIDTH 26 0
BBX 27 41 3 0
BITMAP
0001FF80
0001FFC0
0001FFE0
000001E0
000000E0
000000E0
000001E0
00003FE0
00007FC0
00007F80
01F87000
03FC7000
07FE7000
079E0000
0F9F0000
0F0F0000
1F0F8000
1E078000
3E07C000
00000000
1FFF8000
3FFFE000
7FFFF000
FFFFF000
F800F800
F0007800
F0007800
F0007800
F000F800
FFFFF000
FFFFF000
FFFFC000
F0000000
F0000000
F0000000
F0000000
F8000000
FFFFF000
7FFFF000
3FFFF000
0FFFF000
ENDCHAR
STARTCHAR 1EC4
ENCODING 7876
SWIDTH 700 0
DWIDTH 28 0
BBX 23 43 2 0
BITMAP
1FFFFC
1FFFFC
1FFFFC
1FFFFC
000000
000000
003E00
007F80
00FF80
01F7C0
01E3C0
03E3E0
03C1E0
07C1F0
0780F8
000000
07FFFE
1FFFFE
3FFFFE
7FFFFE
7FFFFE
FC0000
FC0000
F80000
F80000
7C0000
7E0000
3FFFFE
1FFFFE
1FFFFE
3FFFFE
7E0000
7C0000
F80000
F80000
F80000
F80000
FC0000
7FFFFE
7FFFFE
3FFFFE
1FFFFE
07FFFE
ENDCHAR
STARTCHAR 1EC5
ENCODING 7877
SWIDTH 650 0
DWIDTH 26 0
BBX 21 38 3 0
BITMAP
7FFFE0
7FFFE0
7FFFE0
7FFFE0
000000
000000
000000
01F800
03FC00
03FE00
079E00
0F9F00
0F0F00
1F0F80
1E07C0
3E03C0
000000
1FFF80
3FFFE0
7FFFF0
FFFFF0
F800F8
F00078
F00078
F00078
F000F8
FFFFF0
FFFFF0
FFFFC0
F00000
F00000
F00000
F00000
F80000
FFFFF0
7FFFF0
3FFFF0
0FFFF0
ENDCHAR
STARTCHAR 1EC6
ENCODING 7878
SWIDTH 700 0
DWIDTH 28 0
BBX 23 45 2 -8
BITMAP
003F00
007F80
00FFC0
00F3C0
01F3E0
01E1E0
03E1F0
03C0F0
07C0F8
000000
07FFFE
1FFFFE
3FFFFE
7FFFFE
7FFFFE
FC0000
FC0000
F80000
F80000
7C0000
7E0000
3FFFFE
1FFFFE
1FFFFE
3FFFFE
7E0000
7C0000
F80000
F80000
F80000
F80000
FC0000
7FFFFE
7FFFFE
3FFFFE
1FFFFE
07FFFE
000000
000000
000000
001E00
001E00
001E00
001E00
001E00
ENDCHAR
STARTCHAR 1EC7
ENCODING 7879
SWIDTH 650 0
DWIDTH 26 0
BBX 21 39 3 -8
BITMAP
01F800
03FC00
07FE00
079E00
0F9F00
0F0F00
1F0F80
1E07C0
3E03C0
000000
1FFF80
3FFFE0
7FFFF0
FFFFF0
F800F8
F00078
F00078
F00078
F000F8
FFFFF0
FFFFF0
FFFFC0
F00000
F00000
F00000
F00000
F80000
FFFFF0
7FFFF0
3FFFF0
0FFFF0
000000
000000
000000
00F000
00F000
00F000
00F000
00F000
ENDCHAR
STARTCHAR 1EC8
ENCODING 7880
SWIDTH 300 0
DWIDTH 12 0
BBX 12 42 2 0
BITMAP
FFC0
FFE0
FFF0
00F0
0070
0070
0070
00F0
1FF0
3FE0
3FC0
3800
3800
3800
0000
7C00
7C00
7C00
7C00
7C00
7C00
7C00
7C00
7C00
7C00
7C00
7C00
7C00
7C00
7C00
7C00
7C00
7C00
7C00
7C00
7C00
7C00
7C00
7C00
7C00
7C00
7C00
ENDCHAR
STARTCHAR 1EC9
ENCODING 7881
SWIDTH 300 0
DWIDTH 12 0
BBX 13 36 1 0
BITMAP
FFC0
FFF0
FFF0
0078
0078
0078
0078
0FF0
1FF0
3FC0
3800
3800
3800
0000
3C00
3C00
3C00
3C00
3C00
3C00
3C00
3C00
3C00
3C00
3C00
3C00
3C00
3C00
3C00
3C00
3C00
3C00
3C00
3C00
3C00
3C00
ENDCHAR
STARTCHAR 1ECA
ENCODING 7882
SWIDTH 275 0
DWIDTH 11 0
BBX 5 35 3 -8
BITMAP
F8
F8
F8
F8
F8
F8
F8
F8
F8
F8
F8
F8
F8
F8
F8
F8
F8
F8
F8
F8
F8
F8
F8
F8
F8
F8
F8
00
00
00
F8
F8
F8
F8
F8
ENDCHAR
STARTCHAR 1ECB
ENCODING 7883
SWIDTH 250 0
DWIDTH 10 0
BBX 4 37 3 -8
BITMAP
F0
F0
F0
F0
F0
00
00
00
F0
F0
F0
F0
F0
F0
F0
F0
F0
F0
F0
F0
F0
F0
F0
F0
F0
F0
F0
F0
F0
00
00
00
F0
F0
F0
F0
F0
ENDCHAR
STARTCHAR 1ECC
ENCODING 7884
SWIDTH 825 0
DWIDTH 33 0
BBX 28 35 2 -8
BITMAP
00FFF000
03FFFE00
0FFFFF00
1FFFFF80
3FFFFFC0
3F800FE0
7E0003E0
7C0003E0
7C0001F0
780001F0
F80001F0
F80001F0
F80000F0
F80000F0
F80000F0
F80001F0
F80001F0
780001F0
7C0001F0
7C0003F0
7E0003E0
3F000FE0
3FFFFFC0
1FFFFF80
0FFFFF00
03FFFE00
00FFF000
00000000
00000000
00000000
000F0000
000F0000
000F0000
000F0000
000F0000
ENDCHAR
STARTCHAR 1ECD
ENCODING 7885
SWIDTH 675 0
DWIDTH 27 0
BBX 23 29 2 -8
BITMAP
07FF80
0FFFE0
3FFFF0
3FFFF8
7E00FC
7C007C
F8003C
F8003E
F0003E
F0003E
F0003E
F0003E
F0003E
F8003E
F8003C
7C007C
7E00FC
3FFFF8
1FFFF0
0FFFE0
03FF80
000000
000000
000000
007C00
007C00
007C00
007C00
007C00
ENDCHAR
STARTCHAR 1ECE
ENCODING 7886
SWIDTH 825 0
DWIDTH 33 0
BBX 28 42 2 0
BITMAP
001FF000
001FFC00
001FFE00
00003E00
00000E00
00000E00
00000E00
00001E00
0003FE00
0007FC00
0007F800
000F0000
000E0000
000E0000
00000000
00FFF000
03FFFE00
0FFFFF00
1FFFFF80
3FFFFFC0
3F800FE0
7E0003E0
7C0003E0
7C0001F0
780001F0
F80001F0
F80001F0
F80000F0
F80000F0
F80000F0
F80001F0
F80001F0
780001F0
7C0001F0
7C0003F0
7E0003E0
3F000FE0
3FFFFFC0
1FFFFF80
0FFFFF00
03FFFE00
00FFF000
ENDCHAR
STARTCHAR 1ECF
ENCODING 7887
SWIDTH 675 0
DWIDTH 27 0
BBX 23 36 2 0
BITMAP
01FFC0
01FFE0
01FFE0
0000F0
0000F0
0000F0
0000F0
001FE0
003FE0
007F80
007800
007000
007000
000000
000000
07FF80
0FFFE0
3FFFF0
3FFFF8
7E00FC
7C007C
F8003C
F8003E
F0003E
F0003E
F0003E
F0003E
F0003E
F8003E
F8003C
7C007C
7E00FC
3FFFF8
1FFFF0
0FFFE0
03FF80
ENDCHAR
STARTCHAR 1ED0
ENCODING 7888
SWIDTH 825 0
DWIDTH 33 0
BBX 31 41 2 0
BITMAP
0000003E
0000007C
0000007C
000000F8
000F80F0
003FC1F0
003FE1E0
007DF3E0
0078F3C0
00F8F800
00F07800
01F07C00
03E03C00
00000000
00FFF000
03FFFE00
0FFFFF00
1FFFFF80
3FFFFFC0
3F800FE0
7E0003E0
7C0003E0
7C0001F0
780001F0
F80001F0
F80001F0
F80000F0
F80000F0
F80000F0
F80001F0
F80001F0
780001F0
7C0001F0
7C0003F0
7E0003E0
3F000FE0
3FFFFFC0
1FFFFF80
0FFFFF00
03FFFE00
00FFF000
ENDCHAR
STARTCHAR 1ED1
ENCODING 7889
SWIDTH 675 0
DWIDTH 27 0
BBX 27 36 2 0
BITMAP
000003E0
000003C0
000007C0
00000780
00000F80
007C0F00
01FE1F00
01FF1E00
03EFBC00
03C78000
07C7C000
0783C000
0F83E000
0F01E000
00000000
07FF8000
0FFFE000
3FFFF000
3FFFF800
7E00FC00
7C007C00
F8003C00
F8003E00
F0003E00
F0003E00
F0003E00
F0003E00
F0003E00
F8003E00
F8003C00
7C007C00
7E00FC00
3FFFF800
1FFFF000
0FFFE000
03FF8000
ENDCHAR
STARTCHAR 1ED2
ENCODING 7890
SWIDTH 825 0
DWIDTH 33 0
BBX 30 41 0 0
BITMAP
F8000000
78000000
7C000000
3C000000
3E03E000
1E0FF000
0F0FF800
0F1F7C00
079E3C00
003E3E00
003C1E00
007C1F00
00F80F00
00000000
003FFC00
00FFFF80
03FFFFC0
07FFFFE0
0FFFFFF0
0FE003F8
1F8000F8
1F0000F8
1F00007C
1E00007C
3E00007C
3E00007C
3E00003C
3E00003C
3E00003C
3E00007C
3E00007C
1E00007C
1F00007C
1F0000FC
1F8000F8
0FC003F8
0FFFFFF0
07FFFFE0
03FFFFC0
00FFFF80
003FFC00
ENDCHAR
STARTCHAR 1ED3
ENCODING 7891
SWIDTH 675 0
DWIDTH 27 0
BBX 27 36 -2 0
BITMAP
F0000000
F8000000
78000000
7C000000
3E000000
1E0FC000
1F1FE000
0F1FF000
0FBEF000
003C7800
00787C00
00F83C00
00F03E00
01F01E00
00000000
007FF800
00FFFE00
03FFFF00
03FFFF80
07E00FC0
07C007C0
0F8003C0
0F8003E0
0F0003E0
0F0003E0
0F0003E0
0F0003E0
0F0003E0
0F8003E0
0F8003C0
07C007C0
07E00FC0
03FFFF80
01FFFF00
00FFFE00
003FF800
ENDCHAR
STARTCHAR 1ED4
ENCODING 7892
SWIDTH 825 0
DWIDTH 33 0
BBX 33 45 2 0
BITMAP
00000FFC00
00000FFF00
00000FFF00
0000000F80
0000000780
0000000380
0000000780
0000000780
001F80FF00
003FC1FF00
003FE3FC00
007DE3C000
0079F38000
00F0FB8000
01F0780000
01E07C0000
03E03C0000
0000000000
00FFF00000
03FFFE0000
0FFFFF0000
1FFFFF8000
3FFFFFC000
3F800FE000
7E0003E000
7C0003E000
7C0001F000
780001F000
F80001F000
F80001F000
F80000F000
F80000F000
F80000F000
F80001F000
F80001F000
780001F000
7C0001F000
7C0003F000
7E0003E000
3F000FE000
3FFFFFC000
1FFFFF8000
0FFFFF0000
03FFFE0000
00FFF00000
ENDCHAR
STARTCHAR 1ED5
ENCODING 7893
SWIDTH 675 0
DWIDTH 27 0
BBX 29 41 2 0
BITMAP
0000FFE0
0000FFF0
0000FFF0
00000078
00000078
00000078
00000078
00000FF0
00001FF0
00003FC0
007C3800
01FE3800
01FF3800
03EF8000
03C78000
07C7C000
0783C000
0F83E000
1F01E000
00000000
07FF8000
0FFFE000
3FFFF000
3FFFF800
7E00FC00
7C007C00
F8003C00
F8003E00
F0003E00
F0003E00
F0003E00
F0003E00
F0003E00
F8003E00
F8003C00
7C007C00
7E00FC00
3FFFF800
1FFFF000
0FFFE000
03FF8000
ENDCHAR
STARTCHAR 1ED6
ENCODING 7894
SWIDTH 825 0
DWIDTH 33 0
BBX 28 43 2 0
BITMAP
07FFFF00
07FFFF00
07FFFF00
07FFFF00
00000000
00000000
000F8000
003FC000
003FE000
007DE000
0078F000
00F8F800
00F07800
01E07C00
03E03C00
00000000
00FFF000
03FFFE00
0FFFFF00
1FFFFF80
3FFFFFC0
3F800FE0
7E0003E0
7C0003E0
7C0001F0
780001F0
F80001F0
F80001F0
F80000F0
F80000F0
F80000F0
F80001F0
F80001F0
780001F0
7C0001F0
7C0003F0
7E0003E0
3F000FE0
3FFFFFC0
1FFFFF80
0FFFFF00
03FFFE00
00FFF000
ENDCHAR
STARTCHAR 1ED7
ENCODING 7895
SWIDTH 675 0
DWIDTH 27 0
BBX 23 38 2 0
BITMAP
3FFFF8
3FFFF8
3FFFF8
3FFFF8
000000
000000
000000
007C00
01FE00
01FF00
03EF80
03C780
07C7C0
0783C0
0F83E0
1F01E0
000000
07FF80
0FFFE0
3FFFF0
3FFFF8
7E00FC
7C007C
F8003C
F8003E
F0003E
F0003E
F0003E
F0003E
F0003E
F8003E
F8003C
7C007C
7E00FC
3FFFF8
1FFFF0
0FFFE0
03FF80
ENDCHAR
STARTCHAR 1ED8
ENCODING 7896
SWIDTH 825 0
DWIDTH 33 0
BBX 28 45 2 -8
BITMAP
001F8000
003FC000
003FE000
007DE000
0078F000
00F0F800
01F07800
01E07C00
03E03C00
00000000
00FFF000
03FFFE00
0FFFFF00
1FFFFF80
3FFFFFC0
3F800FE0
7E0003E0
7C0003E0
7C0001F0
780001F0
F80001F0
F80001F0
F80000F0
F80000F0
F80000F0
F80001F0
F80001F0
780001F0
7C0001F0
7C0003F0
7E0003E0
3F000FE0
3FFFFFC0
1FFFFF80
0FFFFF00
03FFFE00
00FFF000
00000000
00000000
00000000
000F0000
000F0000
000F0000
000F0000
000F0000
ENDCHAR
STARTCHAR 1ED9
ENCODING 7897
SWIDTH 675 0
DWIDTH 27 0
BBX 23 39 2 -8
BITMAP
007C00
01FE00
01FF00
03EF80
03C780
07C7C0
0783C0
0F83E0
1F01E0
000000
07FF80
0FFFE0
3FFFF0
3FFFF8
7E00FC
7C007C
F8003C
F8003E
F0003E
F0003E
F0003E
F0003E
F0003E
F8003E
F8003C
7C007C
7E00FC
3FFFF8
1FFFF0
0FFFE0
03FF80
000000
000000
000000
007C00
007C00
007C00
007C00
007C00
ENDCHAR
STARTCHAR 1EDA
ENCODING 7898
SWIDTH 825 0
DWIDTH 33 0
BBX 31 37 2 0
BITMAP
0003E000
0003C000
0007C000
0007803E
000F803E
000F003E
001E003E
001E003E
003C003E
0000003C
00FFFFFC
03FFFFFC
0FFFFFF8
1FFFFFF0
3FFFFFC0
3F800FE0
7E0003E0
7C0003E0
7C0001F0
780001F0
F80001F0
F80001F0
F80000F0
F80000F0
F80000F0
F80001F0
F80001F0
780001F0
7C0001F0
7C0003F0
7E0003E0
3F000FE0
3FFFFFC0
1FFFFF80
0FFFFF00
03FFFE00
00FFF000
ENDCHAR
ENDFONT
